<?xml version="1.0" encoding="utf-8" standalone="no"?>
<!DOCTYPE svg PUBLIC "-//W3C//DTD SVG 1.1//EN"
  "http://www.w3.org/Graphics/SVG/1.1/DTD/svg11.dtd">
<svg xmlns:xlink="http://www.w3.org/1999/xlink" width="460.8pt" height="345.6pt" viewBox="0 0 460.8 345.6" xmlns="http://www.w3.org/2000/svg" version="1.1">
 <metadata>
  <rdf:RDF xmlns:dc="http://purl.org/dc/elements/1.1/" xmlns:cc="http://creativecommons.org/ns#" xmlns:rdf="http://www.w3.org/1999/02/22-rdf-syntax-ns#">
   <cc:Work>
    <dc:type rdf:resource="http://purl.org/dc/dcmitype/StillImage"/>
    <dc:date>2023-06-01T10:02:25.014903</dc:date>
    <dc:format>image/svg+xml</dc:format>
    <dc:creator>
     <cc:Agent>
      <dc:title>Matplotlib v3.7.1, https://matplotlib.org/</dc:title>
     </cc:Agent>
    </dc:creator>
   </cc:Work>
  </rdf:RDF>
 </metadata>
 <defs>
  <style type="text/css">*{stroke-linejoin: round; stroke-linecap: butt}</style>
 </defs>
 <g id="figure_1">
  <g id="patch_1">
   <path d="M 0 345.6 
L 460.8 345.6 
L 460.8 0 
L 0 0 
z
" style="fill: #ffffff"/>
  </g>
  <g id="axes_1">
   <g id="patch_2">
    <path d="M 57.6 307.584 
L 414.72 307.584 
L 414.72 41.472 
L 57.6 41.472 
z
" style="fill: #ffffff"/>
   </g>
   <g id="matplotlib.axis_1">
    <g id="xtick_1">
     <g id="line2d_1">
      <defs>
       <path id="m409d6882a7" d="M 0 0 
L 0 3.5 
" style="stroke: #000000; stroke-width: 0.8"/>
      </defs>
      <g>
       <use xlink:href="#m409d6882a7" x="398.487273" y="307.584" style="stroke: #000000; stroke-width: 0.8"/>
      </g>
     </g>
     <g id="text_1">
      <!-- 0 -->
      <g transform="translate(395.306023 322.182437) scale(0.1 -0.1)">
       <defs>
        <path id="DejaVuSans-30" d="M 2034 4250 
Q 1547 4250 1301 3770 
Q 1056 3291 1056 2328 
Q 1056 1369 1301 889 
Q 1547 409 2034 409 
Q 2525 409 2770 889 
Q 3016 1369 3016 2328 
Q 3016 3291 2770 3770 
Q 2525 4250 2034 4250 
z
M 2034 4750 
Q 2819 4750 3233 4129 
Q 3647 3509 3647 2328 
Q 3647 1150 3233 529 
Q 2819 -91 2034 -91 
Q 1250 -91 836 529 
Q 422 1150 422 2328 
Q 422 3509 836 4129 
Q 1250 4750 2034 4750 
z
" transform="scale(0.015625)"/>
       </defs>
       <use xlink:href="#DejaVuSans-30"/>
      </g>
     </g>
    </g>
    <g id="xtick_2">
     <g id="line2d_2">
      <g>
       <use xlink:href="#m409d6882a7" x="328.246134" y="307.584" style="stroke: #000000; stroke-width: 0.8"/>
      </g>
     </g>
     <g id="text_2">
      <!-- 500 -->
      <g transform="translate(318.702384 322.182437) scale(0.1 -0.1)">
       <defs>
        <path id="DejaVuSans-35" d="M 691 4666 
L 3169 4666 
L 3169 4134 
L 1269 4134 
L 1269 2991 
Q 1406 3038 1543 3061 
Q 1681 3084 1819 3084 
Q 2600 3084 3056 2656 
Q 3513 2228 3513 1497 
Q 3513 744 3044 326 
Q 2575 -91 1722 -91 
Q 1428 -91 1123 -41 
Q 819 9 494 109 
L 494 744 
Q 775 591 1075 516 
Q 1375 441 1709 441 
Q 2250 441 2565 725 
Q 2881 1009 2881 1497 
Q 2881 1984 2565 2268 
Q 2250 2553 1709 2553 
Q 1456 2553 1204 2497 
Q 953 2441 691 2322 
L 691 4666 
z
" transform="scale(0.015625)"/>
       </defs>
       <use xlink:href="#DejaVuSans-35"/>
       <use xlink:href="#DejaVuSans-30" x="63.623047"/>
       <use xlink:href="#DejaVuSans-30" x="127.246094"/>
      </g>
     </g>
    </g>
    <g id="xtick_3">
     <g id="line2d_3">
      <g>
       <use xlink:href="#m409d6882a7" x="258.004994" y="307.584" style="stroke: #000000; stroke-width: 0.8"/>
      </g>
     </g>
     <g id="text_3">
      <!-- 1000 -->
      <g transform="translate(245.279994 322.182437) scale(0.1 -0.1)">
       <defs>
        <path id="DejaVuSans-31" d="M 794 531 
L 1825 531 
L 1825 4091 
L 703 3866 
L 703 4441 
L 1819 4666 
L 2450 4666 
L 2450 531 
L 3481 531 
L 3481 0 
L 794 0 
L 794 531 
z
" transform="scale(0.015625)"/>
       </defs>
       <use xlink:href="#DejaVuSans-31"/>
       <use xlink:href="#DejaVuSans-30" x="63.623047"/>
       <use xlink:href="#DejaVuSans-30" x="127.246094"/>
       <use xlink:href="#DejaVuSans-30" x="190.869141"/>
      </g>
     </g>
    </g>
    <g id="xtick_4">
     <g id="line2d_4">
      <g>
       <use xlink:href="#m409d6882a7" x="187.763855" y="307.584" style="stroke: #000000; stroke-width: 0.8"/>
      </g>
     </g>
     <g id="text_4">
      <!-- 1500 -->
      <g transform="translate(175.038855 322.182437) scale(0.1 -0.1)">
       <use xlink:href="#DejaVuSans-31"/>
       <use xlink:href="#DejaVuSans-35" x="63.623047"/>
       <use xlink:href="#DejaVuSans-30" x="127.246094"/>
       <use xlink:href="#DejaVuSans-30" x="190.869141"/>
      </g>
     </g>
    </g>
    <g id="xtick_5">
     <g id="line2d_5">
      <g>
       <use xlink:href="#m409d6882a7" x="117.522716" y="307.584" style="stroke: #000000; stroke-width: 0.8"/>
      </g>
     </g>
     <g id="text_5">
      <!-- 2000 -->
      <g transform="translate(104.797716 322.182437) scale(0.1 -0.1)">
       <defs>
        <path id="DejaVuSans-32" d="M 1228 531 
L 3431 531 
L 3431 0 
L 469 0 
L 469 531 
Q 828 903 1448 1529 
Q 2069 2156 2228 2338 
Q 2531 2678 2651 2914 
Q 2772 3150 2772 3378 
Q 2772 3750 2511 3984 
Q 2250 4219 1831 4219 
Q 1534 4219 1204 4116 
Q 875 4013 500 3803 
L 500 4441 
Q 881 4594 1212 4672 
Q 1544 4750 1819 4750 
Q 2544 4750 2975 4387 
Q 3406 4025 3406 3419 
Q 3406 3131 3298 2873 
Q 3191 2616 2906 2266 
Q 2828 2175 2409 1742 
Q 1991 1309 1228 531 
z
" transform="scale(0.015625)"/>
       </defs>
       <use xlink:href="#DejaVuSans-32"/>
       <use xlink:href="#DejaVuSans-30" x="63.623047"/>
       <use xlink:href="#DejaVuSans-30" x="127.246094"/>
       <use xlink:href="#DejaVuSans-30" x="190.869141"/>
      </g>
     </g>
    </g>
    <g id="text_6">
     <!-- Index -->
     <g transform="translate(222.393594 335.860562) scale(0.1 -0.1)">
      <defs>
       <path id="DejaVuSans-49" d="M 628 4666 
L 1259 4666 
L 1259 0 
L 628 0 
L 628 4666 
z
" transform="scale(0.015625)"/>
       <path id="DejaVuSans-6e" d="M 3513 2113 
L 3513 0 
L 2938 0 
L 2938 2094 
Q 2938 2591 2744 2837 
Q 2550 3084 2163 3084 
Q 1697 3084 1428 2787 
Q 1159 2491 1159 1978 
L 1159 0 
L 581 0 
L 581 3500 
L 1159 3500 
L 1159 2956 
Q 1366 3272 1645 3428 
Q 1925 3584 2291 3584 
Q 2894 3584 3203 3211 
Q 3513 2838 3513 2113 
z
" transform="scale(0.015625)"/>
       <path id="DejaVuSans-64" d="M 2906 2969 
L 2906 4863 
L 3481 4863 
L 3481 0 
L 2906 0 
L 2906 525 
Q 2725 213 2448 61 
Q 2172 -91 1784 -91 
Q 1150 -91 751 415 
Q 353 922 353 1747 
Q 353 2572 751 3078 
Q 1150 3584 1784 3584 
Q 2172 3584 2448 3432 
Q 2725 3281 2906 2969 
z
M 947 1747 
Q 947 1113 1208 752 
Q 1469 391 1925 391 
Q 2381 391 2643 752 
Q 2906 1113 2906 1747 
Q 2906 2381 2643 2742 
Q 2381 3103 1925 3103 
Q 1469 3103 1208 2742 
Q 947 2381 947 1747 
z
" transform="scale(0.015625)"/>
       <path id="DejaVuSans-65" d="M 3597 1894 
L 3597 1613 
L 953 1613 
Q 991 1019 1311 708 
Q 1631 397 2203 397 
Q 2534 397 2845 478 
Q 3156 559 3463 722 
L 3463 178 
Q 3153 47 2828 -22 
Q 2503 -91 2169 -91 
Q 1331 -91 842 396 
Q 353 884 353 1716 
Q 353 2575 817 3079 
Q 1281 3584 2069 3584 
Q 2775 3584 3186 3129 
Q 3597 2675 3597 1894 
z
M 3022 2063 
Q 3016 2534 2758 2815 
Q 2500 3097 2075 3097 
Q 1594 3097 1305 2825 
Q 1016 2553 972 2059 
L 3022 2063 
z
" transform="scale(0.015625)"/>
       <path id="DejaVuSans-78" d="M 3513 3500 
L 2247 1797 
L 3578 0 
L 2900 0 
L 1881 1375 
L 863 0 
L 184 0 
L 1544 1831 
L 300 3500 
L 978 3500 
L 1906 2253 
L 2834 3500 
L 3513 3500 
z
" transform="scale(0.015625)"/>
      </defs>
      <use xlink:href="#DejaVuSans-49"/>
      <use xlink:href="#DejaVuSans-6e" x="29.492188"/>
      <use xlink:href="#DejaVuSans-64" x="92.871094"/>
      <use xlink:href="#DejaVuSans-65" x="156.347656"/>
      <use xlink:href="#DejaVuSans-78" x="216.121094"/>
     </g>
    </g>
   </g>
   <g id="matplotlib.axis_2">
    <g id="ytick_1">
     <g id="line2d_6">
      <defs>
       <path id="m2de4cb0e8a" d="M 0 0 
L -3.5 0 
" style="stroke: #000000; stroke-width: 0.8"/>
      </defs>
      <g>
       <use xlink:href="#m2de4cb0e8a" x="57.6" y="295.488" style="stroke: #000000; stroke-width: 0.8"/>
      </g>
     </g>
     <g id="text_7">
      <!-- 0.0 -->
      <g transform="translate(34.696875 299.287219) scale(0.1 -0.1)">
       <defs>
        <path id="DejaVuSans-2e" d="M 684 794 
L 1344 794 
L 1344 0 
L 684 0 
L 684 794 
z
" transform="scale(0.015625)"/>
       </defs>
       <use xlink:href="#DejaVuSans-30"/>
       <use xlink:href="#DejaVuSans-2e" x="63.623047"/>
       <use xlink:href="#DejaVuSans-30" x="95.410156"/>
      </g>
     </g>
    </g>
    <g id="ytick_2">
     <g id="line2d_7">
      <g>
       <use xlink:href="#m2de4cb0e8a" x="57.6" y="240.575552" style="stroke: #000000; stroke-width: 0.8"/>
      </g>
     </g>
     <g id="text_8">
      <!-- 0.2 -->
      <g transform="translate(34.696875 244.374771) scale(0.1 -0.1)">
       <use xlink:href="#DejaVuSans-30"/>
       <use xlink:href="#DejaVuSans-2e" x="63.623047"/>
       <use xlink:href="#DejaVuSans-32" x="95.410156"/>
      </g>
     </g>
    </g>
    <g id="ytick_3">
     <g id="line2d_8">
      <g>
       <use xlink:href="#m2de4cb0e8a" x="57.6" y="185.663104" style="stroke: #000000; stroke-width: 0.8"/>
      </g>
     </g>
     <g id="text_9">
      <!-- 0.4 -->
      <g transform="translate(34.696875 189.462323) scale(0.1 -0.1)">
       <defs>
        <path id="DejaVuSans-34" d="M 2419 4116 
L 825 1625 
L 2419 1625 
L 2419 4116 
z
M 2253 4666 
L 3047 4666 
L 3047 1625 
L 3713 1625 
L 3713 1100 
L 3047 1100 
L 3047 0 
L 2419 0 
L 2419 1100 
L 313 1100 
L 313 1709 
L 2253 4666 
z
" transform="scale(0.015625)"/>
       </defs>
       <use xlink:href="#DejaVuSans-30"/>
       <use xlink:href="#DejaVuSans-2e" x="63.623047"/>
       <use xlink:href="#DejaVuSans-34" x="95.410156"/>
      </g>
     </g>
    </g>
    <g id="ytick_4">
     <g id="line2d_9">
      <g>
       <use xlink:href="#m2de4cb0e8a" x="57.6" y="130.750656" style="stroke: #000000; stroke-width: 0.8"/>
      </g>
     </g>
     <g id="text_10">
      <!-- 0.6 -->
      <g transform="translate(34.696875 134.549875) scale(0.1 -0.1)">
       <defs>
        <path id="DejaVuSans-36" d="M 2113 2584 
Q 1688 2584 1439 2293 
Q 1191 2003 1191 1497 
Q 1191 994 1439 701 
Q 1688 409 2113 409 
Q 2538 409 2786 701 
Q 3034 994 3034 1497 
Q 3034 2003 2786 2293 
Q 2538 2584 2113 2584 
z
M 3366 4563 
L 3366 3988 
Q 3128 4100 2886 4159 
Q 2644 4219 2406 4219 
Q 1781 4219 1451 3797 
Q 1122 3375 1075 2522 
Q 1259 2794 1537 2939 
Q 1816 3084 2150 3084 
Q 2853 3084 3261 2657 
Q 3669 2231 3669 1497 
Q 3669 778 3244 343 
Q 2819 -91 2113 -91 
Q 1303 -91 875 529 
Q 447 1150 447 2328 
Q 447 3434 972 4092 
Q 1497 4750 2381 4750 
Q 2619 4750 2861 4703 
Q 3103 4656 3366 4563 
z
" transform="scale(0.015625)"/>
       </defs>
       <use xlink:href="#DejaVuSans-30"/>
       <use xlink:href="#DejaVuSans-2e" x="63.623047"/>
       <use xlink:href="#DejaVuSans-36" x="95.410156"/>
      </g>
     </g>
    </g>
    <g id="ytick_5">
     <g id="line2d_10">
      <g>
       <use xlink:href="#m2de4cb0e8a" x="57.6" y="75.838209" style="stroke: #000000; stroke-width: 0.8"/>
      </g>
     </g>
     <g id="text_11">
      <!-- 0.8 -->
      <g transform="translate(34.696875 79.637427) scale(0.1 -0.1)">
       <defs>
        <path id="DejaVuSans-38" d="M 2034 2216 
Q 1584 2216 1326 1975 
Q 1069 1734 1069 1313 
Q 1069 891 1326 650 
Q 1584 409 2034 409 
Q 2484 409 2743 651 
Q 3003 894 3003 1313 
Q 3003 1734 2745 1975 
Q 2488 2216 2034 2216 
z
M 1403 2484 
Q 997 2584 770 2862 
Q 544 3141 544 3541 
Q 544 4100 942 4425 
Q 1341 4750 2034 4750 
Q 2731 4750 3128 4425 
Q 3525 4100 3525 3541 
Q 3525 3141 3298 2862 
Q 3072 2584 2669 2484 
Q 3125 2378 3379 2068 
Q 3634 1759 3634 1313 
Q 3634 634 3220 271 
Q 2806 -91 2034 -91 
Q 1263 -91 848 271 
Q 434 634 434 1313 
Q 434 1759 690 2068 
Q 947 2378 1403 2484 
z
M 1172 3481 
Q 1172 3119 1398 2916 
Q 1625 2713 2034 2713 
Q 2441 2713 2670 2916 
Q 2900 3119 2900 3481 
Q 2900 3844 2670 4047 
Q 2441 4250 2034 4250 
Q 1625 4250 1398 4047 
Q 1172 3844 1172 3481 
z
" transform="scale(0.015625)"/>
       </defs>
       <use xlink:href="#DejaVuSans-30"/>
       <use xlink:href="#DejaVuSans-2e" x="63.623047"/>
       <use xlink:href="#DejaVuSans-38" x="95.410156"/>
      </g>
     </g>
    </g>
    <g id="text_12">
     <!-- Value -->
     <g transform="translate(28.617188 188.25925) rotate(-90) scale(0.1 -0.1)">
      <defs>
       <path id="DejaVuSans-56" d="M 1831 0 
L 50 4666 
L 709 4666 
L 2188 738 
L 3669 4666 
L 4325 4666 
L 2547 0 
L 1831 0 
z
" transform="scale(0.015625)"/>
       <path id="DejaVuSans-61" d="M 2194 1759 
Q 1497 1759 1228 1600 
Q 959 1441 959 1056 
Q 959 750 1161 570 
Q 1363 391 1709 391 
Q 2188 391 2477 730 
Q 2766 1069 2766 1631 
L 2766 1759 
L 2194 1759 
z
M 3341 1997 
L 3341 0 
L 2766 0 
L 2766 531 
Q 2569 213 2275 61 
Q 1981 -91 1556 -91 
Q 1019 -91 701 211 
Q 384 513 384 1019 
Q 384 1609 779 1909 
Q 1175 2209 1959 2209 
L 2766 2209 
L 2766 2266 
Q 2766 2663 2505 2880 
Q 2244 3097 1772 3097 
Q 1472 3097 1187 3025 
Q 903 2953 641 2809 
L 641 3341 
Q 956 3463 1253 3523 
Q 1550 3584 1831 3584 
Q 2591 3584 2966 3190 
Q 3341 2797 3341 1997 
z
" transform="scale(0.015625)"/>
       <path id="DejaVuSans-6c" d="M 603 4863 
L 1178 4863 
L 1178 0 
L 603 0 
L 603 4863 
z
" transform="scale(0.015625)"/>
       <path id="DejaVuSans-75" d="M 544 1381 
L 544 3500 
L 1119 3500 
L 1119 1403 
Q 1119 906 1312 657 
Q 1506 409 1894 409 
Q 2359 409 2629 706 
Q 2900 1003 2900 1516 
L 2900 3500 
L 3475 3500 
L 3475 0 
L 2900 0 
L 2900 538 
Q 2691 219 2414 64 
Q 2138 -91 1772 -91 
Q 1169 -91 856 284 
Q 544 659 544 1381 
z
M 1991 3584 
L 1991 3584 
z
" transform="scale(0.015625)"/>
      </defs>
      <use xlink:href="#DejaVuSans-56"/>
      <use xlink:href="#DejaVuSans-61" x="60.658203"/>
      <use xlink:href="#DejaVuSans-6c" x="121.9375"/>
      <use xlink:href="#DejaVuSans-75" x="149.720703"/>
      <use xlink:href="#DejaVuSans-65" x="213.099609"/>
     </g>
    </g>
   </g>
   <g id="line2d_11">
    <path d="M 398.487273 116.862384 
L 396.661003 131.088822 
L 395.537145 138.517021 
L 393.99184 136.041537 
L 392.587017 133.768589 
L 390.90123 120.042206 
L 388.793996 104.124587 
L 388.232066 99.657961 
L 386.405797 81.717073 
L 386.124832 78.978292 
L 385.422421 67.568855 
L 382.753258 64.480873 
L 382.612775 64.67433 
L 381.06747 79.24124 
L 378.819754 87.501933 
L 378.257825 89.521361 
L 378.117342 89.550694 
L 375.026732 83.031116 
L 374.88625 83.110035 
L 371.936122 88.488076 
L 371.655158 86.482965 
L 369.547923 68.800486 
L 368.70503 61.741742 
L 368.002618 69.835168 
L 366.035866 91.617962 
L 365.473937 97.566946 
L 363.366703 97.660532 
L 362.383327 97.753071 
L 362.102363 97.828498 
L 361.399951 93.609454 
L 359.714164 84.00783 
L 357.747412 74.34754 
L 357.045001 71.559871 
L 354.235355 69.723075 
L 351.847156 84.575282 
L 351.144745 88.663026 
L 350.020887 90.170874 
L 349.739922 90.597947 
L 347.913652 80.66109 
L 346.789794 74.966673 
L 344.120631 82.611376 
L 340.889539 90.885688 
L 339.484716 93.87799 
L 339.203751 94.3976 
L 338.922787 95.83945 
L 337.939411 101.825101 
L 336.394106 104.143794 
L 334.989283 106.25576 
L 334.848801 106.49601 
L 334.708318 105.9324 
L 332.741566 90.407982 
L 331.196261 79.706375 
L 329.510474 69.854374 
L 327.965169 61.10026 
L 327.122275 53.568 
L 326.841311 56.874931 
L 324.734077 84.117828 
L 323.469736 98.558328 
L 321.783949 111.301012 
L 319.255268 103.27568 
L 318.412374 100.828481 
L 316.024175 99.403044 
L 315.321764 99.17781 
L 315.181282 98.876799 
L 313.495494 90.625883 
L 311.669225 82.645249 
L 311.38826 82.119702 
L 310.12392 80.367412 
L 309.842955 81.736978 
L 307.735721 94.057479 
L 306.752345 99.113906 
L 304.223664 107.213617 
L 303.661735 109.007113 
L 301.835465 73.55695 
L 299.306784 100.429694 
L 298.744855 105.166952 
L 297.340032 104.230395 
L 296.778103 106.047985 
L 294.389904 114.071222 
L 294.10894 113.689196 
L 291.158812 109.099302 
L 289.19206 120.138934 
L 287.36579 135.507609 
L 285.960968 146.650256 
L 285.820485 146.774571 
L 283.291804 132.066235 
L 281.465535 122.533404 
L 281.044088 120.271631 
L 280.622641 115.726783 
L 278.796372 103.155555 
L 276.970102 92.08624 
L 275.705761 86.156812 
L 275.565279 86.073353 
L 272.755634 99.514788 
L 270.788882 108.930638 
L 268.119718 122.318296 
L 264.888626 100.420266 
L 264.748144 100.695785 
L 262.500427 126.560387 
L 261.938498 132.357469 
L 260.112228 141.099361 
L 259.971746 141.184915 
L 258.285959 135.714336 
L 256.319207 126.025062 
L 255.195349 120.765051 
L 253.650044 123.724528 
L 253.088115 124.744194 
L 250.840398 139.881698 
L 249.576058 147.928331 
L 247.468823 139.208439 
L 245.923518 133.525196 
L 243.956766 135.71678 
L 239.742298 142.381277 
L 236.932653 146.48264 
L 235.387347 152.918759 
L 235.246865 152.666985 
L 233.70156 147.499163 
L 232.43722 143.963505 
L 232.015773 142.946982 
L 230.61095 132.93365 
L 230.049021 128.843811 
L 227.941787 152.560479 
L 226.396482 167.718935 
L 225.975035 172.09896 
L 224.289247 221.982288 
L 221.620084 205.346713 
L 220.355744 198.211843 
L 218.529474 174.705743 
L 215.017417 176.837963 
L 214.455488 177.240592 
L 212.629218 161.143135 
L 209.538608 147.373451 
L 209.398126 146.628605 
L 209.257644 146.655145 
L 207.15041 192.469586 
L 205.043175 174.065658 
L 201.390636 143.544115 
L 200.969189 145.680525 
L 196.754721 168.250069 
L 195.349898 175.226751 
L 194.787969 176.001977 
L 193.102182 177.972167 
L 189.449642 181.801503 
L 187.623373 165.966994 
L 186.359032 164.183277 
L 185.375656 163.138468 
L 184.813727 162.785426 
L 184.532763 162.684158 
L 184.39228 162.090866 
L 182.425529 137.251867 
L 180.599259 143.116344 
L 180.177812 144.367531 
L 177.227684 172.953105 
L 176.244308 181.561602 
L 174.418039 156.302514 
L 174.277556 155.436496 
L 173.29418 155.574081 
L 172.732251 155.458147 
L 172.170322 155.11593 
L 171.748875 162.037089 
L 169.922606 192.679805 
L 166.129584 201.657407 
L 165.84862 199.438236 
L 164.443797 187.212718 
L 162.477045 177.550333 
L 160.229329 167.135769 
L 157.700647 185.832676 
L 156.436307 194.220828 
L 154.610037 201.228938 
L 152.362321 200.125812 
L 151.65991 199.531124 
L 151.09798 198.897324 
L 149.974122 215.384489 
L 149.412193 222.689419 
L 147.023994 210.987004 
L 145.478689 210.388473 
L 144.635796 210.198159 
L 144.354831 209.275222 
L 142.247597 200.706184 
L 140.280845 203.410395 
L 137.892646 206.403394 
L 136.206859 202.614566 
L 135.925894 201.97518 
L 133.678178 193.869881 
L 131.570944 190.937642 
L 130.306603 189.554807 
L 129.46371 188.971642 
L 129.182745 188.847676 
L 128.058887 179.213925 
L 126.794546 166.393019 
L 125.108759 167.626047 
L 123.422972 169.079071 
L 123.142007 169.582619 
L 121.45622 173.130848 
L 120.613326 173.39205 
L 119.910915 173.782107 
L 119.068021 166.067564 
L 116.398858 163.78868 
L 116.117893 165.831853 
L 113.729694 188.706948 
L 111.62246 211.801689 
L 110.639084 221.437185 
L 107.829439 292.886105 
L 107.688956 295.488 
L 104.317382 294.159989 
L 104.036417 293.524095 
L 101.086289 285.197403 
L 98.417126 278.100945 
L 97.43375 278.150881 
L 96.590856 278.386242 
L 96.309892 278.5137 
L 96.16941 277.924948 
L 92.095423 246.603036 
L 89.707225 243.769971 
L 89.566742 243.781145 
L 88.021437 248.534466 
L 86.476132 244.322406 
L 85.492756 241.754035 
L 83.666487 229.502326 
L 83.24504 226.933606 
L 83.104558 226.762148 
L 81.840217 233.489151 
L 81.278288 236.287646 
L 81.137806 188.711138 
L 79.732983 187.51338 
L 78.749607 189.050561 
L 76.501891 194.270414 
L 74.394656 200.83923 
L 73.832727 203.545535 
L 73.832727 203.545535 
" clip-path="url(#p81b761f481)" style="fill: none; stroke: #1f77b4; stroke-width: 1.5; stroke-linecap: square"/>
   </g>
   <g id="line2d_12">
    <path d="M 398.487273 102.55258 
L 397.784861 108.819376 
L 397.644379 108.472364 
L 397.503897 108.600797 
L 397.363414 110.995379 
L 397.222932 110.605276 
L 397.08245 109.862127 
L 396.941968 110.304662 
L 396.801485 110.13021 
L 396.661003 109.164511 
L 396.520521 109.161085 
L 396.099074 112.656621 
L 395.818109 115.500158 
L 395.537145 117.412199 
L 394.834733 112.768951 
L 394.694251 113.488414 
L 394.553769 113.384337 
L 394.413287 112.876894 
L 394.272804 112.834914 
L 394.132322 112.45493 
L 393.99184 112.693899 
L 393.851358 112.38734 
L 393.710875 112.601596 
L 393.570393 113.868953 
L 393.008464 110.494449 
L 392.587017 113.742318 
L 392.306052 112.834453 
L 392.16557 112.713445 
L 391.744123 109.840921 
L 391.463159 106.586158 
L 391.322677 105.760751 
L 391.182194 105.89608 
L 391.041712 105.109119 
L 390.90123 104.974963 
L 390.760747 104.510447 
L 390.620265 102.92114 
L 390.479783 103.498055 
L 390.339301 103.079015 
L 390.198818 102.126389 
L 390.058336 102.386833 
L 389.777371 99.623797 
L 389.496407 96.177663 
L 389.215442 93.46068 
L 389.07496 93.246 
L 388.934478 93.367538 
L 388.793996 93.30545 
L 388.653513 94.13947 
L 388.513031 93.924992 
L 388.372549 95.518318 
L 388.232066 95.626428 
L 387.81062 92.123856 
L 387.670137 91.874955 
L 387.529655 90.162432 
L 387.389173 90.059233 
L 387.24869 89.782025 
L 386.546279 84.056344 
L 386.405797 85.206324 
L 386.265315 84.883041 
L 385.843868 81.637172 
L 385.281939 73.403817 
L 384.860492 75.997325 
L 384.720009 76.171252 
L 384.579527 77.358909 
L 384.15808 74.024586 
L 383.877116 72.76936 
L 383.736633 72.954799 
L 383.455669 75.288469 
L 383.174704 77.096604 
L 382.89374 74.464931 
L 382.753258 74.968465 
L 382.612775 74.776072 
L 382.472293 74.926899 
L 382.331811 76.852697 
L 382.191328 77.076318 
L 382.050846 76.655997 
L 381.769882 78.647154 
L 381.629399 78.493924 
L 381.348435 79.91272 
L 380.786506 85.022387 
L 380.224577 80.789484 
L 379.943612 82.366332 
L 379.662647 83.705632 
L 379.522165 85.579624 
L 379.241201 83.994001 
L 378.960236 82.953978 
L 378.819754 81.784047 
L 378.679271 81.975993 
L 378.257825 92.636869 
L 377.555413 86.000558 
L 377.414931 86.208563 
L 377.274449 85.594144 
L 376.993484 86.261123 
L 376.853002 86.090153 
L 376.71252 86.107219 
L 376.572037 84.292275 
L 375.869626 87.567055 
L 375.729144 86.587442 
L 375.307697 78.771037 
L 375.167215 79.544276 
L 375.026732 80.730817 
L 374.88625 80.937247 
L 374.605285 83.559942 
L 374.464803 83.285349 
L 374.183839 84.723763 
L 373.902874 84.495568 
L 373.762392 83.934377 
L 373.481427 85.507438 
L 373.340945 84.975462 
L 373.05998 85.868681 
L 372.919498 85.598564 
L 372.779016 87.24941 
L 372.638533 87.200199 
L 372.357569 84.855098 
L 372.217087 84.556159 
L 372.076604 84.929038 
L 371.79564 86.220712 
L 371.374193 84.237689 
L 371.233711 84.338513 
L 370.812264 80.726771 
L 370.531299 79.378089 
L 370.390817 80.181117 
L 369.688406 75.21645 
L 369.407441 75.573662 
L 368.985994 73.532857 
L 368.70503 70.829035 
L 368.424065 72.149833 
L 368.283583 72.065481 
L 367.581171 80.216283 
L 367.440689 79.714475 
L 367.300207 79.881061 
L 366.87876 82.977759 
L 366.738278 83.480383 
L 366.597796 85.227222 
L 366.457313 85.196421 
L 366.176349 87.415544 
L 365.895384 88.074562 
L 365.754902 88.459719 
L 365.473937 90.439179 
L 365.333455 90.022725 
L 365.192973 90.415283 
L 365.05249 92.482304 
L 364.912008 91.610951 
L 364.631044 89.086173 
L 364.209597 89.113306 
L 364.069115 90.696153 
L 363.928632 90.884617 
L 363.647668 90.254206 
L 363.507185 91.043534 
L 363.366703 91.195949 
L 363.085739 90.207609 
L 362.945256 91.763801 
L 362.664292 92.163438 
L 362.523809 91.858469 
L 362.383327 92.104986 
L 362.242845 91.64135 
L 361.96188 89.249231 
L 361.821398 88.178749 
L 361.540433 88.336228 
L 360.69754 84.792879 
L 360.416575 83.145863 
L 360.276093 83.05204 
L 360.135611 82.261498 
L 359.714164 76.992532 
L 359.573682 76.713979 
L 359.433199 75.931882 
L 359.152235 79.921277 
L 358.87127 90.560874 
L 358.590306 84.176429 
L 358.309341 82.343486 
L 358.028377 78.423249 
L 357.747412 77.017816 
L 357.60693 75.386423 
L 357.325965 74.835322 
L 357.045001 77.134624 
L 356.904518 79.434985 
L 356.623554 80.013908 
L 356.483071 79.145392 
L 356.202107 75.540805 
L 355.921142 66.399001 
L 355.640178 71.459965 
L 355.499696 72.302758 
L 355.359213 72.303725 
L 355.078249 74.096676 
L 354.937766 73.951506 
L 354.656802 76.752581 
L 354.51632 76.769424 
L 354.375837 77.566843 
L 354.235355 76.503601 
L 354.094873 76.364147 
L 353.813908 77.794437 
L 353.673426 77.965343 
L 353.532944 78.696402 
L 353.392461 78.560745 
L 353.251979 78.748429 
L 353.111497 78.057755 
L 352.971015 78.60786 
L 352.69005 80.40135 
L 352.549568 80.223599 
L 352.409085 80.929993 
L 352.128121 83.246225 
L 351.987639 84.208359 
L 351.847156 83.538372 
L 351.566192 83.375907 
L 351.425709 83.042045 
L 351.144745 87.073682 
L 350.86378 86.310697 
L 350.723298 86.954365 
L 350.582816 86.875607 
L 350.301851 86.507648 
L 350.161369 86.389857 
L 349.880404 84.944466 
L 349.739922 85.518406 
L 349.458958 87.565517 
L 349.177993 84.283971 
L 349.037511 84.293963 
L 348.756546 83.269606 
L 348.475582 84.406786 
L 348.054135 80.950284 
L 347.913652 80.810949 
L 347.77317 79.795558 
L 347.632688 80.740508 
L 347.492206 80.645484 
L 347.351723 80.229192 
L 347.211241 80.543634 
L 347.070759 80.41286 
L 346.930277 79.993722 
L 346.789794 78.280302 
L 346.649312 78.048146 
L 346.50883 76.693171 
L 345.946901 81.487087 
L 345.806418 81.66743 
L 345.384971 79.013808 
L 345.104007 80.208416 
L 344.963525 82.66734 
L 344.823042 82.519685 
L 344.68256 83.280684 
L 344.542078 82.40529 
L 344.401596 83.117726 
L 344.261113 82.149407 
L 344.120631 82.097348 
L 343.980149 81.698634 
L 343.558702 85.362697 
L 343.41822 85.687257 
L 342.996773 83.785773 
L 342.715808 85.087142 
L 342.575326 85.539624 
L 342.434844 85.328565 
L 342.294361 85.473682 
L 342.153879 85.400342 
L 342.013397 83.022441 
L 341.872915 84.391917 
L 341.732432 84.493772 
L 341.59195 86.927629 
L 341.451468 86.733133 
L 341.170503 88.171169 
L 341.030021 87.971425 
L 340.889539 87.326135 
L 340.749056 87.481836 
L 340.608574 87.121 
L 340.468092 87.152746 
L 340.327609 87.367688 
L 340.046645 88.469801 
L 339.906163 87.751018 
L 339.76568 88.199719 
L 339.344234 91.008426 
L 339.203751 90.585888 
L 338.922787 91.298742 
L 338.782304 91.636911 
L 338.50134 90.926602 
L 338.220375 91.574437 
L 337.939411 93.790833 
L 337.658446 93.388141 
L 337.517964 93.650998 
L 337.377482 93.65272 
L 337.236999 94.581374 
L 337.096517 94.327276 
L 336.956035 94.923503 
L 336.815552 94.741223 
L 336.394106 93.624918 
L 336.253623 93.733132 
L 335.551212 96.106254 
L 335.270247 97.262956 
L 335.129765 97.308364 
L 334.848801 96.901481 
L 334.708318 96.761315 
L 334.567836 96.118192 
L 334.427354 96.276757 
L 334.146389 92.674076 
L 334.005907 92.175243 
L 333.865425 92.311331 
L 333.724942 91.793058 
L 333.58446 92.111947 
L 333.303496 91.049824 
L 333.163013 91.045893 
L 332.741566 86.618733 
L 332.601084 87.53524 
L 332.460602 87.215479 
L 332.32012 86.156081 
L 332.179637 86.306034 
L 332.039155 85.074643 
L 331.898673 85.105018 
L 331.477226 82.766886 
L 331.336744 82.721781 
L 331.196261 81.65857 
L 331.055779 81.450628 
L 330.915297 80.829856 
L 330.774815 81.538315 
L 330.634332 81.264486 
L 330.49385 81.720734 
L 329.791439 78.75728 
L 329.510474 76.48763 
L 329.369992 76.022873 
L 329.229509 74.900465 
L 329.089027 74.989447 
L 328.948545 74.8358 
L 328.66758 75.868679 
L 328.527098 74.628868 
L 328.246134 75.614564 
L 328.105651 75.479702 
L 327.824687 73.011921 
L 327.122275 66.786897 
L 326.981793 67.14295 
L 326.841311 69.296561 
L 326.700828 68.973165 
L 325.998417 82.234299 
L 325.717452 78.724496 
L 325.015041 83.7461 
L 324.874559 83.871868 
L 323.610218 94.680579 
L 323.469736 94.575209 
L 323.188771 93.944114 
L 323.048289 90.549664 
L 322.48636 98.257702 
L 322.345878 98.071061 
L 321.924431 99.952037 
L 321.783949 99.982862 
L 321.643466 98.064566 
L 321.502984 99.121373 
L 321.362502 98.122773 
L 321.22202 98.264232 
L 320.941055 100.303374 
L 320.800573 101.596561 
L 320.66009 100.513498 
L 320.519608 100.338887 
L 320.238644 96.28595 
L 319.676715 98.042083 
L 319.536232 96.824783 
L 319.39575 97.10658 
L 319.255268 96.099722 
L 319.114785 96.171413 
L 318.974303 95.84962 
L 318.833821 96.033823 
L 318.693339 97.062331 
L 318.552856 96.545113 
L 318.412374 96.78221 
L 318.271892 96.063823 
L 317.990927 93.415149 
L 317.850445 92.145494 
L 317.56948 92.618382 
L 317.148034 97.621818 
L 316.586104 91.141209 
L 316.445622 89.271518 
L 316.164658 92.710987 
L 315.883693 102.958606 
L 315.462246 96.148776 
L 315.321764 95.232707 
L 315.181282 95.064465 
L 315.040799 94.350737 
L 314.900317 92.712791 
L 314.759835 92.480581 
L 314.619353 92.857176 
L 314.47887 92.24838 
L 314.057423 89.018414 
L 313.916941 88.767191 
L 313.635977 93.40051 
L 313.355012 97.64873 
L 313.074047 88.077217 
L 312.933565 81.771576 
L 312.793083 82.866875 
L 312.512118 85.878806 
L 312.231154 87.846342 
L 311.809707 86.421944 
L 311.38826 83.127849 
L 311.107296 88.110028 
L 310.826331 95.203826 
L 310.404884 83.016537 
L 310.264402 83.343832 
L 310.12392 83.311232 
L 309.702473 88.248433 
L 309.56199 88.367704 
L 309.421508 88.048809 
L 309.281026 88.350566 
L 309.140544 89.021845 
L 309.000061 91.677063 
L 308.859579 91.652672 
L 308.719097 92.573052 
L 308.438132 96.38401 
L 308.29765 95.639736 
L 307.876203 85.887522 
L 307.595239 89.637791 
L 307.314274 95.141282 
L 307.173792 96.989208 
L 307.033309 97.132817 
L 306.892827 99.505865 
L 306.611863 98.865465 
L 306.330898 99.850319 
L 306.190416 99.883211 
L 306.049934 98.465056 
L 305.909451 99.446986 
L 305.628487 98.270291 
L 305.066558 101.825723 
L 304.926075 101.256479 
L 304.785593 101.943149 
L 304.645111 101.726854 
L 304.364146 100.165558 
L 304.223664 99.821267 
L 303.942699 103.392447 
L 303.802217 103.149763 
L 303.661735 103.376222 
L 303.38077 101.785014 
L 302.678359 92.93422 
L 302.397394 89.816623 
L 302.256912 88.954921 
L 302.11643 89.027785 
L 301.835465 86.03448 
L 301.273536 92.669693 
L 300.992571 88.233594 
L 300.571125 90.908438 
L 300.430642 91.09871 
L 300.29016 92.600838 
L 299.868713 99.179689 
L 299.728231 100.560788 
L 299.587749 100.781058 
L 299.306784 101.663221 
L 299.166302 99.671681 
L 298.744855 103.880315 
L 298.604373 103.706061 
L 298.323408 101.636103 
L 298.182926 101.780514 
L 297.761479 104.637372 
L 297.340032 105.746901 
L 297.19955 102.931425 
L 296.918585 102.310968 
L 296.778103 102.974776 
L 296.637621 104.632046 
L 296.356656 105.168586 
L 296.216174 107.372992 
L 296.075692 107.515668 
L 295.935209 107.323806 
L 295.794727 105.823604 
L 295.654245 106.303413 
L 295.232798 109.176724 
L 295.092316 109.393127 
L 294.951834 109.227864 
L 294.670869 107.031599 
L 294.530387 106.492618 
L 294.389904 106.524206 
L 294.10894 110.853026 
L 293.968458 111.298943 
L 293.547011 107.760568 
L 293.406528 108.080518 
L 293.266046 107.9096 
L 292.985082 110.587578 
L 292.844599 110.949932 
L 292.704117 110.372317 
L 292.563635 110.498408 
L 292.423153 110.35768 
L 292.142188 106.695449 
L 292.001706 106.546498 
L 291.580259 109.577154 
L 291.439777 109.011727 
L 291.158812 106.316768 
L 290.737365 107.994285 
L 290.456401 108.110523 
L 290.175436 111.026848 
L 290.034954 112.927173 
L 289.473025 110.400398 
L 289.19206 113.939271 
L 288.489649 118.713558 
L 288.208684 118.750612 
L 288.068202 119.512828 
L 287.646755 123.551964 
L 287.506273 123.631926 
L 287.36579 123.061031 
L 287.084826 120.435592 
L 286.803861 124.533882 
L 286.663379 124.089732 
L 286.382415 125.303263 
L 286.10145 126.944069 
L 285.680003 131.765268 
L 285.399039 129.809609 
L 285.258556 129.048568 
L 284.977592 126.251319 
L 284.837109 125.082592 
L 284.696627 124.857793 
L 284.556145 124.851478 
L 284.134698 121.093817 
L 283.853734 121.635465 
L 283.572769 128.995172 
L 283.432287 128.308504 
L 282.870358 119.923954 
L 282.729875 116.651129 
L 282.448911 117.860805 
L 282.308428 117.399119 
L 282.167946 118.919031 
L 282.027464 119.042626 
L 281.886982 118.367788 
L 281.606017 119.177092 
L 281.465535 121.543398 
L 281.325053 121.884732 
L 281.18457 121.136409 
L 280.903606 116.585957 
L 280.622641 109.921885 
L 280.201194 113.176661 
L 280.060712 113.544142 
L 279.779747 111.868118 
L 279.639265 112.679793 
L 279.498783 112.358388 
L 279.358301 112.37127 
L 279.217818 112.083306 
L 279.077336 110.66671 
L 278.936854 110.448206 
L 278.796372 108.878427 
L 278.655889 108.558082 
L 278.515407 106.97711 
L 278.374925 107.282652 
L 278.234442 107.038637 
L 277.953478 109.249807 
L 277.812996 109.149566 
L 277.251066 103.297517 
L 277.110584 103.649456 
L 276.970102 102.862205 
L 276.82962 103.446357 
L 276.689137 102.433851 
L 276.408173 103.31082 
L 276.127208 100.994953 
L 275.986726 101.364114 
L 275.846244 101.382709 
L 275.424797 95.485831 
L 275.284315 96.430619 
L 275.143832 98.2985 
L 274.862868 104.951506 
L 274.722385 108.535452 
L 274.300939 104.550836 
L 274.160456 103.782187 
L 273.879492 104.763242 
L 273.598527 109.541052 
L 273.458045 107.45057 
L 273.317563 107.688529 
L 273.17708 108.698046 
L 273.036598 108.372302 
L 272.896116 108.400091 
L 272.474669 114.535666 
L 272.334187 115.366655 
L 272.193704 114.101084 
L 271.91274 107.099111 
L 271.772258 104.397826 
L 271.069846 115.448163 
L 270.929364 115.347566 
L 270.648399 111.815241 
L 270.367435 115.523357 
L 269.945988 117.128067 
L 269.805506 116.428251 
L 269.665023 117.59965 
L 269.524541 116.83784 
L 269.384059 117.558182 
L 269.243577 117.567051 
L 269.103094 117.340803 
L 268.962612 118.996261 
L 268.82213 119.241399 
L 268.681647 118.909308 
L 268.400683 119.767112 
L 268.260201 121.28913 
L 267.979236 127.911714 
L 267.838754 126.070959 
L 267.557789 121.044069 
L 267.417307 120.685015 
L 267.136342 118.760215 
L 266.855378 119.478876 
L 266.714896 118.91035 
L 266.574413 119.182484 
L 266.293449 118.072837 
L 266.152966 118.952356 
L 265.872002 116.374552 
L 265.591037 116.942987 
L 265.450555 116.4299 
L 265.310073 113.990692 
L 265.029108 106.12488 
L 264.186215 118.1992 
L 264.045732 117.570085 
L 263.90525 118.828926 
L 263.764768 118.865821 
L 263.343321 123.386341 
L 263.202839 123.512531 
L 262.781392 127.837462 
L 262.640909 127.136918 
L 262.500427 127.60984 
L 262.219463 131.538962 
L 262.07898 131.437505 
L 261.798016 132.175787 
L 261.657534 131.873891 
L 261.517051 132.045056 
L 261.376569 130.950674 
L 261.095604 134.24644 
L 260.955122 133.383385 
L 260.81464 133.732138 
L 260.533675 135.493732 
L 260.393193 134.428081 
L 260.112228 135.639115 
L 259.831264 134.825375 
L 259.690782 136.409335 
L 259.550299 136.494098 
L 259.409817 135.022758 
L 259.269335 134.965778 
L 259.128853 134.75574 
L 258.98837 134.059769 
L 258.847888 134.408178 
L 258.707406 134.443129 
L 258.426441 136.790397 
L 258.145477 133.052075 
L 258.004994 132.453501 
L 257.864512 133.333195 
L 257.72403 132.183058 
L 257.443065 132.03724 
L 257.302583 132.721497 
L 257.162101 130.703446 
L 257.021618 130.606609 
L 256.459689 128.02896 
L 256.319207 128.036862 
L 256.178725 127.860009 
L 256.038242 126.894641 
L 255.757278 121.87842 
L 255.335831 111.209062 
L 255.195349 112.652743 
L 254.914384 131.911244 
L 254.773902 148.326947 
L 254.07149 115.62004 
L 253.931008 113.858161 
L 253.790526 114.565403 
L 253.650044 119.651783 
L 253.369079 146.196933 
L 252.947632 134.356222 
L 252.80715 134.693318 
L 252.666668 135.355602 
L 252.385703 141.982062 
L 252.245221 142.010971 
L 252.104739 137.055847 
L 251.823774 107.993818 
L 250.98088 150.104994 
L 250.840398 148.764297 
L 250.699916 144.454966 
L 250.418951 118.930617 
L 249.997504 136.132261 
L 249.71654 144.145364 
L 249.576058 143.925283 
L 249.435575 143.502897 
L 249.154611 141.664216 
L 249.014128 142.47479 
L 248.873646 142.375186 
L 248.733164 143.052504 
L 248.452199 140.53515 
L 248.311717 140.418656 
L 248.030753 138.707233 
L 247.89027 139.340913 
L 247.609306 137.644525 
L 247.328341 141.174164 
L 247.187859 141.745883 
L 247.047377 143.064301 
L 246.766412 138.504797 
L 246.62593 137.923086 
L 246.485447 138.023903 
L 246.344965 139.433639 
L 246.204483 139.270185 
L 246.064001 139.4412 
L 245.923518 139.871443 
L 245.783036 138.946589 
L 245.642554 139.692131 
L 245.502072 138.134041 
L 245.221107 137.664599 
L 244.940142 139.472118 
L 244.659178 140.307416 
L 244.097249 136.239655 
L 243.956766 136.618206 
L 243.53532 140.220666 
L 243.394837 139.890205 
L 243.113873 141.070559 
L 242.973391 139.255868 
L 242.692426 140.310047 
L 242.411461 141.061004 
L 242.270979 142.386045 
L 242.130497 142.607836 
L 241.990015 143.313477 
L 241.568568 142.234817 
L 241.287603 142.555979 
L 241.147121 141.15556 
L 241.006639 143.013514 
L 240.866156 142.260653 
L 240.585192 143.385832 
L 240.444709 145.11843 
L 240.163745 143.728508 
L 240.023263 144.571317 
L 239.88278 143.782906 
L 239.742298 143.663841 
L 239.461334 146.872048 
L 239.039887 143.460843 
L 238.056511 147.814165 
L 237.916028 147.117548 
L 237.494582 142.62009 
L 237.213617 143.611429 
L 236.932653 145.113762 
L 236.79217 143.298839 
L 236.230241 125.721386 
L 236.089759 125.595873 
L 235.949277 130.511607 
L 235.668312 161.911516 
L 235.52783 186.352979 
L 235.106383 155.737691 
L 234.825418 146.757227 
L 234.684936 145.078956 
L 234.544454 146.505158 
L 234.403972 146.493431 
L 234.263489 147.758011 
L 233.982525 146.391515 
L 233.842042 147.810818 
L 233.561078 154.918694 
L 233.280113 165.373982 
L 233.139631 166.316045 
L 232.999149 161.138518 
L 232.718184 129.625853 
L 232.577702 105.131772 
L 232.156255 135.280795 
L 231.875291 144.419603 
L 231.453844 148.605861 
L 231.313361 145.940983 
L 231.172879 145.955514 
L 230.61095 142.077487 
L 230.329985 141.664642 
L 230.189503 140.766052 
L 230.049021 140.766161 
L 229.908539 141.233169 
L 229.768056 142.388105 
L 229.487092 146.437816 
L 229.346609 146.651874 
L 228.925163 149.077205 
L 228.78468 150.582149 
L 228.503716 147.048025 
L 228.082269 152.045473 
L 227.801304 155.08626 
L 227.660822 157.036625 
L 227.52034 157.022491 
L 227.239375 158.797416 
L 226.958411 161.918236 
L 226.817928 160.825689 
L 226.677446 160.962967 
L 226.536964 160.587411 
L 225.834553 165.312344 
L 224.710694 186.485336 
L 224.289247 190.820471 
L 224.008283 189.685071 
L 223.867801 190.807659 
L 223.727318 188.929012 
L 223.586836 189.209574 
L 223.305872 187.974497 
L 223.024907 188.444683 
L 222.884425 188.595348 
L 222.60346 186.468365 
L 222.041531 182.885233 
L 221.901049 180.800475 
L 221.760566 180.586915 
L 221.479602 178.730311 
L 221.198637 180.417311 
L 220.917673 188.155287 
L 220.074779 177.264975 
L 219.793815 175.723596 
L 219.653332 175.987102 
L 219.372368 174.53499 
L 219.091403 171.756726 
L 218.950921 172.553128 
L 218.810439 172.509287 
L 218.669956 172.738315 
L 218.24851 168.814867 
L 217.967545 160.566446 
L 217.546098 168.219968 
L 217.405616 168.181737 
L 217.265134 168.863906 
L 217.124651 168.94258 
L 216.984169 169.350792 
L 216.843687 168.813601 
L 216.703204 169.567527 
L 216.562722 168.863682 
L 216.42224 169.177416 
L 216.281758 170.840453 
L 216.141275 171.032491 
L 215.860311 168.61405 
L 215.719828 169.336103 
L 215.438864 171.870655 
L 215.157899 170.857684 
L 214.876935 170.472161 
L 214.736453 170.856338 
L 214.59597 170.211667 
L 214.455488 171.441591 
L 214.315006 170.542037 
L 214.174523 170.768128 
L 214.034041 169.796852 
L 213.893559 169.618193 
L 213.612594 166.658242 
L 213.33163 163.330696 
L 213.191147 163.716905 
L 213.050665 165.593931 
L 212.910183 165.502807 
L 212.629218 163.120366 
L 211.926807 161.793762 
L 211.786325 160.425589 
L 211.645842 160.846275 
L 210.943431 158.110065 
L 210.802949 158.24536 
L 210.662466 159.028476 
L 210.381502 161.075324 
L 210.100537 157.482687 
L 209.960055 157.316378 
L 209.538608 154.893845 
L 209.398126 155.103075 
L 209.257644 155.514887 
L 209.117161 156.626001 
L 208.836197 162.090108 
L 208.695715 162.662438 
L 208.555232 163.794442 
L 208.274268 168.610436 
L 207.993303 171.786468 
L 207.852821 174.442528 
L 207.571856 175.192379 
L 207.15041 180.53956 
L 207.009927 179.167113 
L 206.869445 179.443434 
L 206.728963 179.388006 
L 206.58848 178.469529 
L 206.447998 178.433083 
L 206.307516 177.981818 
L 206.167034 176.721014 
L 206.026551 174.084374 
L 205.886069 173.938674 
L 205.745587 174.382427 
L 205.464622 173.19568 
L 205.32414 173.222908 
L 204.481246 168.602793 
L 204.059799 165.575898 
L 203.919317 165.165914 
L 203.638353 165.227699 
L 203.49787 164.597002 
L 203.357388 164.704979 
L 203.076423 167.60996 
L 202.374012 158.792205 
L 202.23353 159.130581 
L 202.093047 158.946091 
L 201.812083 157.090298 
L 201.671601 157.760451 
L 201.531118 156.942961 
L 201.250154 158.731375 
L 201.109672 158.912162 
L 200.969189 158.855344 
L 200.828707 159.445008 
L 200.688225 158.888305 
L 200.547742 157.536511 
L 200.40726 157.42124 
L 200.266778 157.152929 
L 200.126296 155.913753 
L 199.423884 161.236754 
L 199.14292 161.757838 
L 198.861955 163.453605 
L 198.721473 164.030479 
L 198.580991 165.218191 
L 198.300026 163.872152 
L 198.159544 165.408763 
L 197.878579 165.239435 
L 197.597615 168.580839 
L 197.457132 169.201053 
L 197.31665 169.194859 
L 197.176168 169.721398 
L 197.035685 169.492371 
L 196.614239 171.271839 
L 196.333274 169.330469 
L 196.05231 171.488751 
L 195.771345 172.26044 
L 195.630863 171.764988 
L 194.928451 174.770617 
L 194.787969 173.334383 
L 194.647487 175.010508 
L 194.507004 175.008377 
L 194.366522 175.443185 
L 194.22604 174.041121 
L 194.085558 174.611173 
L 193.804593 173.83893 
L 193.383146 176.411717 
L 193.242664 176.181774 
L 193.102182 175.171585 
L 192.821217 176.412137 
L 192.540253 174.567308 
L 192.39977 174.688194 
L 192.259288 175.697756 
L 192.118806 175.48268 
L 191.978323 175.512753 
L 191.837841 177.07862 
L 191.556877 174.471517 
L 191.416394 173.222437 
L 190.854465 178.490711 
L 190.573501 178.544274 
L 190.433018 179.215622 
L 190.152054 177.060047 
L 190.011572 176.868043 
L 189.871089 175.608689 
L 189.449642 178.314863 
L 189.168678 176.530462 
L 188.606749 174.964572 
L 188.466266 174.168287 
L 188.325784 174.888505 
L 187.763855 167.399629 
L 187.623373 167.602369 
L 187.482891 168.471902 
L 187.201926 171.465803 
L 187.061444 170.88503 
L 186.780479 168.87847 
L 186.639997 168.93892 
L 186.359032 167.255896 
L 186.21855 168.862201 
L 186.078068 168.999371 
L 185.797103 168.181206 
L 185.516139 170.133447 
L 185.375656 169.060278 
L 185.235174 168.945208 
L 185.094692 168.120358 
L 184.813727 170.097069 
L 184.251798 166.459911 
L 184.111316 166.564925 
L 183.549387 164.759745 
L 182.706493 155.527972 
L 182.566011 155.432099 
L 182.425529 155.051799 
L 182.144564 156.009395 
L 182.004082 157.323047 
L 181.723117 157.635454 
L 181.582635 157.413465 
L 181.442153 158.394381 
L 181.161188 155.99138 
L 181.020706 156.438207 
L 180.880223 158.04241 
L 180.739741 157.687652 
L 180.318294 161.346134 
L 180.177812 161.37319 
L 180.03733 162.243336 
L 179.896847 162.344876 
L 179.756365 161.848465 
L 179.615883 161.781441 
L 179.475401 162.408805 
L 179.194436 164.424838 
L 179.053954 164.406755 
L 178.772989 166.129633 
L 178.492025 168.020157 
L 178.070578 172.252396 
L 177.508649 169.596169 
L 177.227684 173.746372 
L 176.94672 180.354176 
L 176.806237 180.379458 
L 176.665755 180.716725 
L 176.525273 179.233159 
L 176.244308 179.608169 
L 175.822861 176.682611 
L 175.682379 174.510876 
L 175.541897 174.192149 
L 175.12045 171.240519 
L 174.839485 172.116086 
L 174.699003 171.784477 
L 174.558521 170.672755 
L 174.277556 165.598083 
L 173.996592 162.449639 
L 173.434663 165.924935 
L 173.29418 165.849623 
L 173.153698 166.035855 
L 172.872734 166.802628 
L 172.732251 168.659973 
L 172.591769 167.483688 
L 172.451287 167.678699 
L 172.170322 165.926665 
L 171.748875 169.340107 
L 171.327429 175.37644 
L 171.046464 176.511101 
L 170.344053 184.263715 
L 170.20357 184.980201 
L 170.063088 186.650265 
L 169.922606 186.960416 
L 169.782123 185.447605 
L 169.501159 185.577661 
L 169.220194 188.481183 
L 169.079712 187.633905 
L 168.93923 188.10478 
L 168.798747 189.1347 
L 168.517783 188.20949 
L 168.236818 187.641894 
L 167.955854 189.886494 
L 167.815372 189.897817 
L 167.674889 188.685998 
L 167.534407 189.020283 
L 167.253442 191.681562 
L 167.11296 190.734449 
L 166.691513 192.925931 
L 166.551031 192.684161 
L 166.410549 191.951966 
L 166.129584 192.835761 
L 165.989102 191.123738 
L 165.84862 191.260376 
L 165.567655 189.155121 
L 165.286691 190.799846 
L 164.865244 186.65177 
L 164.724761 186.686619 
L 164.303315 184.806459 
L 164.162832 185.048454 
L 163.881868 182.805115 
L 163.741385 183.346864 
L 163.600903 183.42683 
L 163.460421 182.368111 
L 163.319939 182.582255 
L 163.179456 182.058913 
L 163.038974 182.035271 
L 162.898492 180.779212 
L 162.75801 181.384235 
L 162.617527 181.129656 
L 162.336563 178.911667 
L 162.19608 180.012439 
L 162.055598 178.732108 
L 161.774634 179.322043 
L 161.634151 178.706488 
L 161.493669 179.126117 
L 161.353187 178.988006 
L 160.93174 176.024433 
L 160.791258 175.844489 
L 160.650775 176.173586 
L 160.510293 175.885432 
L 160.229329 174.615379 
L 159.948364 177.87911 
L 159.807882 177.254095 
L 159.10547 181.62821 
L 158.964988 181.408423 
L 158.824506 182.346502 
L 158.684023 182.422215 
L 158.543541 181.514607 
L 158.403059 181.636268 
L 157.981612 186.108484 
L 157.84113 186.046078 
L 157.700647 186.316302 
L 157.560165 187.201861 
L 157.419683 187.021088 
L 157.279201 188.629629 
L 157.138718 188.923644 
L 156.857754 190.20077 
L 156.717272 190.035935 
L 156.155342 191.534914 
L 156.01486 193.349075 
L 155.874378 191.822528 
L 155.593413 192.067239 
L 155.452931 191.590464 
L 155.312449 191.634379 
L 155.171966 192.489965 
L 154.891002 196.45656 
L 154.75052 196.471718 
L 154.610037 196.898053 
L 154.469555 196.001345 
L 154.188591 192.936515 
L 154.048108 192.428705 
L 153.767144 196.126194 
L 153.626661 195.516729 
L 153.345697 195.927025 
L 153.064732 194.284985 
L 152.92425 194.729781 
L 152.783768 195.645321 
L 152.643285 195.214488 
L 152.502803 196.174415 
L 152.362321 196.142777 
L 152.081356 197.009758 
L 151.800392 194.253823 
L 151.65991 193.932944 
L 151.378945 196.456344 
L 151.238463 196.349446 
L 151.09798 196.703164 
L 150.957498 196.397147 
L 150.817016 196.5025 
L 150.536051 199.171781 
L 149.552675 206.526955 
L 149.131229 202.108706 
L 148.990746 202.133129 
L 148.709782 207.492559 
L 148.569299 206.989496 
L 148.428817 205.841843 
L 148.147853 209.197398 
L 147.585923 203.452843 
L 147.445441 203.365716 
L 147.304959 203.951307 
L 147.023994 202.348379 
L 146.883512 203.861321 
L 146.74303 203.083442 
L 146.602548 203.136404 
L 146.462065 204.757609 
L 146.321583 204.554598 
L 146.040618 204.690643 
L 145.759654 200.75535 
L 145.619172 201.121434 
L 145.478689 203.511573 
L 145.197725 198.671163 
L 144.91676 201.059828 
L 144.776278 201.425684 
L 144.635796 203.909809 
L 144.354831 201.446789 
L 144.214349 201.65098 
L 144.073866 202.891207 
L 143.933384 202.156738 
L 143.792902 202.552688 
L 143.65242 203.594246 
L 143.230973 201.018386 
L 143.090491 201.307068 
L 142.669044 200.871916 
L 142.528561 198.703192 
L 142.247597 200.212649 
L 142.107115 200.723036 
L 141.966632 200.655094 
L 141.82615 200.409001 
L 141.685668 199.220594 
L 141.123739 201.713288 
L 140.983256 201.646207 
L 140.842774 202.027054 
L 140.702292 201.511068 
L 140.56181 201.765204 
L 140.140363 203.041711 
L 139.99988 202.394833 
L 139.718916 202.282776 
L 139.578434 202.775328 
L 139.297469 202.278823 
L 139.156987 202.504786 
L 139.016504 203.644765 
L 138.876022 203.70619 
L 138.454575 205.741329 
L 138.314093 205.276275 
L 138.173611 204.316084 
L 138.033129 205.394148 
L 137.752164 203.049533 
L 137.471199 205.265374 
L 137.190235 204.235676 
L 137.049753 204.353902 
L 136.90927 203.297744 
L 136.768788 203.122233 
L 136.628306 202.638328 
L 136.487823 203.087554 
L 136.206859 202.823324 
L 136.066377 203.111598 
L 135.785412 205.803586 
L 135.363965 201.539118 
L 135.223483 202.439573 
L 135.083001 202.178972 
L 134.802036 203.768533 
L 134.380589 199.738437 
L 134.099625 199.928243 
L 133.678178 202.380681 
L 133.537696 202.032935 
L 133.397213 202.431284 
L 133.116249 200.379569 
L 132.975766 198.926469 
L 132.835284 195.64694 
L 132.55432 198.475896 
L 132.273355 199.80436 
L 132.132873 199.970291 
L 131.851908 199.66548 
L 131.570944 201.002969 
L 131.430461 201.812937 
L 131.289979 201.125099 
L 131.149497 201.939835 
L 131.009015 201.715898 
L 130.72805 199.526341 
L 130.447085 197.986491 
L 130.166121 199.442969 
L 130.025639 199.551162 
L 129.885156 201.653989 
L 129.744674 200.964989 
L 129.46371 201.818689 
L 129.042263 199.867573 
L 128.761298 197.278292 
L 128.620816 196.496897 
L 128.339851 196.726867 
L 128.199369 197.036636 
L 127.496958 193.117201 
L 126.935029 188.788576 
L 126.513582 192.152685 
L 126.373099 191.722211 
L 126.092135 189.842769 
L 125.951653 190.47276 
L 125.81117 190.123795 
L 125.670688 191.472689 
L 125.530206 191.081647 
L 125.389723 191.385258 
L 125.249241 190.343148 
L 124.968277 190.617472 
L 124.827794 190.22826 
L 124.265865 194.415672 
L 124.125383 194.238692 
L 123.984901 195.102227 
L 123.563454 190.633031 
L 122.861042 196.208628 
L 122.299113 193.616297 
L 122.158631 193.699865 
L 122.018149 194.381385 
L 121.877666 194.018138 
L 121.737184 192.978052 
L 121.45622 187.907743 
L 121.034773 177.715451 
L 120.894291 181.291655 
L 120.472844 223.10061 
L 119.770432 193.00322 
L 119.62995 192.736423 
L 119.489468 192.715186 
L 119.348985 193.079785 
L 119.068021 191.951305 
L 118.927539 192.987655 
L 118.506092 199.678826 
L 118.225127 207.473443 
L 118.084645 208.118088 
L 117.944163 204.36752 
L 117.522716 161.467868 
L 117.101269 183.33114 
L 116.820304 201.560541 
L 116.679822 201.480629 
L 116.258375 196.36323 
L 116.117893 196.361552 
L 115.555964 200.588129 
L 115.415482 200.369895 
L 115.274999 200.974007 
L 114.994035 203.760438 
L 114.291623 210.421287 
L 114.151141 209.123155 
L 113.870177 202.145928 
L 113.44873 209.464605 
L 113.167765 213.86855 
L 113.027283 214.284669 
L 112.886801 214.264602 
L 112.605836 215.654523 
L 112.324872 219.137113 
L 112.184389 219.246907 
L 111.62246 225.640262 
L 111.481978 224.926767 
L 110.920049 228.782847 
L 110.779567 229.430408 
L 110.639084 229.088168 
L 109.093779 252.310567 
L 108.812815 254.38031 
L 108.250885 262.865721 
L 108.110403 263.19062 
L 107.829439 267.831025 
L 107.688956 269.223511 
L 107.548474 269.283061 
L 107.407992 270.805281 
L 107.26751 270.865146 
L 107.127027 270.104075 
L 106.846063 270.744288 
L 106.70558 269.199692 
L 106.565098 269.648687 
L 106.284134 271.967135 
L 106.143651 270.975764 
L 106.003169 270.823187 
L 105.722204 269.442574 
L 105.581722 268.136185 
L 105.44124 269.317265 
L 105.300758 271.673187 
L 105.160275 272.055553 
L 105.019793 271.083669 
L 104.738829 272.205132 
L 104.598346 272.095623 
L 104.457864 271.177806 
L 104.176899 273.820628 
L 103.895935 270.742003 
L 103.755453 270.554357 
L 103.61497 269.692605 
L 103.474488 269.565074 
L 103.193523 269.211965 
L 103.053041 270.316677 
L 102.912559 269.493504 
L 102.631594 270.284399 
L 102.491112 269.698642 
L 102.35063 266.156661 
L 102.069665 268.87694 
L 101.788701 267.946796 
L 101.507736 269.459556 
L 101.226772 266.679333 
L 100.945807 268.304868 
L 100.805325 269.174995 
L 100.664842 268.131249 
L 100.383878 264.574686 
L 100.243396 266.028642 
L 100.102913 266.153601 
L 99.821949 268.644569 
L 99.681467 268.404529 
L 99.540984 267.864917 
L 99.400502 269.361724 
L 99.119537 265.614246 
L 98.979055 265.508429 
L 98.698091 264.356009 
L 98.417126 262.094266 
L 98.136161 263.832766 
L 97.855197 262.924185 
L 97.293268 267.310008 
L 97.012303 265.140654 
L 96.871821 263.849931 
L 96.731339 263.910471 
L 96.590856 263.654223 
L 96.450374 264.050745 
L 96.16941 265.253176 
L 95.888445 264.248525 
L 95.747963 262.917303 
L 95.60748 263.10934 
L 95.466998 263.65523 
L 95.326516 262.122346 
L 95.186034 261.878437 
L 95.045551 262.819085 
L 94.905069 262.466535 
L 94.202658 254.681723 
L 94.062175 253.793517 
L 93.781211 255.573356 
L 93.640729 255.291369 
L 93.500246 253.561355 
L 93.359764 253.265277 
L 93.078799 252.503085 
L 92.938317 252.376502 
L 92.797835 252.768274 
L 92.657353 251.613532 
L 92.376388 248.553335 
L 92.095423 247.032771 
L 91.954941 247.216495 
L 91.533494 248.955139 
L 91.112048 249.999844 
L 90.690601 246.776367 
L 90.409636 245.971876 
L 90.269154 247.269296 
L 90.128672 246.71087 
L 89.847707 246.675484 
L 89.707225 246.538111 
L 89.566742 246.062874 
L 89.285778 247.245991 
L 89.145296 245.916863 
L 89.004813 246.029677 
L 88.723849 248.038566 
L 88.583367 248.005382 
L 88.442884 248.620145 
L 88.021437 246.096447 
L 87.880955 246.130432 
L 87.599991 248.616328 
L 87.459508 248.55532 
L 87.178544 247.346635 
L 86.897579 245.156987 
L 86.757097 244.900149 
L 86.616615 246.547145 
L 86.33565 245.067157 
L 86.195168 245.436436 
L 85.633239 242.445566 
L 85.492756 240.698333 
L 85.352274 240.539821 
L 85.07131 242.415995 
L 84.930827 241.439434 
L 84.087934 226.334506 
L 83.947451 226.31219 
L 83.666487 236.428067 
L 83.526004 246.301055 
L 82.823593 230.602956 
L 82.683111 231.495152 
L 82.542629 233.830946 
L 82.261664 234.565662 
L 82.121182 234.530752 
L 81.840217 233.600387 
L 81.699735 234.540096 
L 81.278288 241.33285 
L 81.137806 217.910766 
L 80.997323 216.946098 
L 80.716359 203.97168 
L 80.575877 195.850948 
L 79.873465 208.815034 
L 79.732983 207.812643 
L 79.452018 204.869585 
L 79.171054 204.269313 
L 78.890089 207.741127 
L 78.749607 207.586981 
L 78.609125 206.014086 
L 78.468642 206.20651 
L 78.32816 205.976391 
L 78.187678 205.244362 
L 78.047196 205.351632 
L 77.766231 206.713157 
L 77.485267 204.690376 
L 77.344784 205.030836 
L 77.204302 204.44051 
L 77.06382 205.059681 
L 76.923337 203.743439 
L 76.782855 203.921268 
L 76.642373 203.268913 
L 76.501891 204.290071 
L 76.361408 204.147839 
L 76.220926 203.617529 
L 75.939961 200.67423 
L 75.799479 200.446193 
L 75.518515 204.448029 
L 75.378032 207.996414 
L 75.23755 208.706041 
L 74.675621 201.900263 
L 74.535139 202.196945 
L 73.832727 202.278121 
L 73.832727 202.278121 
" clip-path="url(#p81b761f481)" style="fill: none; stroke: #ff7f0e; stroke-width: 1.5; stroke-linecap: square"/>
   </g>
   <g id="patch_3">
    <path d="M 57.6 307.584 
L 57.6 41.472 
" style="fill: none; stroke: #000000; stroke-width: 0.8; stroke-linejoin: miter; stroke-linecap: square"/>
   </g>
   <g id="patch_4">
    <path d="M 414.72 307.584 
L 414.72 41.472 
" style="fill: none; stroke: #000000; stroke-width: 0.8; stroke-linejoin: miter; stroke-linecap: square"/>
   </g>
   <g id="patch_5">
    <path d="M 57.6 307.584 
L 414.72 307.584 
" style="fill: none; stroke: #000000; stroke-width: 0.8; stroke-linejoin: miter; stroke-linecap: square"/>
   </g>
   <g id="patch_6">
    <path d="M 57.6 41.472 
L 414.72 41.472 
" style="fill: none; stroke: #000000; stroke-width: 0.8; stroke-linejoin: miter; stroke-linecap: square"/>
   </g>
   <g id="text_13">
    <!-- Actual vs. Predicted Values -->
    <g transform="translate(155.29125 35.472) scale(0.12 -0.12)">
     <defs>
      <path id="DejaVuSans-41" d="M 2188 4044 
L 1331 1722 
L 3047 1722 
L 2188 4044 
z
M 1831 4666 
L 2547 4666 
L 4325 0 
L 3669 0 
L 3244 1197 
L 1141 1197 
L 716 0 
L 50 0 
L 1831 4666 
z
" transform="scale(0.015625)"/>
      <path id="DejaVuSans-63" d="M 3122 3366 
L 3122 2828 
Q 2878 2963 2633 3030 
Q 2388 3097 2138 3097 
Q 1578 3097 1268 2742 
Q 959 2388 959 1747 
Q 959 1106 1268 751 
Q 1578 397 2138 397 
Q 2388 397 2633 464 
Q 2878 531 3122 666 
L 3122 134 
Q 2881 22 2623 -34 
Q 2366 -91 2075 -91 
Q 1284 -91 818 406 
Q 353 903 353 1747 
Q 353 2603 823 3093 
Q 1294 3584 2113 3584 
Q 2378 3584 2631 3529 
Q 2884 3475 3122 3366 
z
" transform="scale(0.015625)"/>
      <path id="DejaVuSans-74" d="M 1172 4494 
L 1172 3500 
L 2356 3500 
L 2356 3053 
L 1172 3053 
L 1172 1153 
Q 1172 725 1289 603 
Q 1406 481 1766 481 
L 2356 481 
L 2356 0 
L 1766 0 
Q 1100 0 847 248 
Q 594 497 594 1153 
L 594 3053 
L 172 3053 
L 172 3500 
L 594 3500 
L 594 4494 
L 1172 4494 
z
" transform="scale(0.015625)"/>
      <path id="DejaVuSans-20" transform="scale(0.015625)"/>
      <path id="DejaVuSans-76" d="M 191 3500 
L 800 3500 
L 1894 563 
L 2988 3500 
L 3597 3500 
L 2284 0 
L 1503 0 
L 191 3500 
z
" transform="scale(0.015625)"/>
      <path id="DejaVuSans-73" d="M 2834 3397 
L 2834 2853 
Q 2591 2978 2328 3040 
Q 2066 3103 1784 3103 
Q 1356 3103 1142 2972 
Q 928 2841 928 2578 
Q 928 2378 1081 2264 
Q 1234 2150 1697 2047 
L 1894 2003 
Q 2506 1872 2764 1633 
Q 3022 1394 3022 966 
Q 3022 478 2636 193 
Q 2250 -91 1575 -91 
Q 1294 -91 989 -36 
Q 684 19 347 128 
L 347 722 
Q 666 556 975 473 
Q 1284 391 1588 391 
Q 1994 391 2212 530 
Q 2431 669 2431 922 
Q 2431 1156 2273 1281 
Q 2116 1406 1581 1522 
L 1381 1569 
Q 847 1681 609 1914 
Q 372 2147 372 2553 
Q 372 3047 722 3315 
Q 1072 3584 1716 3584 
Q 2034 3584 2315 3537 
Q 2597 3491 2834 3397 
z
" transform="scale(0.015625)"/>
      <path id="DejaVuSans-50" d="M 1259 4147 
L 1259 2394 
L 2053 2394 
Q 2494 2394 2734 2622 
Q 2975 2850 2975 3272 
Q 2975 3691 2734 3919 
Q 2494 4147 2053 4147 
L 1259 4147 
z
M 628 4666 
L 2053 4666 
Q 2838 4666 3239 4311 
Q 3641 3956 3641 3272 
Q 3641 2581 3239 2228 
Q 2838 1875 2053 1875 
L 1259 1875 
L 1259 0 
L 628 0 
L 628 4666 
z
" transform="scale(0.015625)"/>
      <path id="DejaVuSans-72" d="M 2631 2963 
Q 2534 3019 2420 3045 
Q 2306 3072 2169 3072 
Q 1681 3072 1420 2755 
Q 1159 2438 1159 1844 
L 1159 0 
L 581 0 
L 581 3500 
L 1159 3500 
L 1159 2956 
Q 1341 3275 1631 3429 
Q 1922 3584 2338 3584 
Q 2397 3584 2469 3576 
Q 2541 3569 2628 3553 
L 2631 2963 
z
" transform="scale(0.015625)"/>
      <path id="DejaVuSans-69" d="M 603 3500 
L 1178 3500 
L 1178 0 
L 603 0 
L 603 3500 
z
M 603 4863 
L 1178 4863 
L 1178 4134 
L 603 4134 
L 603 4863 
z
" transform="scale(0.015625)"/>
     </defs>
     <use xlink:href="#DejaVuSans-41"/>
     <use xlink:href="#DejaVuSans-63" x="66.658203"/>
     <use xlink:href="#DejaVuSans-74" x="121.638672"/>
     <use xlink:href="#DejaVuSans-75" x="160.847656"/>
     <use xlink:href="#DejaVuSans-61" x="224.226562"/>
     <use xlink:href="#DejaVuSans-6c" x="285.505859"/>
     <use xlink:href="#DejaVuSans-20" x="313.289062"/>
     <use xlink:href="#DejaVuSans-76" x="345.076172"/>
     <use xlink:href="#DejaVuSans-73" x="404.255859"/>
     <use xlink:href="#DejaVuSans-2e" x="456.355469"/>
     <use xlink:href="#DejaVuSans-20" x="488.142578"/>
     <use xlink:href="#DejaVuSans-50" x="519.929688"/>
     <use xlink:href="#DejaVuSans-72" x="578.482422"/>
     <use xlink:href="#DejaVuSans-65" x="617.345703"/>
     <use xlink:href="#DejaVuSans-64" x="678.869141"/>
     <use xlink:href="#DejaVuSans-69" x="742.345703"/>
     <use xlink:href="#DejaVuSans-63" x="770.128906"/>
     <use xlink:href="#DejaVuSans-74" x="825.109375"/>
     <use xlink:href="#DejaVuSans-65" x="864.318359"/>
     <use xlink:href="#DejaVuSans-64" x="925.841797"/>
     <use xlink:href="#DejaVuSans-20" x="989.318359"/>
     <use xlink:href="#DejaVuSans-56" x="1021.105469"/>
     <use xlink:href="#DejaVuSans-61" x="1081.763672"/>
     <use xlink:href="#DejaVuSans-6c" x="1143.042969"/>
     <use xlink:href="#DejaVuSans-75" x="1170.826172"/>
     <use xlink:href="#DejaVuSans-65" x="1234.205078"/>
     <use xlink:href="#DejaVuSans-73" x="1295.728516"/>
    </g>
   </g>
   <g id="legend_1">
    <g id="patch_7">
     <path d="M 64.6 78.82825 
L 144.034375 78.82825 
Q 146.034375 78.82825 146.034375 76.82825 
L 146.034375 48.472 
Q 146.034375 46.472 144.034375 46.472 
L 64.6 46.472 
Q 62.6 46.472 62.6 48.472 
L 62.6 76.82825 
Q 62.6 78.82825 64.6 78.82825 
z
" style="fill: #ffffff; opacity: 0.8; stroke: #cccccc; stroke-linejoin: miter"/>
    </g>
    <g id="line2d_13">
     <path d="M 66.6 54.570437 
L 76.6 54.570437 
L 86.6 54.570437 
" style="fill: none; stroke: #1f77b4; stroke-width: 1.5; stroke-linecap: square"/>
    </g>
    <g id="text_14">
     <!-- actual -->
     <g transform="translate(94.6 58.070437) scale(0.1 -0.1)">
      <use xlink:href="#DejaVuSans-61"/>
      <use xlink:href="#DejaVuSans-63" x="61.279297"/>
      <use xlink:href="#DejaVuSans-74" x="116.259766"/>
      <use xlink:href="#DejaVuSans-75" x="155.46875"/>
      <use xlink:href="#DejaVuSans-61" x="218.847656"/>
      <use xlink:href="#DejaVuSans-6c" x="280.126953"/>
     </g>
    </g>
    <g id="line2d_14">
     <path d="M 66.6 69.248562 
L 76.6 69.248562 
L 86.6 69.248562 
" style="fill: none; stroke: #ff7f0e; stroke-width: 1.5; stroke-linecap: square"/>
    </g>
    <g id="text_15">
     <!-- predicted -->
     <g transform="translate(94.6 72.748562) scale(0.1 -0.1)">
      <defs>
       <path id="DejaVuSans-70" d="M 1159 525 
L 1159 -1331 
L 581 -1331 
L 581 3500 
L 1159 3500 
L 1159 2969 
Q 1341 3281 1617 3432 
Q 1894 3584 2278 3584 
Q 2916 3584 3314 3078 
Q 3713 2572 3713 1747 
Q 3713 922 3314 415 
Q 2916 -91 2278 -91 
Q 1894 -91 1617 61 
Q 1341 213 1159 525 
z
M 3116 1747 
Q 3116 2381 2855 2742 
Q 2594 3103 2138 3103 
Q 1681 3103 1420 2742 
Q 1159 2381 1159 1747 
Q 1159 1113 1420 752 
Q 1681 391 2138 391 
Q 2594 391 2855 752 
Q 3116 1113 3116 1747 
z
" transform="scale(0.015625)"/>
      </defs>
      <use xlink:href="#DejaVuSans-70"/>
      <use xlink:href="#DejaVuSans-72" x="63.476562"/>
      <use xlink:href="#DejaVuSans-65" x="102.339844"/>
      <use xlink:href="#DejaVuSans-64" x="163.863281"/>
      <use xlink:href="#DejaVuSans-69" x="227.339844"/>
      <use xlink:href="#DejaVuSans-63" x="255.123047"/>
      <use xlink:href="#DejaVuSans-74" x="310.103516"/>
      <use xlink:href="#DejaVuSans-65" x="349.3125"/>
      <use xlink:href="#DejaVuSans-64" x="410.835938"/>
     </g>
    </g>
   </g>
  </g>
 </g>
 <defs>
  <clipPath id="p81b761f481">
   <rect x="57.6" y="41.472" width="357.12" height="266.112"/>
  </clipPath>
 </defs>
</svg>
