<?xml version="1.0" encoding="utf-8" standalone="no"?>
<!DOCTYPE svg PUBLIC "-//W3C//DTD SVG 1.1//EN"
  "http://www.w3.org/Graphics/SVG/1.1/DTD/svg11.dtd">
<svg xmlns:xlink="http://www.w3.org/1999/xlink" width="460.8pt" height="345.6pt" viewBox="0 0 460.8 345.6" xmlns="http://www.w3.org/2000/svg" version="1.1">
 <metadata>
  <rdf:RDF xmlns:dc="http://purl.org/dc/elements/1.1/" xmlns:cc="http://creativecommons.org/ns#" xmlns:rdf="http://www.w3.org/1999/02/22-rdf-syntax-ns#">
   <cc:Work>
    <dc:type rdf:resource="http://purl.org/dc/dcmitype/StillImage"/>
    <dc:date>2023-06-01T10:01:54.180930</dc:date>
    <dc:format>image/svg+xml</dc:format>
    <dc:creator>
     <cc:Agent>
      <dc:title>Matplotlib v3.7.1, https://matplotlib.org/</dc:title>
     </cc:Agent>
    </dc:creator>
   </cc:Work>
  </rdf:RDF>
 </metadata>
 <defs>
  <style type="text/css">*{stroke-linejoin: round; stroke-linecap: butt}</style>
 </defs>
 <g id="figure_1">
  <g id="patch_1">
   <path d="M 0 345.6 
L 460.8 345.6 
L 460.8 0 
L 0 0 
z
" style="fill: #ffffff"/>
  </g>
  <g id="axes_1">
   <g id="patch_2">
    <path d="M 57.6 307.584 
L 414.72 307.584 
L 414.72 41.472 
L 57.6 41.472 
z
" style="fill: #ffffff"/>
   </g>
   <g id="matplotlib.axis_1">
    <g id="xtick_1">
     <g id="line2d_1">
      <defs>
       <path id="m1faf19d628" d="M 0 0 
L 0 3.5 
" style="stroke: #000000; stroke-width: 0.8"/>
      </defs>
      <g>
       <use xlink:href="#m1faf19d628" x="398.487273" y="307.584" style="stroke: #000000; stroke-width: 0.8"/>
      </g>
     </g>
     <g id="text_1">
      <!-- 0 -->
      <g transform="translate(395.306023 322.182437) scale(0.1 -0.1)">
       <defs>
        <path id="DejaVuSans-30" d="M 2034 4250 
Q 1547 4250 1301 3770 
Q 1056 3291 1056 2328 
Q 1056 1369 1301 889 
Q 1547 409 2034 409 
Q 2525 409 2770 889 
Q 3016 1369 3016 2328 
Q 3016 3291 2770 3770 
Q 2525 4250 2034 4250 
z
M 2034 4750 
Q 2819 4750 3233 4129 
Q 3647 3509 3647 2328 
Q 3647 1150 3233 529 
Q 2819 -91 2034 -91 
Q 1250 -91 836 529 
Q 422 1150 422 2328 
Q 422 3509 836 4129 
Q 1250 4750 2034 4750 
z
" transform="scale(0.015625)"/>
       </defs>
       <use xlink:href="#DejaVuSans-30"/>
      </g>
     </g>
    </g>
    <g id="xtick_2">
     <g id="line2d_2">
      <g>
       <use xlink:href="#m1faf19d628" x="328.246134" y="307.584" style="stroke: #000000; stroke-width: 0.8"/>
      </g>
     </g>
     <g id="text_2">
      <!-- 500 -->
      <g transform="translate(318.702384 322.182437) scale(0.1 -0.1)">
       <defs>
        <path id="DejaVuSans-35" d="M 691 4666 
L 3169 4666 
L 3169 4134 
L 1269 4134 
L 1269 2991 
Q 1406 3038 1543 3061 
Q 1681 3084 1819 3084 
Q 2600 3084 3056 2656 
Q 3513 2228 3513 1497 
Q 3513 744 3044 326 
Q 2575 -91 1722 -91 
Q 1428 -91 1123 -41 
Q 819 9 494 109 
L 494 744 
Q 775 591 1075 516 
Q 1375 441 1709 441 
Q 2250 441 2565 725 
Q 2881 1009 2881 1497 
Q 2881 1984 2565 2268 
Q 2250 2553 1709 2553 
Q 1456 2553 1204 2497 
Q 953 2441 691 2322 
L 691 4666 
z
" transform="scale(0.015625)"/>
       </defs>
       <use xlink:href="#DejaVuSans-35"/>
       <use xlink:href="#DejaVuSans-30" x="63.623047"/>
       <use xlink:href="#DejaVuSans-30" x="127.246094"/>
      </g>
     </g>
    </g>
    <g id="xtick_3">
     <g id="line2d_3">
      <g>
       <use xlink:href="#m1faf19d628" x="258.004994" y="307.584" style="stroke: #000000; stroke-width: 0.8"/>
      </g>
     </g>
     <g id="text_3">
      <!-- 1000 -->
      <g transform="translate(245.279994 322.182437) scale(0.1 -0.1)">
       <defs>
        <path id="DejaVuSans-31" d="M 794 531 
L 1825 531 
L 1825 4091 
L 703 3866 
L 703 4441 
L 1819 4666 
L 2450 4666 
L 2450 531 
L 3481 531 
L 3481 0 
L 794 0 
L 794 531 
z
" transform="scale(0.015625)"/>
       </defs>
       <use xlink:href="#DejaVuSans-31"/>
       <use xlink:href="#DejaVuSans-30" x="63.623047"/>
       <use xlink:href="#DejaVuSans-30" x="127.246094"/>
       <use xlink:href="#DejaVuSans-30" x="190.869141"/>
      </g>
     </g>
    </g>
    <g id="xtick_4">
     <g id="line2d_4">
      <g>
       <use xlink:href="#m1faf19d628" x="187.763855" y="307.584" style="stroke: #000000; stroke-width: 0.8"/>
      </g>
     </g>
     <g id="text_4">
      <!-- 1500 -->
      <g transform="translate(175.038855 322.182437) scale(0.1 -0.1)">
       <use xlink:href="#DejaVuSans-31"/>
       <use xlink:href="#DejaVuSans-35" x="63.623047"/>
       <use xlink:href="#DejaVuSans-30" x="127.246094"/>
       <use xlink:href="#DejaVuSans-30" x="190.869141"/>
      </g>
     </g>
    </g>
    <g id="xtick_5">
     <g id="line2d_5">
      <g>
       <use xlink:href="#m1faf19d628" x="117.522716" y="307.584" style="stroke: #000000; stroke-width: 0.8"/>
      </g>
     </g>
     <g id="text_5">
      <!-- 2000 -->
      <g transform="translate(104.797716 322.182437) scale(0.1 -0.1)">
       <defs>
        <path id="DejaVuSans-32" d="M 1228 531 
L 3431 531 
L 3431 0 
L 469 0 
L 469 531 
Q 828 903 1448 1529 
Q 2069 2156 2228 2338 
Q 2531 2678 2651 2914 
Q 2772 3150 2772 3378 
Q 2772 3750 2511 3984 
Q 2250 4219 1831 4219 
Q 1534 4219 1204 4116 
Q 875 4013 500 3803 
L 500 4441 
Q 881 4594 1212 4672 
Q 1544 4750 1819 4750 
Q 2544 4750 2975 4387 
Q 3406 4025 3406 3419 
Q 3406 3131 3298 2873 
Q 3191 2616 2906 2266 
Q 2828 2175 2409 1742 
Q 1991 1309 1228 531 
z
" transform="scale(0.015625)"/>
       </defs>
       <use xlink:href="#DejaVuSans-32"/>
       <use xlink:href="#DejaVuSans-30" x="63.623047"/>
       <use xlink:href="#DejaVuSans-30" x="127.246094"/>
       <use xlink:href="#DejaVuSans-30" x="190.869141"/>
      </g>
     </g>
    </g>
    <g id="text_6">
     <!-- Index -->
     <g transform="translate(222.393594 335.860562) scale(0.1 -0.1)">
      <defs>
       <path id="DejaVuSans-49" d="M 628 4666 
L 1259 4666 
L 1259 0 
L 628 0 
L 628 4666 
z
" transform="scale(0.015625)"/>
       <path id="DejaVuSans-6e" d="M 3513 2113 
L 3513 0 
L 2938 0 
L 2938 2094 
Q 2938 2591 2744 2837 
Q 2550 3084 2163 3084 
Q 1697 3084 1428 2787 
Q 1159 2491 1159 1978 
L 1159 0 
L 581 0 
L 581 3500 
L 1159 3500 
L 1159 2956 
Q 1366 3272 1645 3428 
Q 1925 3584 2291 3584 
Q 2894 3584 3203 3211 
Q 3513 2838 3513 2113 
z
" transform="scale(0.015625)"/>
       <path id="DejaVuSans-64" d="M 2906 2969 
L 2906 4863 
L 3481 4863 
L 3481 0 
L 2906 0 
L 2906 525 
Q 2725 213 2448 61 
Q 2172 -91 1784 -91 
Q 1150 -91 751 415 
Q 353 922 353 1747 
Q 353 2572 751 3078 
Q 1150 3584 1784 3584 
Q 2172 3584 2448 3432 
Q 2725 3281 2906 2969 
z
M 947 1747 
Q 947 1113 1208 752 
Q 1469 391 1925 391 
Q 2381 391 2643 752 
Q 2906 1113 2906 1747 
Q 2906 2381 2643 2742 
Q 2381 3103 1925 3103 
Q 1469 3103 1208 2742 
Q 947 2381 947 1747 
z
" transform="scale(0.015625)"/>
       <path id="DejaVuSans-65" d="M 3597 1894 
L 3597 1613 
L 953 1613 
Q 991 1019 1311 708 
Q 1631 397 2203 397 
Q 2534 397 2845 478 
Q 3156 559 3463 722 
L 3463 178 
Q 3153 47 2828 -22 
Q 2503 -91 2169 -91 
Q 1331 -91 842 396 
Q 353 884 353 1716 
Q 353 2575 817 3079 
Q 1281 3584 2069 3584 
Q 2775 3584 3186 3129 
Q 3597 2675 3597 1894 
z
M 3022 2063 
Q 3016 2534 2758 2815 
Q 2500 3097 2075 3097 
Q 1594 3097 1305 2825 
Q 1016 2553 972 2059 
L 3022 2063 
z
" transform="scale(0.015625)"/>
       <path id="DejaVuSans-78" d="M 3513 3500 
L 2247 1797 
L 3578 0 
L 2900 0 
L 1881 1375 
L 863 0 
L 184 0 
L 1544 1831 
L 300 3500 
L 978 3500 
L 1906 2253 
L 2834 3500 
L 3513 3500 
z
" transform="scale(0.015625)"/>
      </defs>
      <use xlink:href="#DejaVuSans-49"/>
      <use xlink:href="#DejaVuSans-6e" x="29.492188"/>
      <use xlink:href="#DejaVuSans-64" x="92.871094"/>
      <use xlink:href="#DejaVuSans-65" x="156.347656"/>
      <use xlink:href="#DejaVuSans-78" x="216.121094"/>
     </g>
    </g>
   </g>
   <g id="matplotlib.axis_2">
    <g id="ytick_1">
     <g id="line2d_6">
      <defs>
       <path id="m0a4e1bfa10" d="M 0 0 
L -3.5 0 
" style="stroke: #000000; stroke-width: 0.8"/>
      </defs>
      <g>
       <use xlink:href="#m0a4e1bfa10" x="57.6" y="262.132748" style="stroke: #000000; stroke-width: 0.8"/>
      </g>
     </g>
     <g id="text_7">
      <!-- 0.0 -->
      <g transform="translate(34.696875 265.931967) scale(0.1 -0.1)">
       <defs>
        <path id="DejaVuSans-2e" d="M 684 794 
L 1344 794 
L 1344 0 
L 684 0 
L 684 794 
z
" transform="scale(0.015625)"/>
       </defs>
       <use xlink:href="#DejaVuSans-30"/>
       <use xlink:href="#DejaVuSans-2e" x="63.623047"/>
       <use xlink:href="#DejaVuSans-30" x="95.410156"/>
      </g>
     </g>
    </g>
    <g id="ytick_2">
     <g id="line2d_7">
      <g>
       <use xlink:href="#m0a4e1bfa10" x="57.6" y="214.791475" style="stroke: #000000; stroke-width: 0.8"/>
      </g>
     </g>
     <g id="text_8">
      <!-- 0.2 -->
      <g transform="translate(34.696875 218.590693) scale(0.1 -0.1)">
       <use xlink:href="#DejaVuSans-30"/>
       <use xlink:href="#DejaVuSans-2e" x="63.623047"/>
       <use xlink:href="#DejaVuSans-32" x="95.410156"/>
      </g>
     </g>
    </g>
    <g id="ytick_3">
     <g id="line2d_8">
      <g>
       <use xlink:href="#m0a4e1bfa10" x="57.6" y="167.450201" style="stroke: #000000; stroke-width: 0.8"/>
      </g>
     </g>
     <g id="text_9">
      <!-- 0.4 -->
      <g transform="translate(34.696875 171.24942) scale(0.1 -0.1)">
       <defs>
        <path id="DejaVuSans-34" d="M 2419 4116 
L 825 1625 
L 2419 1625 
L 2419 4116 
z
M 2253 4666 
L 3047 4666 
L 3047 1625 
L 3713 1625 
L 3713 1100 
L 3047 1100 
L 3047 0 
L 2419 0 
L 2419 1100 
L 313 1100 
L 313 1709 
L 2253 4666 
z
" transform="scale(0.015625)"/>
       </defs>
       <use xlink:href="#DejaVuSans-30"/>
       <use xlink:href="#DejaVuSans-2e" x="63.623047"/>
       <use xlink:href="#DejaVuSans-34" x="95.410156"/>
      </g>
     </g>
    </g>
    <g id="ytick_4">
     <g id="line2d_9">
      <g>
       <use xlink:href="#m0a4e1bfa10" x="57.6" y="120.108928" style="stroke: #000000; stroke-width: 0.8"/>
      </g>
     </g>
     <g id="text_10">
      <!-- 0.6 -->
      <g transform="translate(34.696875 123.908147) scale(0.1 -0.1)">
       <defs>
        <path id="DejaVuSans-36" d="M 2113 2584 
Q 1688 2584 1439 2293 
Q 1191 2003 1191 1497 
Q 1191 994 1439 701 
Q 1688 409 2113 409 
Q 2538 409 2786 701 
Q 3034 994 3034 1497 
Q 3034 2003 2786 2293 
Q 2538 2584 2113 2584 
z
M 3366 4563 
L 3366 3988 
Q 3128 4100 2886 4159 
Q 2644 4219 2406 4219 
Q 1781 4219 1451 3797 
Q 1122 3375 1075 2522 
Q 1259 2794 1537 2939 
Q 1816 3084 2150 3084 
Q 2853 3084 3261 2657 
Q 3669 2231 3669 1497 
Q 3669 778 3244 343 
Q 2819 -91 2113 -91 
Q 1303 -91 875 529 
Q 447 1150 447 2328 
Q 447 3434 972 4092 
Q 1497 4750 2381 4750 
Q 2619 4750 2861 4703 
Q 3103 4656 3366 4563 
z
" transform="scale(0.015625)"/>
       </defs>
       <use xlink:href="#DejaVuSans-30"/>
       <use xlink:href="#DejaVuSans-2e" x="63.623047"/>
       <use xlink:href="#DejaVuSans-36" x="95.410156"/>
      </g>
     </g>
    </g>
    <g id="ytick_5">
     <g id="line2d_10">
      <g>
       <use xlink:href="#m0a4e1bfa10" x="57.6" y="72.767655" style="stroke: #000000; stroke-width: 0.8"/>
      </g>
     </g>
     <g id="text_11">
      <!-- 0.8 -->
      <g transform="translate(34.696875 76.566873) scale(0.1 -0.1)">
       <defs>
        <path id="DejaVuSans-38" d="M 2034 2216 
Q 1584 2216 1326 1975 
Q 1069 1734 1069 1313 
Q 1069 891 1326 650 
Q 1584 409 2034 409 
Q 2484 409 2743 651 
Q 3003 894 3003 1313 
Q 3003 1734 2745 1975 
Q 2488 2216 2034 2216 
z
M 1403 2484 
Q 997 2584 770 2862 
Q 544 3141 544 3541 
Q 544 4100 942 4425 
Q 1341 4750 2034 4750 
Q 2731 4750 3128 4425 
Q 3525 4100 3525 3541 
Q 3525 3141 3298 2862 
Q 3072 2584 2669 2484 
Q 3125 2378 3379 2068 
Q 3634 1759 3634 1313 
Q 3634 634 3220 271 
Q 2806 -91 2034 -91 
Q 1263 -91 848 271 
Q 434 634 434 1313 
Q 434 1759 690 2068 
Q 947 2378 1403 2484 
z
M 1172 3481 
Q 1172 3119 1398 2916 
Q 1625 2713 2034 2713 
Q 2441 2713 2670 2916 
Q 2900 3119 2900 3481 
Q 2900 3844 2670 4047 
Q 2441 4250 2034 4250 
Q 1625 4250 1398 4047 
Q 1172 3844 1172 3481 
z
" transform="scale(0.015625)"/>
       </defs>
       <use xlink:href="#DejaVuSans-30"/>
       <use xlink:href="#DejaVuSans-2e" x="63.623047"/>
       <use xlink:href="#DejaVuSans-38" x="95.410156"/>
      </g>
     </g>
    </g>
    <g id="text_12">
     <!-- Value -->
     <g transform="translate(28.617188 188.25925) rotate(-90) scale(0.1 -0.1)">
      <defs>
       <path id="DejaVuSans-56" d="M 1831 0 
L 50 4666 
L 709 4666 
L 2188 738 
L 3669 4666 
L 4325 4666 
L 2547 0 
L 1831 0 
z
" transform="scale(0.015625)"/>
       <path id="DejaVuSans-61" d="M 2194 1759 
Q 1497 1759 1228 1600 
Q 959 1441 959 1056 
Q 959 750 1161 570 
Q 1363 391 1709 391 
Q 2188 391 2477 730 
Q 2766 1069 2766 1631 
L 2766 1759 
L 2194 1759 
z
M 3341 1997 
L 3341 0 
L 2766 0 
L 2766 531 
Q 2569 213 2275 61 
Q 1981 -91 1556 -91 
Q 1019 -91 701 211 
Q 384 513 384 1019 
Q 384 1609 779 1909 
Q 1175 2209 1959 2209 
L 2766 2209 
L 2766 2266 
Q 2766 2663 2505 2880 
Q 2244 3097 1772 3097 
Q 1472 3097 1187 3025 
Q 903 2953 641 2809 
L 641 3341 
Q 956 3463 1253 3523 
Q 1550 3584 1831 3584 
Q 2591 3584 2966 3190 
Q 3341 2797 3341 1997 
z
" transform="scale(0.015625)"/>
       <path id="DejaVuSans-6c" d="M 603 4863 
L 1178 4863 
L 1178 0 
L 603 0 
L 603 4863 
z
" transform="scale(0.015625)"/>
       <path id="DejaVuSans-75" d="M 544 1381 
L 544 3500 
L 1119 3500 
L 1119 1403 
Q 1119 906 1312 657 
Q 1506 409 1894 409 
Q 2359 409 2629 706 
Q 2900 1003 2900 1516 
L 2900 3500 
L 3475 3500 
L 3475 0 
L 2900 0 
L 2900 538 
Q 2691 219 2414 64 
Q 2138 -91 1772 -91 
Q 1169 -91 856 284 
Q 544 659 544 1381 
z
M 1991 3584 
L 1991 3584 
z
" transform="scale(0.015625)"/>
      </defs>
      <use xlink:href="#DejaVuSans-56"/>
      <use xlink:href="#DejaVuSans-61" x="60.658203"/>
      <use xlink:href="#DejaVuSans-6c" x="121.9375"/>
      <use xlink:href="#DejaVuSans-75" x="149.720703"/>
      <use xlink:href="#DejaVuSans-65" x="213.099609"/>
     </g>
    </g>
   </g>
   <g id="line2d_11">
    <path d="M 398.487273 108.135531 
L 396.661003 120.400469 
L 395.537145 126.804488 
L 393.99184 124.670317 
L 392.587017 122.710757 
L 390.90123 110.876929 
L 388.793996 97.153987 
L 388.232066 93.303206 
L 386.405797 77.835958 
L 386.124832 75.474792 
L 385.422421 65.638457 
L 382.753258 62.976237 
L 382.612775 63.143021 
L 381.06747 75.701485 
L 378.819754 82.823217 
L 378.257825 84.564212 
L 378.117342 84.589501 
L 375.026732 78.968824 
L 374.88625 79.036862 
L 371.936122 83.673394 
L 371.655158 81.944742 
L 369.547923 66.700274 
L 368.70503 60.61477 
L 368.002618 67.592297 
L 366.035866 86.37174 
L 365.473937 91.500495 
L 363.226221 91.582081 
L 362.242845 91.695277 
L 362.102363 91.725984 
L 361.399951 88.088651 
L 359.714164 79.810872 
L 357.747412 71.482516 
L 357.045001 69.079202 
L 354.235355 67.495658 
L 351.847156 80.300084 
L 351.144745 83.824222 
L 350.020887 85.124173 
L 349.739922 85.492362 
L 347.913652 76.925571 
L 346.789794 72.016284 
L 344.120631 78.606957 
L 340.889539 85.74043 
L 339.344234 88.547156 
L 339.203751 88.768129 
L 338.922787 90.011181 
L 337.939411 95.171547 
L 336.253623 97.339135 
L 334.848801 99.198444 
L 334.708318 98.712543 
L 332.741566 85.328588 
L 331.196261 76.102489 
L 329.510474 67.608855 
L 327.965169 60.061733 
L 327.122275 53.568 
L 326.841311 56.418981 
L 324.734077 79.905704 
L 323.469736 92.355187 
L 321.783949 103.340946 
L 319.255268 96.422125 
L 318.412374 94.312339 
L 316.024175 93.083437 
L 315.321764 92.889257 
L 315.181282 92.629748 
L 313.495494 85.516446 
L 311.669225 78.636159 
L 311.38826 78.183073 
L 310.12392 76.672384 
L 309.842955 77.853118 
L 307.735721 88.474903 
L 306.752345 92.834164 
L 304.223664 99.81711 
L 303.661735 101.363323 
L 301.835465 70.800929 
L 299.306784 93.968535 
L 298.744855 98.052633 
L 297.340032 97.245206 
L 296.778103 98.812192 
L 294.389904 105.729207 
L 294.10894 105.399854 
L 291.158812 101.442801 
L 289.19206 110.96032 
L 287.36579 124.210005 
L 285.960968 133.816335 
L 285.820485 133.92351 
L 283.291804 121.243119 
L 281.465535 113.024647 
L 281.044088 111.074721 
L 280.622641 107.156504 
L 278.796372 96.318562 
L 276.970102 86.775453 
L 275.705761 81.663558 
L 275.565279 81.591606 
L 272.755634 93.179774 
L 270.788882 101.297392 
L 268.119718 112.839198 
L 264.888626 93.960407 
L 264.748144 94.197938 
L 262.500427 116.496401 
L 261.938498 121.494198 
L 260.112228 129.030782 
L 259.971746 129.10454 
L 258.285959 124.388229 
L 256.319207 116.034885 
L 255.195349 111.50011 
L 253.650044 114.051542 
L 253.088115 114.93062 
L 250.840398 127.981007 
L 249.576058 134.918193 
L 247.468823 127.400575 
L 245.923518 122.500922 
L 243.956766 124.390336 
L 239.601816 130.308756 
L 236.932653 133.671829 
L 235.387347 139.220554 
L 235.246865 139.003494 
L 233.70156 134.548197 
L 232.43722 131.500026 
L 232.015773 130.623658 
L 230.61095 121.990937 
L 230.049021 118.464993 
L 227.941787 138.911673 
L 226.396482 151.980124 
L 225.975035 155.756243 
L 224.289247 198.761798 
L 221.620084 184.419889 
L 220.355744 178.268755 
L 218.529474 158.003611 
L 215.017417 159.841846 
L 214.455488 160.188961 
L 212.629218 146.310977 
L 209.538608 134.439818 
L 209.398126 133.79767 
L 209.257644 133.82055 
L 207.15041 173.318224 
L 205.043175 157.451779 
L 201.390636 131.13846 
L 200.969189 132.980308 
L 196.754721 152.438027 
L 195.349898 158.452783 
L 194.787969 159.121123 
L 193.102182 160.819669 
L 189.449642 164.121026 
L 187.623373 150.469736 
L 186.359032 148.931952 
L 185.375656 148.031199 
L 184.673245 147.683181 
L 184.532763 147.639528 
L 184.39228 147.128037 
L 182.425529 125.71377 
L 180.599259 130.769669 
L 180.177812 131.848346 
L 177.227684 156.492621 
L 176.244308 163.914202 
L 174.418039 142.137767 
L 174.277556 141.391153 
L 173.29418 141.509769 
L 172.591769 141.352317 
L 172.170322 141.114786 
L 171.748875 147.081675 
L 169.922606 173.499459 
L 166.129584 181.239254 
L 165.84862 179.326057 
L 164.443797 168.786158 
L 162.477045 160.455996 
L 160.229329 151.477363 
L 157.700647 167.596393 
L 156.436307 174.82801 
L 154.610037 180.869861 
L 152.362321 179.918832 
L 151.65991 179.406137 
L 151.09798 178.859724 
L 149.974122 193.073685 
L 149.412193 199.371432 
L 147.023994 189.282513 
L 145.338207 188.731584 
L 144.635796 188.602432 
L 144.354831 187.806746 
L 142.247597 180.419183 
L 140.280845 182.750545 
L 137.892646 185.330878 
L 135.504448 180.151246 
L 133.678178 174.525451 
L 131.430461 171.849382 
L 130.447085 170.916717 
L 129.604192 170.368197 
L 129.182745 170.195693 
L 128.058887 161.890217 
L 126.794546 150.837022 
L 124.968277 151.995477 
L 123.422972 153.152728 
L 123.142007 153.586848 
L 121.45622 156.645857 
L 120.613326 156.871046 
L 119.910915 157.207323 
L 119.068021 150.556439 
L 116.398858 148.591761 
L 116.117893 150.353228 
L 113.729694 170.074368 
L 111.62246 189.984871 
L 110.639084 198.291852 
L 107.829439 259.889595 
L 107.688956 262.132748 
L 104.317382 260.98784 
L 104.036417 260.439621 
L 101.086289 253.26099 
L 98.417126 247.142972 
L 97.43375 247.186022 
L 96.590856 247.388933 
L 96.309892 247.498817 
L 96.16941 246.99124 
L 92.095423 219.987906 
L 89.707225 217.545456 
L 89.566742 217.55509 
L 88.021437 221.653036 
L 86.476132 218.021723 
L 85.492756 215.807471 
L 83.666487 205.244994 
L 83.24504 203.030441 
L 83.104558 202.882624 
L 81.840217 208.682127 
L 81.278288 211.094773 
L 81.137806 170.077981 
L 79.732983 169.045366 
L 78.749607 170.370605 
L 76.501891 174.870759 
L 74.394656 180.533885 
L 73.832727 182.867053 
L 73.832727 182.867053 
" clip-path="url(#p85e6ddb45c)" style="fill: none; stroke: #1f77b4; stroke-width: 1.5; stroke-linecap: square"/>
   </g>
   <g id="line2d_12">
    <path d="M 398.487273 98.320772 
L 397.784861 105.62817 
L 397.644379 105.338865 
L 397.503897 105.466119 
L 397.363414 108.241817 
L 397.222932 107.853191 
L 397.08245 107.015927 
L 396.941968 107.407605 
L 396.801485 107.15007 
L 396.661003 105.987208 
L 396.520521 105.91693 
L 396.099074 109.867012 
L 395.818109 113.171699 
L 395.537145 115.273183 
L 395.115698 110.766234 
L 394.975216 111.364591 
L 394.834733 109.853942 
L 394.694251 110.579117 
L 394.553769 110.485499 
L 394.413287 109.942366 
L 394.272804 109.886397 
L 394.132322 109.427817 
L 393.99184 109.814692 
L 393.851358 109.501355 
L 393.710875 109.737891 
L 393.570393 111.256049 
L 393.008464 107.381416 
L 392.587017 110.680936 
L 392.16557 109.613305 
L 391.744123 106.452154 
L 391.463159 102.663288 
L 391.322677 101.725015 
L 391.182194 101.894268 
L 391.041712 100.951157 
L 390.90123 100.831637 
L 390.760747 100.395042 
L 390.620265 98.564267 
L 390.479783 99.20443 
L 390.339301 98.773389 
L 390.198818 97.589036 
L 390.058336 97.967221 
L 389.777371 94.985727 
L 389.496407 91.016245 
L 389.215442 87.879291 
L 389.07496 87.597256 
L 388.934478 87.71484 
L 388.793996 87.656507 
L 388.653513 88.597862 
L 388.513031 88.359525 
L 388.372549 90.121707 
L 388.232066 90.18931 
L 387.81062 86.32538 
L 387.670137 86.015386 
L 387.529655 84.082458 
L 387.24869 83.734401 
L 386.686761 77.559266 
L 386.546279 77.429895 
L 386.405797 78.831301 
L 386.265315 78.449861 
L 385.843868 74.806367 
L 385.281939 65.799028 
L 384.860492 68.668056 
L 384.720009 68.903185 
L 384.579527 70.209828 
L 384.017598 65.044728 
L 383.877116 64.723764 
L 383.736633 64.901288 
L 383.455669 67.467578 
L 383.174704 69.331314 
L 382.89374 66.345559 
L 382.753258 66.913228 
L 382.612775 66.67227 
L 382.472293 66.730489 
L 382.331811 68.885756 
L 382.191328 69.111167 
L 382.050846 68.563532 
L 381.769882 70.68667 
L 381.629399 70.515359 
L 381.348435 72.201853 
L 380.786506 78.106831 
L 380.224577 73.504386 
L 379.943612 75.260901 
L 379.662647 76.704983 
L 379.522165 78.928961 
L 379.241201 76.988003 
L 378.960236 75.857655 
L 378.819754 74.559191 
L 378.679271 74.741684 
L 378.257825 86.37315 
L 377.555413 79.121657 
L 377.414931 79.308954 
L 377.274449 78.629293 
L 376.993484 79.41188 
L 376.71252 79.303594 
L 376.572037 77.130905 
L 375.869626 81.087143 
L 375.729144 79.995264 
L 375.307697 71.613962 
L 374.745768 75.491884 
L 374.605285 76.918368 
L 374.464803 76.606965 
L 374.183839 78.347674 
L 373.762392 77.441063 
L 373.481427 79.370731 
L 373.340945 78.785542 
L 373.05998 79.743631 
L 372.919498 79.368382 
L 372.779016 81.299307 
L 372.638533 81.241268 
L 372.357569 78.425568 
L 372.217087 78.058859 
L 372.076604 78.47731 
L 371.79564 79.843122 
L 371.233711 77.559947 
L 370.812264 73.369641 
L 370.531299 71.667069 
L 370.390817 72.570302 
L 369.828888 66.887864 
L 369.688406 66.942166 
L 369.407441 67.256907 
L 368.845512 63.010343 
L 368.70503 61.966328 
L 368.424065 63.610622 
L 368.283583 63.451291 
L 367.581171 72.862012 
L 367.440689 72.237876 
L 367.300207 72.437265 
L 366.87876 76.019079 
L 366.738278 76.620643 
L 366.597796 78.671558 
L 366.457313 78.664191 
L 366.176349 81.227768 
L 365.895384 81.915547 
L 365.754902 82.310754 
L 365.473937 84.436269 
L 365.333455 84.015339 
L 365.192973 84.503424 
L 365.05249 86.903217 
L 364.912008 85.889403 
L 364.631044 83.059725 
L 364.350079 83.172207 
L 364.209597 83.173038 
L 364.069115 84.950047 
L 363.928632 85.16276 
L 363.647668 84.325107 
L 363.507185 85.225386 
L 363.366703 85.390615 
L 363.085739 84.311475 
L 362.945256 86.128072 
L 362.664292 86.635972 
L 362.523809 86.28421 
L 362.383327 86.597119 
L 362.242845 85.958583 
L 361.96188 83.125927 
L 361.821398 81.906429 
L 361.540433 81.979528 
L 360.69754 77.908602 
L 360.416575 76.039591 
L 360.276093 75.936794 
L 360.135611 75.034664 
L 359.714164 68.958612 
L 359.573682 68.575174 
L 359.433199 67.545459 
L 359.152235 71.832272 
L 358.87127 83.253621 
L 358.590306 76.153507 
L 358.449823 75.512204 
L 358.309341 74.255358 
L 358.028377 69.84789 
L 357.747412 68.185055 
L 357.60693 66.281229 
L 357.325965 65.601268 
L 357.045001 68.150858 
L 356.904518 70.803216 
L 356.623554 71.541627 
L 356.483071 70.640633 
L 356.202107 66.818925 
L 355.921142 57.10864 
L 355.640178 62.66237 
L 355.499696 63.593021 
L 355.359213 63.554073 
L 355.078249 65.556479 
L 354.937766 65.441449 
L 354.656802 68.847438 
L 354.51632 68.928789 
L 354.375837 69.906042 
L 354.235355 68.683547 
L 354.094873 68.514305 
L 353.813908 70.117314 
L 353.673426 70.275862 
L 353.532944 71.066988 
L 353.392461 70.944933 
L 353.251979 71.208169 
L 353.111497 70.467515 
L 352.971015 71.024532 
L 352.69005 73.115785 
L 352.549568 72.851238 
L 352.409085 73.655262 
L 352.128121 76.271886 
L 351.987639 77.325443 
L 351.847156 76.445822 
L 351.566192 76.125172 
L 351.425709 75.614174 
L 351.144745 80.059218 
L 351.004263 79.299231 
L 350.86378 79.164726 
L 350.723298 79.94934 
L 350.582816 79.911713 
L 350.301851 79.445003 
L 350.161369 79.271695 
L 349.880404 77.552008 
L 349.739922 78.240155 
L 349.458958 80.587245 
L 349.177993 76.914793 
L 349.037511 76.995047 
L 348.756546 75.957655 
L 348.475582 77.413573 
L 348.054135 73.716695 
L 347.913652 73.551254 
L 347.77317 72.295835 
L 347.632688 73.328789 
L 347.492206 73.248042 
L 347.351723 72.820402 
L 347.211241 73.216327 
L 347.070759 73.110478 
L 346.930277 72.586217 
L 346.789794 70.604114 
L 346.649312 70.377579 
L 346.50883 68.861588 
L 345.946901 74.253328 
L 345.806418 74.467808 
L 345.384971 71.360958 
L 345.104007 72.589186 
L 344.963525 75.340837 
L 344.823042 75.260687 
L 344.68256 76.132364 
L 344.542078 75.092727 
L 344.401596 75.869052 
L 344.261113 74.755121 
L 344.120631 74.677994 
L 343.980149 74.277577 
L 343.558702 78.462933 
L 343.41822 78.833207 
L 342.996773 76.487774 
L 342.575326 78.492618 
L 342.434844 78.326924 
L 342.153879 78.570129 
L 342.013397 75.874026 
L 341.872915 77.431865 
L 341.732432 77.631237 
L 341.59195 80.422302 
L 341.451468 80.215091 
L 341.170503 81.900072 
L 341.030021 81.644236 
L 340.889539 80.877945 
L 340.749056 81.008266 
L 340.608574 80.612939 
L 340.468092 80.678915 
L 340.327609 80.984483 
L 340.046645 82.301384 
L 339.906163 81.500589 
L 339.76568 82.066095 
L 339.344234 85.237596 
L 339.203751 84.711667 
L 338.922787 85.509834 
L 338.782304 85.792804 
L 338.50134 85.06032 
L 338.220375 85.827096 
L 337.939411 88.406012 
L 337.658446 87.915991 
L 337.517964 88.219043 
L 337.377482 88.230775 
L 337.236999 89.376591 
L 337.096517 89.082468 
L 336.956035 89.748454 
L 336.534588 88.620582 
L 336.394106 88.23107 
L 336.253623 88.426107 
L 335.691694 90.514717 
L 335.270247 92.499582 
L 335.129765 92.535236 
L 334.848801 92.195359 
L 334.708318 92.086668 
L 334.567836 91.423719 
L 334.427354 91.604281 
L 334.146389 87.348781 
L 334.005907 86.836261 
L 333.865425 87.056081 
L 333.724942 86.508072 
L 333.58446 86.863751 
L 333.303496 85.601027 
L 333.163013 85.658526 
L 332.741566 80.600524 
L 332.601084 81.591994 
L 332.460602 81.2125 
L 332.32012 79.992013 
L 332.179637 80.127517 
L 332.039155 78.683012 
L 331.898673 78.640112 
L 331.477226 75.833788 
L 331.336744 75.788731 
L 331.055779 74.309631 
L 330.915297 73.5412 
L 330.774815 74.280559 
L 330.634332 73.84083 
L 330.49385 74.201313 
L 329.791439 70.683182 
L 329.510474 68.047112 
L 329.369992 67.492284 
L 329.229509 66.281572 
L 329.089027 66.334612 
L 328.948545 66.165467 
L 328.66758 67.370671 
L 328.527098 65.937603 
L 328.246134 67.080319 
L 328.105651 66.96413 
L 327.824687 64.303606 
L 327.122275 57.765809 
L 326.981793 58.116733 
L 326.841311 60.610914 
L 326.700828 60.286863 
L 325.998417 74.962864 
L 325.717452 70.8377 
L 325.015041 76.534082 
L 324.874559 76.706821 
L 324.31263 82.389385 
L 324.031665 84.993591 
L 323.891183 85.141331 
L 323.610218 88.852937 
L 323.469736 88.810503 
L 323.329254 88.333631 
L 323.188771 88.35949 
L 323.048289 84.679167 
L 322.48636 93.27525 
L 322.345878 93.008286 
L 321.924431 95.218288 
L 321.783949 95.302129 
L 321.643466 93.139672 
L 321.502984 94.35226 
L 321.362502 93.265221 
L 321.22202 93.393127 
L 320.941055 95.574434 
L 320.800573 96.983695 
L 320.66009 95.784395 
L 320.519608 95.57732 
L 320.238644 90.944292 
L 319.676715 93.413151 
L 319.536232 92.143304 
L 319.39575 92.510359 
L 319.255268 91.39677 
L 319.114785 91.474369 
L 318.974303 91.028116 
L 318.833821 91.237704 
L 318.693339 92.489058 
L 318.552856 91.934022 
L 318.412374 92.242286 
L 318.271892 91.440522 
L 317.990927 88.489095 
L 317.850445 87.150708 
L 317.709963 87.247752 
L 317.56948 87.520317 
L 317.148034 93.068413 
L 316.586104 85.550204 
L 316.445622 83.338018 
L 316.164658 87.047196 
L 315.883693 98.07405 
L 315.462246 90.333303 
L 315.321764 89.342864 
L 315.181282 89.248905 
L 315.040799 88.434395 
L 314.900317 86.587541 
L 314.759835 86.415671 
L 314.619353 86.909183 
L 314.47887 86.257646 
L 314.057423 82.767329 
L 313.916941 82.544745 
L 313.635977 87.691417 
L 313.355012 92.312712 
L 313.074047 81.931269 
L 312.933565 75.119752 
L 312.793083 76.340967 
L 312.512118 79.770027 
L 312.231154 81.935158 
L 311.809707 80.25257 
L 311.38826 76.439947 
L 311.107296 81.854821 
L 310.826331 89.293731 
L 310.404884 75.949145 
L 310.264402 76.261937 
L 310.12392 76.213913 
L 309.702473 81.889977 
L 309.56199 82.013974 
L 309.421508 81.629179 
L 309.281026 82.022541 
L 309.140544 82.785135 
L 309.000061 85.850524 
L 308.859579 85.756288 
L 308.719097 86.737017 
L 308.438132 91.265405 
L 308.29765 90.556652 
L 307.876203 80.227018 
L 307.595239 84.478856 
L 307.314274 90.818744 
L 307.173792 92.86733 
L 307.033309 92.922102 
L 306.892827 95.606819 
L 306.611863 94.883831 
L 306.47138 95.834476 
L 306.190416 96.083507 
L 306.049934 94.384716 
L 305.909451 95.538846 
L 305.628487 94.14403 
L 305.066558 98.087258 
L 304.926075 97.412503 
L 304.785593 98.163037 
L 304.645111 97.857715 
L 304.364146 96.020058 
L 304.223664 95.663404 
L 303.942699 99.573532 
L 303.802217 99.202471 
L 303.661735 99.42603 
L 303.38077 97.52324 
L 302.959323 91.052855 
L 302.397394 84.104635 
L 302.256912 83.175544 
L 302.11643 83.341787 
L 301.835465 79.981573 
L 301.273536 87.539714 
L 300.992571 82.6163 
L 300.571125 85.780274 
L 300.430642 86.032653 
L 300.29016 87.731072 
L 300.009196 93.577831 
L 299.728231 96.867182 
L 299.587749 97.133931 
L 299.306784 98.088166 
L 299.166302 95.750501 
L 298.744855 100.520863 
L 298.604373 100.313347 
L 298.323408 97.867176 
L 298.182926 98.016842 
L 297.761479 101.180405 
L 297.340032 102.411621 
L 297.19955 99.023724 
L 296.918585 98.212515 
L 296.778103 98.913386 
L 296.637621 100.793739 
L 296.356656 101.41404 
L 296.216174 103.970318 
L 296.075692 104.145837 
L 295.935209 103.849864 
L 295.794727 102.162092 
L 295.654245 102.719509 
L 295.232798 105.94378 
L 295.092316 106.2269 
L 294.951834 106.065952 
L 294.530387 102.845364 
L 294.389904 102.928222 
L 294.10894 107.933844 
L 293.968458 108.48546 
L 293.547011 104.45686 
L 293.406528 104.807617 
L 293.266046 104.510062 
L 292.985082 107.349759 
L 292.844599 107.781994 
L 292.704117 107.14406 
L 292.563635 107.278461 
L 292.423153 107.144836 
L 292.142188 102.921982 
L 292.001706 102.707605 
L 291.580259 106.150972 
L 291.439777 105.439499 
L 291.158812 102.344446 
L 290.737365 104.0202 
L 290.456401 104.049966 
L 290.175436 107.33485 
L 290.034954 109.429143 
L 289.473025 106.584705 
L 289.19206 110.570919 
L 288.489649 115.841045 
L 288.349166 115.746243 
L 288.208684 115.81245 
L 288.068202 116.711775 
L 287.646755 121.369791 
L 287.506273 121.566201 
L 287.36579 121.034749 
L 287.084826 118.336863 
L 286.803861 122.955968 
L 286.663379 122.42774 
L 286.382415 123.742046 
L 286.10145 125.548397 
L 285.680003 130.850076 
L 285.399039 128.649833 
L 285.258556 127.772526 
L 284.977592 124.546716 
L 284.696627 122.809853 
L 284.556145 122.790224 
L 284.134698 118.510313 
L 283.853734 118.999485 
L 283.572769 127.136728 
L 283.432287 126.402601 
L 282.870358 117.224357 
L 282.729875 113.676302 
L 282.448911 115.124627 
L 282.308428 114.641242 
L 282.167946 116.399592 
L 282.027464 116.559979 
L 281.886982 115.833268 
L 281.606017 116.813169 
L 281.465535 119.551036 
L 281.325053 120.004514 
L 281.18457 119.190851 
L 280.903606 114.158891 
L 280.622641 106.887899 
L 280.201194 110.701482 
L 280.060712 111.147898 
L 279.779747 109.306225 
L 279.639265 110.236967 
L 279.498783 109.869684 
L 279.358301 109.927397 
L 279.217818 109.632953 
L 279.077336 107.983689 
L 278.936854 107.770353 
L 278.796372 106.034558 
L 278.655889 105.711767 
L 278.515407 103.927461 
L 278.374925 104.218003 
L 278.234442 104.006001 
L 277.953478 106.602984 
L 277.812996 106.532363 
L 277.251066 99.883258 
L 277.110584 100.249857 
L 276.970102 99.203243 
L 276.82962 99.845274 
L 276.689137 98.675592 
L 276.408173 99.699325 
L 276.127208 97.21128 
L 275.986726 97.684465 
L 275.846244 97.765251 
L 275.424797 90.845112 
L 275.284315 91.711413 
L 275.143832 93.698892 
L 274.862868 100.698519 
L 274.722385 104.468636 
L 274.300939 99.894959 
L 274.160456 98.992724 
L 273.879492 100.09331 
L 273.598527 105.232216 
L 273.458045 102.80976 
L 273.317563 103.110443 
L 273.17708 104.208757 
L 273.036598 103.821995 
L 272.896116 103.825227 
L 272.474669 110.94938 
L 272.334187 112.041361 
L 272.193704 110.691707 
L 271.91274 103.193551 
L 271.772258 100.406168 
L 271.069846 112.864187 
L 270.929364 112.845902 
L 270.648399 109.152898 
L 270.367435 113.376857 
L 269.945988 115.081715 
L 269.805506 114.28256 
L 269.665023 115.657278 
L 269.524541 114.678384 
L 269.384059 115.479493 
L 269.243577 115.507713 
L 269.103094 115.219654 
L 268.962612 117.150767 
L 268.82213 117.398143 
L 268.681647 117.044097 
L 268.400683 117.945642 
L 268.260201 119.55916 
L 267.979236 126.632778 
L 267.838754 124.555221 
L 267.557789 118.862397 
L 267.417307 118.491931 
L 267.136342 116.419801 
L 266.855378 117.297584 
L 266.714896 116.721259 
L 266.574413 117.116392 
L 266.293449 115.895973 
L 266.152966 117.003455 
L 265.872002 114.070152 
L 265.591037 114.87906 
L 265.450555 114.401794 
L 265.310073 111.78522 
L 265.029108 103.437493 
L 264.186215 117.149275 
L 264.045732 116.475613 
L 263.90525 117.964142 
L 263.764768 117.961361 
L 263.343321 122.987249 
L 263.202839 123.00719 
L 262.781392 128.023898 
L 262.640909 127.174942 
L 262.500427 127.676772 
L 262.219463 132.063863 
L 262.07898 131.880193 
L 261.798016 132.64746 
L 261.657534 132.225726 
L 261.517051 132.414172 
L 261.376569 131.128674 
L 261.095604 134.774182 
L 260.955122 133.680764 
L 260.81464 134.032556 
L 260.533675 136.057343 
L 260.393193 134.73581 
L 260.112228 136.035768 
L 259.831264 135.056743 
L 259.690782 136.857951 
L 259.550299 136.92903 
L 259.409817 135.25483 
L 259.128853 134.845096 
L 258.98837 134.091237 
L 258.566923 135.630217 
L 258.426441 137.208247 
L 258.145477 132.998697 
L 258.004994 132.373416 
L 257.864512 133.398861 
L 257.72403 132.125364 
L 257.443065 132.023979 
L 257.302583 132.78427 
L 257.162101 130.426108 
L 257.021618 130.322122 
L 256.459689 127.360716 
L 256.319207 127.43497 
L 256.178725 127.261826 
L 256.038242 126.13185 
L 255.757278 120.330072 
L 255.335831 107.871047 
L 255.195349 109.261062 
L 254.914384 129.969783 
L 254.773902 147.719887 
L 254.07149 111.058863 
L 253.931008 108.953938 
L 253.790526 109.476482 
L 253.650044 114.869573 
L 253.369079 143.674888 
L 253.088115 133.570381 
L 252.947632 130.742504 
L 252.666668 132.066021 
L 252.385703 139.864516 
L 252.245221 140.23402 
L 252.104739 135.056714 
L 251.823774 103.620476 
L 250.98088 151.224244 
L 250.840398 149.963049 
L 250.699916 145.483637 
L 250.418951 117.85266 
L 249.997504 136.887169 
L 249.71654 145.912816 
L 249.576058 145.626499 
L 249.435575 145.156224 
L 249.154611 143.006285 
L 249.014128 143.958338 
L 248.873646 143.774696 
L 248.733164 144.460565 
L 248.452199 141.677017 
L 248.311717 141.558599 
L 248.030753 139.601316 
L 247.89027 140.317376 
L 247.609306 138.389085 
L 247.328341 142.429592 
L 247.187859 143.012638 
L 247.047377 144.407613 
L 246.766412 139.174672 
L 246.62593 138.567201 
L 246.485447 138.735041 
L 246.344965 140.338211 
L 246.204483 140.221115 
L 246.064001 140.407367 
L 245.923518 140.928461 
L 245.783036 139.897987 
L 245.642554 140.775227 
L 245.502072 138.924873 
L 245.221107 138.39405 
L 244.940142 140.577326 
L 244.659178 141.550992 
L 244.097249 137.019772 
L 243.956766 137.46997 
L 243.53532 141.70561 
L 243.394837 141.328282 
L 243.113873 142.708704 
L 242.973391 140.67379 
L 242.692426 141.83763 
L 242.411461 142.776624 
L 242.270979 144.244442 
L 242.130497 144.425638 
L 241.990015 145.030392 
L 241.568568 143.803824 
L 241.287603 144.270163 
L 241.147121 142.673173 
L 241.006639 144.73151 
L 240.866156 143.819483 
L 240.585192 144.958525 
L 240.444709 146.875883 
L 240.163745 145.352879 
L 240.023263 146.286258 
L 239.742298 145.171666 
L 239.461334 148.680484 
L 239.039887 145.050804 
L 238.196993 149.880404 
L 238.056511 150.133946 
L 237.916028 149.376536 
L 237.494582 144.269163 
L 237.213617 145.274908 
L 236.932653 147.046818 
L 236.79217 145.018776 
L 236.230241 124.817419 
L 236.089759 124.271182 
L 235.949277 129.164998 
L 235.668312 162.595752 
L 235.52783 188.912292 
L 235.106383 154.586601 
L 234.825418 144.661459 
L 234.684936 142.794588 
L 234.544454 144.349565 
L 234.403972 144.347324 
L 234.263489 145.834865 
L 233.982525 144.203788 
L 233.842042 145.80908 
L 233.561078 153.996968 
L 233.280113 166.040855 
L 233.139631 167.45857 
L 232.999149 162.229241 
L 232.718184 128.511479 
L 232.577702 102.087031 
L 232.156255 136.002245 
L 231.875291 146.237076 
L 231.453844 150.649653 
L 231.313361 147.602342 
L 231.172879 147.636531 
L 230.61095 143.504976 
L 230.470468 143.228679 
L 230.329985 143.208879 
L 230.189503 142.246548 
L 230.049021 142.243603 
L 229.908539 142.751156 
L 229.768056 144.057854 
L 229.487092 148.645451 
L 229.346609 148.833983 
L 228.925163 151.597384 
L 228.78468 153.391266 
L 228.503716 149.751228 
L 228.082269 155.407782 
L 227.801304 158.680275 
L 227.660822 160.90721 
L 227.52034 160.842362 
L 227.239375 162.860776 
L 226.958411 166.526055 
L 226.817928 165.308719 
L 226.677446 165.400498 
L 226.536964 164.970744 
L 225.834553 170.069103 
L 224.710694 193.693892 
L 224.289247 198.523686 
L 224.008283 197.169054 
L 223.867801 198.474453 
L 223.727318 196.405104 
L 223.586836 196.730224 
L 223.305872 195.442627 
L 223.024907 196.055136 
L 222.884425 196.180524 
L 222.60346 193.801917 
L 222.322496 191.310991 
L 222.182013 191.409916 
L 221.620084 185.518524 
L 221.479602 184.956156 
L 221.198637 186.577094 
L 220.917673 194.902915 
L 220.074779 182.752364 
L 219.793815 180.992546 
L 219.653332 181.291057 
L 219.51285 180.838658 
L 219.372368 179.814806 
L 219.091403 176.724857 
L 218.950921 177.690717 
L 218.810439 177.611863 
L 218.669956 177.84969 
L 218.24851 173.583067 
L 217.967545 164.696735 
L 217.546098 173.30457 
L 217.405616 173.239499 
L 217.265134 174.005466 
L 217.124651 174.04697 
L 216.984169 174.609315 
L 216.843687 174.016117 
L 216.703204 174.847106 
L 216.562722 173.914473 
L 216.42224 174.291055 
L 216.281758 176.205037 
L 216.141275 176.437926 
L 215.860311 173.616957 
L 215.579346 176.11237 
L 215.438864 177.627275 
L 215.157899 176.53491 
L 215.017417 176.151599 
L 214.876935 176.132324 
L 214.736453 176.630526 
L 214.59597 175.833479 
L 214.455488 177.245618 
L 214.315006 176.225083 
L 214.174523 176.45159 
L 214.034041 175.273478 
L 213.893559 175.052869 
L 213.612594 171.713484 
L 213.33163 167.874926 
L 213.191147 168.323172 
L 213.050665 170.517298 
L 212.910183 170.431399 
L 212.629218 167.627127 
L 212.207772 166.381135 
L 212.067289 166.565376 
L 211.926807 166.032863 
L 211.786325 164.420862 
L 211.645842 164.967379 
L 210.943431 162.075804 
L 210.802949 162.237869 
L 210.662466 163.181183 
L 210.381502 165.611981 
L 210.100537 161.485826 
L 209.960055 161.350023 
L 209.538608 158.762918 
L 209.257644 159.397238 
L 209.117161 160.627561 
L 208.836197 166.84923 
L 208.695715 167.452752 
L 208.555232 168.687411 
L 208.274268 174.102263 
L 207.993303 177.634554 
L 207.852821 180.674682 
L 207.571856 181.481343 
L 207.15041 187.555904 
L 207.009927 185.955985 
L 206.869445 186.273302 
L 206.728963 186.279445 
L 206.58848 185.236389 
L 206.447998 185.244619 
L 206.307516 184.862652 
L 206.167034 183.451147 
L 206.026551 180.461801 
L 205.886069 180.383701 
L 205.745587 180.957554 
L 205.464622 179.667552 
L 205.32414 179.721171 
L 203.778835 170.667916 
L 203.638353 170.625023 
L 203.49787 169.862209 
L 203.357388 169.895392 
L 203.076423 173.235028 
L 202.374012 162.992926 
L 202.23353 163.474003 
L 202.093047 163.231657 
L 201.812083 161.039911 
L 201.671601 161.864296 
L 201.531118 160.924419 
L 201.250154 162.990029 
L 201.109672 163.053755 
L 200.969189 162.963992 
L 200.828707 163.642564 
L 200.688225 163.032189 
L 200.547742 161.503546 
L 200.40726 161.371112 
L 200.266778 161.030583 
L 200.126296 159.63571 
L 199.423884 165.679017 
L 199.14292 166.215089 
L 198.861955 168.185142 
L 198.721473 168.819658 
L 198.580991 170.217386 
L 198.300026 168.62679 
L 198.159544 170.415506 
L 197.878579 170.256841 
L 197.597615 174.163208 
L 197.457132 174.929403 
L 197.31665 174.945054 
L 197.176168 175.458114 
L 197.035685 175.255422 
L 196.614239 177.318673 
L 196.333274 175.020416 
L 196.05231 177.489302 
L 195.771345 178.340577 
L 195.630863 177.76631 
L 194.928451 181.281218 
L 194.787969 179.617667 
L 194.647487 181.479599 
L 194.507004 181.446736 
L 194.366522 181.907457 
L 194.22604 180.328689 
L 194.085558 180.92397 
L 193.804593 180.01184 
L 193.383146 183.035186 
L 193.242664 182.783747 
L 193.102182 181.673121 
L 192.821217 183.063187 
L 192.540253 180.869629 
L 192.39977 180.931785 
L 192.259288 182.118887 
L 192.118806 181.858798 
L 191.978323 181.90422 
L 191.837841 183.721099 
L 191.556877 180.812834 
L 191.416394 179.432733 
L 190.854465 185.399611 
L 190.573501 185.488007 
L 190.433018 186.306388 
L 190.152054 183.834306 
L 190.011572 183.580235 
L 189.871089 182.179171 
L 189.449642 185.262668 
L 189.168678 183.213406 
L 188.606749 181.33535 
L 188.466266 180.409119 
L 188.325784 181.321161 
L 187.763855 172.821358 
L 187.623373 173.038891 
L 187.482891 174.016103 
L 187.201926 177.434694 
L 187.061444 176.815522 
L 186.780479 174.632251 
L 186.639997 174.757629 
L 186.499515 173.206995 
L 186.359032 172.938403 
L 186.21855 174.751068 
L 186.078068 174.878852 
L 185.797103 174.000888 
L 185.516139 176.356529 
L 185.375656 175.175614 
L 185.235174 175.119374 
L 185.094692 174.102436 
L 184.813727 176.364016 
L 184.251798 172.175537 
L 184.111316 172.329615 
L 183.549387 170.176586 
L 182.706493 159.844132 
L 182.566011 159.741962 
L 182.425529 159.258489 
L 182.285046 159.658437 
L 182.144564 160.442029 
L 182.004082 161.941966 
L 181.723117 162.335155 
L 181.582635 162.16854 
L 181.442153 163.304947 
L 181.161188 160.536887 
L 181.020706 161.087307 
L 180.880223 162.940978 
L 180.739741 162.483701 
L 180.318294 166.608718 
L 180.177812 166.601923 
L 180.03733 167.601695 
L 179.896847 167.693816 
L 179.615883 167.006277 
L 178.632507 172.826994 
L 178.21106 176.719105 
L 178.070578 178.794244 
L 177.508649 175.784061 
L 177.227684 180.431594 
L 176.94672 187.622086 
L 176.806237 187.639223 
L 176.665755 188.141781 
L 176.525273 186.407167 
L 176.244308 186.903418 
L 175.822861 183.70172 
L 175.682379 181.208209 
L 175.541897 180.860513 
L 175.12045 177.548185 
L 174.839485 178.414631 
L 174.699003 178.033443 
L 174.558521 176.7357 
L 174.277556 171.091488 
L 173.996592 167.812359 
L 173.434663 171.529902 
L 173.29418 171.496655 
L 173.153698 171.705512 
L 172.872734 172.553084 
L 172.732251 174.725646 
L 172.591769 173.306253 
L 172.451287 173.536326 
L 172.170322 171.523208 
L 171.748875 175.574486 
L 171.327429 182.496211 
L 171.046464 183.728201 
L 170.344053 192.415241 
L 170.20357 193.190439 
L 170.063088 195.041981 
L 169.922606 195.400959 
L 169.782123 193.647008 
L 169.501159 193.806687 
L 169.220194 197.07132 
L 169.079712 195.963608 
L 168.93923 196.43684 
L 168.798747 197.607463 
L 168.517783 196.451542 
L 168.236818 195.735439 
L 167.815372 198.450712 
L 167.674889 197.109452 
L 167.534407 197.599877 
L 167.253442 200.673306 
L 167.11296 199.639272 
L 166.691513 202.152955 
L 166.551031 201.847686 
L 166.410549 201.014813 
L 166.129584 202.14836 
L 165.989102 200.217385 
L 165.84862 200.396868 
L 165.567655 198.204551 
L 165.286691 200.183966 
L 164.865244 195.431493 
L 164.724761 195.486509 
L 164.303315 193.174468 
L 164.162832 193.429175 
L 163.881868 190.892554 
L 163.741385 191.558338 
L 163.600903 191.619773 
L 163.460421 190.338157 
L 163.319939 190.565677 
L 163.179456 189.933132 
L 163.038974 189.902372 
L 162.898492 188.486887 
L 162.75801 189.148933 
L 162.617527 188.829856 
L 162.336563 186.125113 
L 162.19608 187.334724 
L 162.055598 185.779349 
L 161.774634 186.392443 
L 161.634151 185.652416 
L 161.493669 186.196247 
L 161.353187 186.11894 
L 160.93174 182.701907 
L 160.791258 182.517969 
L 160.650775 182.940146 
L 160.510293 182.639774 
L 160.369811 181.466872 
L 160.229329 181.256985 
L 159.948364 184.930014 
L 159.807882 184.204633 
L 159.10547 189.477285 
L 158.964988 189.198941 
L 158.824506 190.322931 
L 158.684023 190.412763 
L 158.543541 189.290524 
L 158.403059 189.38328 
L 157.981612 194.451119 
L 157.84113 194.335726 
L 157.700647 194.56986 
L 157.560165 195.588452 
L 157.419683 195.367459 
L 157.279201 197.169834 
L 156.998236 198.165508 
L 156.857754 198.924711 
L 156.717272 198.742459 
L 156.436307 199.627085 
L 156.295825 199.560008 
L 156.155342 200.191263 
L 156.01486 202.258584 
L 155.874378 200.446346 
L 155.593413 200.77904 
L 155.452931 200.269068 
L 155.312449 200.312272 
L 155.171966 201.325511 
L 154.75052 205.871286 
L 154.610037 206.34046 
L 154.469555 205.347467 
L 154.188591 201.811871 
L 154.048108 201.237153 
L 153.767144 205.582674 
L 153.626661 204.876323 
L 153.345697 205.377556 
L 153.205215 203.854747 
L 153.064732 203.562113 
L 152.783768 205.24479 
L 152.643285 204.727755 
L 152.502803 205.841749 
L 152.362321 205.808379 
L 152.081356 206.732643 
L 151.800392 203.684439 
L 151.65991 203.419066 
L 151.378945 206.401014 
L 151.238463 206.328969 
L 151.09798 206.736029 
L 150.957498 206.22808 
L 150.817016 206.356004 
L 150.536051 209.463826 
L 149.974122 214.821408 
L 149.83364 214.457638 
L 149.693158 217.458086 
L 149.552675 217.512409 
L 148.990746 212.434142 
L 148.709782 218.222606 
L 148.569299 217.632492 
L 148.428817 216.178725 
L 148.147853 219.5274 
L 147.585923 213.159272 
L 147.445441 213.098179 
L 147.304959 213.772513 
L 147.023994 211.911554 
L 146.883512 213.706169 
L 146.74303 212.903672 
L 146.602548 212.934595 
L 146.462065 214.794632 
L 146.321583 214.533209 
L 146.040618 214.686804 
L 145.759654 210.500242 
L 145.619172 210.987729 
L 145.478689 213.752693 
L 145.197725 208.656328 
L 144.91676 211.259399 
L 144.776278 211.645066 
L 144.635796 214.469146 
L 144.354831 211.722865 
L 144.214349 211.989747 
L 144.073866 213.498484 
L 143.933384 212.677868 
L 143.792902 213.111469 
L 143.65242 214.337902 
L 143.230973 211.50068 
L 143.090491 211.876597 
L 142.809526 211.667952 
L 142.669044 211.347501 
L 142.528561 208.956953 
L 142.247597 210.670307 
L 142.107115 211.291625 
L 141.966632 211.243285 
L 141.82615 211.049343 
L 141.685668 209.704943 
L 141.123739 212.48842 
L 140.983256 212.43882 
L 140.842774 212.846214 
L 140.702292 212.163705 
L 140.56181 212.42066 
L 140.140363 214.062337 
L 139.99988 213.36044 
L 139.718916 213.235892 
L 139.578434 213.78497 
L 139.297469 213.304115 
L 139.156987 213.597424 
L 139.016504 214.838226 
L 138.876022 214.838396 
L 138.454575 217.070278 
L 138.314093 216.515376 
L 138.173611 215.501157 
L 138.033129 216.71321 
L 137.752164 214.212323 
L 137.471199 216.848066 
L 137.190235 215.59615 
L 137.049753 215.72578 
L 136.90927 214.541838 
L 136.768788 214.391284 
L 136.628306 213.777943 
L 136.487823 214.361504 
L 136.206859 213.909817 
L 136.066377 214.17735 
L 135.785412 216.9744 
L 135.363965 212.274144 
L 135.223483 213.30418 
L 135.083001 213.022127 
L 134.802036 214.820849 
L 134.380589 210.121966 
L 134.099625 210.340179 
L 133.678178 213.22721 
L 133.537696 212.78809 
L 133.397213 213.213351 
L 133.116249 211.017011 
L 132.975766 209.450156 
L 132.835284 205.833066 
L 132.55432 209.010002 
L 132.273355 210.518885 
L 132.132873 210.681841 
L 131.851908 210.190974 
L 131.570944 211.689462 
L 131.430461 212.692337 
L 131.289979 211.822739 
L 131.149497 212.7915 
L 131.009015 212.556777 
L 130.72805 210.110602 
L 130.447085 208.383512 
L 130.166121 210.064864 
L 130.025639 210.235706 
L 129.885156 212.696667 
L 129.744674 211.948074 
L 129.46371 213.012781 
L 128.620816 206.975003 
L 128.480334 207.048212 
L 128.339851 207.237925 
L 128.199369 207.650663 
L 127.777922 205.383547 
L 127.63744 204.903502 
L 127.215993 199.735382 
L 127.075511 199.326745 
L 126.935029 198.126632 
L 126.513582 201.707762 
L 126.373099 201.204801 
L 126.092135 199.111681 
L 125.951653 199.877726 
L 125.81117 199.437258 
L 125.670688 201.07147 
L 125.530206 200.593279 
L 125.389723 201.003125 
L 125.249241 199.860887 
L 124.968277 200.254834 
L 124.827794 199.776213 
L 124.265865 204.773144 
L 124.125383 204.697638 
L 123.984901 205.750741 
L 123.563454 200.845141 
L 122.861042 207.208587 
L 122.299113 204.091729 
L 122.158631 204.115252 
L 122.018149 204.849728 
L 121.877666 204.411161 
L 121.596702 200.8207 
L 121.034773 185.440859 
L 120.894291 189.079089 
L 120.472844 234.326252 
L 119.770432 200.847385 
L 119.62995 200.645934 
L 119.489468 200.704032 
L 119.348985 201.159773 
L 119.068021 199.973998 
L 118.927539 201.234182 
L 118.506092 208.857785 
L 118.225127 217.763553 
L 118.084645 218.774471 
L 117.944163 214.958768 
L 117.522716 168.525621 
L 117.101269 192.718022 
L 116.820304 212.777866 
L 116.679822 212.754389 
L 116.258375 206.921539 
L 116.117893 206.897943 
L 115.555964 211.761089 
L 115.415482 211.471969 
L 115.274999 212.087559 
L 114.994035 215.121052 
L 114.291623 222.659248 
L 114.151141 221.287661 
L 113.870177 213.788519 
L 113.44873 221.943276 
L 113.167765 226.89911 
L 113.027283 227.408555 
L 112.886801 227.367048 
L 112.605836 228.854584 
L 112.324872 232.87039 
L 112.184389 233.058902 
L 111.62246 240.659559 
L 111.481978 239.845362 
L 110.920049 244.318675 
L 110.779567 245.007143 
L 110.639084 244.651418 
L 109.374744 266.55053 
L 109.093779 270.872765 
L 108.812815 273.105217 
L 108.250885 282.543 
L 108.110403 282.889914 
L 107.829439 288.182558 
L 107.688956 289.681766 
L 107.548474 289.670726 
L 107.407992 291.366601 
L 107.26751 291.461725 
L 107.127027 290.504323 
L 106.846063 291.324114 
L 106.70558 289.559672 
L 106.565098 290.124208 
L 106.284134 292.829852 
L 106.143651 291.763539 
L 106.003169 291.634415 
L 105.722204 290.161027 
L 105.581722 288.667384 
L 105.44124 290.082832 
L 105.300758 292.830609 
L 105.160275 293.287292 
L 105.019793 292.190012 
L 104.738829 293.586395 
L 104.598346 293.47276 
L 104.457864 292.443526 
L 104.176899 295.488 
L 103.895935 291.827495 
L 103.755453 291.582735 
L 103.61497 290.570834 
L 103.474488 290.442573 
L 103.193523 289.860545 
L 103.053041 291.054539 
L 102.912559 290.036507 
L 102.631594 291.011793 
L 102.491112 290.332371 
L 102.35063 286.243593 
L 102.069665 289.502293 
L 101.788701 288.479902 
L 101.507736 290.23267 
L 101.226772 287.173932 
L 100.945807 289.189543 
L 100.805325 290.253917 
L 100.664842 289.084127 
L 100.383878 285.048178 
L 100.243396 286.751857 
L 100.102913 286.90115 
L 99.821949 289.76102 
L 99.540984 288.770721 
L 99.400502 290.452635 
L 99.119537 286.024824 
L 98.979055 285.852047 
L 98.698091 284.466849 
L 98.417126 281.762945 
L 98.276644 283.34936 
L 98.136161 283.672061 
L 97.855197 282.521925 
L 97.293268 287.260606 
L 97.012303 284.815874 
L 96.871821 283.364392 
L 96.731339 283.433338 
L 96.590856 283.121181 
L 96.16941 285.105626 
L 95.888445 283.910393 
L 95.747963 282.40305 
L 95.60748 282.651061 
L 95.466998 283.332997 
L 95.326516 281.594335 
L 95.186034 281.365089 
L 95.045551 282.483119 
L 94.905069 282.142207 
L 94.202658 273.538031 
L 94.062175 272.514349 
L 93.781211 274.605534 
L 93.640729 274.29051 
L 93.500246 272.289385 
L 93.359764 271.942588 
L 93.219282 271.214356 
L 92.938317 271.078437 
L 92.797835 271.595093 
L 92.657353 270.264791 
L 92.376388 266.777042 
L 92.095423 265.014571 
L 91.954941 265.208782 
L 91.533494 267.12338 
L 91.112048 268.330809 
L 90.690601 264.629806 
L 90.409636 263.76177 
L 90.269154 265.32519 
L 90.128672 264.658516 
L 89.847707 264.685529 
L 89.707225 264.607547 
L 89.566742 264.071215 
L 89.285778 265.48519 
L 89.145296 263.96458 
L 89.004813 264.131284 
L 88.723849 266.584439 
L 88.583367 266.519702 
L 88.442884 267.241039 
L 88.021437 264.411398 
L 87.880955 264.456902 
L 87.599991 267.314175 
L 87.459508 267.210972 
L 87.178544 265.915728 
L 86.897579 263.441515 
L 86.757097 263.064896 
L 86.616615 264.895908 
L 86.33565 263.183444 
L 86.195168 263.612626 
L 85.633239 260.241661 
L 85.492756 258.221857 
L 85.352274 258.050577 
L 85.07131 260.292222 
L 84.930827 259.141433 
L 84.087934 241.904979 
L 83.947451 241.762079 
L 83.666487 252.863134 
L 83.526004 263.624582 
L 82.823593 246.161947 
L 82.683111 247.231059 
L 82.542629 249.923463 
L 82.261664 250.758173 
L 82.121182 250.68341 
L 81.840217 249.677475 
L 81.699735 250.697663 
L 81.278288 258.330969 
L 81.137806 232.209679 
L 80.997323 231.124205 
L 80.716359 216.883629 
L 80.575877 208.146664 
L 79.873465 222.505288 
L 79.732983 221.332475 
L 79.452018 217.951446 
L 79.171054 217.278273 
L 78.890089 221.185304 
L 78.749607 221.050819 
L 78.609125 219.222182 
L 78.468642 219.423816 
L 78.32816 219.105041 
L 78.187678 218.188081 
L 78.047196 218.344118 
L 77.766231 219.805644 
L 77.485267 217.416621 
L 77.344784 217.790353 
L 77.204302 217.085322 
L 77.06382 217.666071 
L 76.923337 216.152166 
L 76.782855 216.342888 
L 76.642373 215.564643 
L 76.501891 216.750686 
L 76.361408 216.547781 
L 76.220926 215.988633 
L 75.939961 212.793198 
L 75.799479 212.520393 
L 75.518515 217.009248 
L 75.23755 221.912319 
L 74.675621 214.457659 
L 74.535139 214.803749 
L 74.254174 214.958111 
L 73.832727 215.227082 
L 73.832727 215.227082 
" clip-path="url(#p85e6ddb45c)" style="fill: none; stroke: #ff7f0e; stroke-width: 1.5; stroke-linecap: square"/>
   </g>
   <g id="patch_3">
    <path d="M 57.6 307.584 
L 57.6 41.472 
" style="fill: none; stroke: #000000; stroke-width: 0.8; stroke-linejoin: miter; stroke-linecap: square"/>
   </g>
   <g id="patch_4">
    <path d="M 414.72 307.584 
L 414.72 41.472 
" style="fill: none; stroke: #000000; stroke-width: 0.8; stroke-linejoin: miter; stroke-linecap: square"/>
   </g>
   <g id="patch_5">
    <path d="M 57.6 307.584 
L 414.72 307.584 
" style="fill: none; stroke: #000000; stroke-width: 0.8; stroke-linejoin: miter; stroke-linecap: square"/>
   </g>
   <g id="patch_6">
    <path d="M 57.6 41.472 
L 414.72 41.472 
" style="fill: none; stroke: #000000; stroke-width: 0.8; stroke-linejoin: miter; stroke-linecap: square"/>
   </g>
   <g id="text_13">
    <!-- Actual vs. Predicted Values -->
    <g transform="translate(155.29125 35.472) scale(0.12 -0.12)">
     <defs>
      <path id="DejaVuSans-41" d="M 2188 4044 
L 1331 1722 
L 3047 1722 
L 2188 4044 
z
M 1831 4666 
L 2547 4666 
L 4325 0 
L 3669 0 
L 3244 1197 
L 1141 1197 
L 716 0 
L 50 0 
L 1831 4666 
z
" transform="scale(0.015625)"/>
      <path id="DejaVuSans-63" d="M 3122 3366 
L 3122 2828 
Q 2878 2963 2633 3030 
Q 2388 3097 2138 3097 
Q 1578 3097 1268 2742 
Q 959 2388 959 1747 
Q 959 1106 1268 751 
Q 1578 397 2138 397 
Q 2388 397 2633 464 
Q 2878 531 3122 666 
L 3122 134 
Q 2881 22 2623 -34 
Q 2366 -91 2075 -91 
Q 1284 -91 818 406 
Q 353 903 353 1747 
Q 353 2603 823 3093 
Q 1294 3584 2113 3584 
Q 2378 3584 2631 3529 
Q 2884 3475 3122 3366 
z
" transform="scale(0.015625)"/>
      <path id="DejaVuSans-74" d="M 1172 4494 
L 1172 3500 
L 2356 3500 
L 2356 3053 
L 1172 3053 
L 1172 1153 
Q 1172 725 1289 603 
Q 1406 481 1766 481 
L 2356 481 
L 2356 0 
L 1766 0 
Q 1100 0 847 248 
Q 594 497 594 1153 
L 594 3053 
L 172 3053 
L 172 3500 
L 594 3500 
L 594 4494 
L 1172 4494 
z
" transform="scale(0.015625)"/>
      <path id="DejaVuSans-20" transform="scale(0.015625)"/>
      <path id="DejaVuSans-76" d="M 191 3500 
L 800 3500 
L 1894 563 
L 2988 3500 
L 3597 3500 
L 2284 0 
L 1503 0 
L 191 3500 
z
" transform="scale(0.015625)"/>
      <path id="DejaVuSans-73" d="M 2834 3397 
L 2834 2853 
Q 2591 2978 2328 3040 
Q 2066 3103 1784 3103 
Q 1356 3103 1142 2972 
Q 928 2841 928 2578 
Q 928 2378 1081 2264 
Q 1234 2150 1697 2047 
L 1894 2003 
Q 2506 1872 2764 1633 
Q 3022 1394 3022 966 
Q 3022 478 2636 193 
Q 2250 -91 1575 -91 
Q 1294 -91 989 -36 
Q 684 19 347 128 
L 347 722 
Q 666 556 975 473 
Q 1284 391 1588 391 
Q 1994 391 2212 530 
Q 2431 669 2431 922 
Q 2431 1156 2273 1281 
Q 2116 1406 1581 1522 
L 1381 1569 
Q 847 1681 609 1914 
Q 372 2147 372 2553 
Q 372 3047 722 3315 
Q 1072 3584 1716 3584 
Q 2034 3584 2315 3537 
Q 2597 3491 2834 3397 
z
" transform="scale(0.015625)"/>
      <path id="DejaVuSans-50" d="M 1259 4147 
L 1259 2394 
L 2053 2394 
Q 2494 2394 2734 2622 
Q 2975 2850 2975 3272 
Q 2975 3691 2734 3919 
Q 2494 4147 2053 4147 
L 1259 4147 
z
M 628 4666 
L 2053 4666 
Q 2838 4666 3239 4311 
Q 3641 3956 3641 3272 
Q 3641 2581 3239 2228 
Q 2838 1875 2053 1875 
L 1259 1875 
L 1259 0 
L 628 0 
L 628 4666 
z
" transform="scale(0.015625)"/>
      <path id="DejaVuSans-72" d="M 2631 2963 
Q 2534 3019 2420 3045 
Q 2306 3072 2169 3072 
Q 1681 3072 1420 2755 
Q 1159 2438 1159 1844 
L 1159 0 
L 581 0 
L 581 3500 
L 1159 3500 
L 1159 2956 
Q 1341 3275 1631 3429 
Q 1922 3584 2338 3584 
Q 2397 3584 2469 3576 
Q 2541 3569 2628 3553 
L 2631 2963 
z
" transform="scale(0.015625)"/>
      <path id="DejaVuSans-69" d="M 603 3500 
L 1178 3500 
L 1178 0 
L 603 0 
L 603 3500 
z
M 603 4863 
L 1178 4863 
L 1178 4134 
L 603 4134 
L 603 4863 
z
" transform="scale(0.015625)"/>
     </defs>
     <use xlink:href="#DejaVuSans-41"/>
     <use xlink:href="#DejaVuSans-63" x="66.658203"/>
     <use xlink:href="#DejaVuSans-74" x="121.638672"/>
     <use xlink:href="#DejaVuSans-75" x="160.847656"/>
     <use xlink:href="#DejaVuSans-61" x="224.226562"/>
     <use xlink:href="#DejaVuSans-6c" x="285.505859"/>
     <use xlink:href="#DejaVuSans-20" x="313.289062"/>
     <use xlink:href="#DejaVuSans-76" x="345.076172"/>
     <use xlink:href="#DejaVuSans-73" x="404.255859"/>
     <use xlink:href="#DejaVuSans-2e" x="456.355469"/>
     <use xlink:href="#DejaVuSans-20" x="488.142578"/>
     <use xlink:href="#DejaVuSans-50" x="519.929688"/>
     <use xlink:href="#DejaVuSans-72" x="578.482422"/>
     <use xlink:href="#DejaVuSans-65" x="617.345703"/>
     <use xlink:href="#DejaVuSans-64" x="678.869141"/>
     <use xlink:href="#DejaVuSans-69" x="742.345703"/>
     <use xlink:href="#DejaVuSans-63" x="770.128906"/>
     <use xlink:href="#DejaVuSans-74" x="825.109375"/>
     <use xlink:href="#DejaVuSans-65" x="864.318359"/>
     <use xlink:href="#DejaVuSans-64" x="925.841797"/>
     <use xlink:href="#DejaVuSans-20" x="989.318359"/>
     <use xlink:href="#DejaVuSans-56" x="1021.105469"/>
     <use xlink:href="#DejaVuSans-61" x="1081.763672"/>
     <use xlink:href="#DejaVuSans-6c" x="1143.042969"/>
     <use xlink:href="#DejaVuSans-75" x="1170.826172"/>
     <use xlink:href="#DejaVuSans-65" x="1234.205078"/>
     <use xlink:href="#DejaVuSans-73" x="1295.728516"/>
    </g>
   </g>
   <g id="legend_1">
    <g id="patch_7">
     <path d="M 64.6 78.82825 
L 144.034375 78.82825 
Q 146.034375 78.82825 146.034375 76.82825 
L 146.034375 48.472 
Q 146.034375 46.472 144.034375 46.472 
L 64.6 46.472 
Q 62.6 46.472 62.6 48.472 
L 62.6 76.82825 
Q 62.6 78.82825 64.6 78.82825 
z
" style="fill: #ffffff; opacity: 0.8; stroke: #cccccc; stroke-linejoin: miter"/>
    </g>
    <g id="line2d_13">
     <path d="M 66.6 54.570437 
L 76.6 54.570437 
L 86.6 54.570437 
" style="fill: none; stroke: #1f77b4; stroke-width: 1.5; stroke-linecap: square"/>
    </g>
    <g id="text_14">
     <!-- actual -->
     <g transform="translate(94.6 58.070437) scale(0.1 -0.1)">
      <use xlink:href="#DejaVuSans-61"/>
      <use xlink:href="#DejaVuSans-63" x="61.279297"/>
      <use xlink:href="#DejaVuSans-74" x="116.259766"/>
      <use xlink:href="#DejaVuSans-75" x="155.46875"/>
      <use xlink:href="#DejaVuSans-61" x="218.847656"/>
      <use xlink:href="#DejaVuSans-6c" x="280.126953"/>
     </g>
    </g>
    <g id="line2d_14">
     <path d="M 66.6 69.248562 
L 76.6 69.248562 
L 86.6 69.248562 
" style="fill: none; stroke: #ff7f0e; stroke-width: 1.5; stroke-linecap: square"/>
    </g>
    <g id="text_15">
     <!-- predicted -->
     <g transform="translate(94.6 72.748562) scale(0.1 -0.1)">
      <defs>
       <path id="DejaVuSans-70" d="M 1159 525 
L 1159 -1331 
L 581 -1331 
L 581 3500 
L 1159 3500 
L 1159 2969 
Q 1341 3281 1617 3432 
Q 1894 3584 2278 3584 
Q 2916 3584 3314 3078 
Q 3713 2572 3713 1747 
Q 3713 922 3314 415 
Q 2916 -91 2278 -91 
Q 1894 -91 1617 61 
Q 1341 213 1159 525 
z
M 3116 1747 
Q 3116 2381 2855 2742 
Q 2594 3103 2138 3103 
Q 1681 3103 1420 2742 
Q 1159 2381 1159 1747 
Q 1159 1113 1420 752 
Q 1681 391 2138 391 
Q 2594 391 2855 752 
Q 3116 1113 3116 1747 
z
" transform="scale(0.015625)"/>
      </defs>
      <use xlink:href="#DejaVuSans-70"/>
      <use xlink:href="#DejaVuSans-72" x="63.476562"/>
      <use xlink:href="#DejaVuSans-65" x="102.339844"/>
      <use xlink:href="#DejaVuSans-64" x="163.863281"/>
      <use xlink:href="#DejaVuSans-69" x="227.339844"/>
      <use xlink:href="#DejaVuSans-63" x="255.123047"/>
      <use xlink:href="#DejaVuSans-74" x="310.103516"/>
      <use xlink:href="#DejaVuSans-65" x="349.3125"/>
      <use xlink:href="#DejaVuSans-64" x="410.835938"/>
     </g>
    </g>
   </g>
  </g>
 </g>
 <defs>
  <clipPath id="p85e6ddb45c">
   <rect x="57.6" y="41.472" width="357.12" height="266.112"/>
  </clipPath>
 </defs>
</svg>
