<?xml version="1.0" encoding="utf-8" standalone="no"?>
<!DOCTYPE svg PUBLIC "-//W3C//DTD SVG 1.1//EN"
  "http://www.w3.org/Graphics/SVG/1.1/DTD/svg11.dtd">
<svg xmlns:xlink="http://www.w3.org/1999/xlink" width="460.8pt" height="345.6pt" viewBox="0 0 460.8 345.6" xmlns="http://www.w3.org/2000/svg" version="1.1">
 <metadata>
  <rdf:RDF xmlns:dc="http://purl.org/dc/elements/1.1/" xmlns:cc="http://creativecommons.org/ns#" xmlns:rdf="http://www.w3.org/1999/02/22-rdf-syntax-ns#">
   <cc:Work>
    <dc:type rdf:resource="http://purl.org/dc/dcmitype/StillImage"/>
    <dc:date>2023-06-01T10:02:03.031496</dc:date>
    <dc:format>image/svg+xml</dc:format>
    <dc:creator>
     <cc:Agent>
      <dc:title>Matplotlib v3.7.1, https://matplotlib.org/</dc:title>
     </cc:Agent>
    </dc:creator>
   </cc:Work>
  </rdf:RDF>
 </metadata>
 <defs>
  <style type="text/css">*{stroke-linejoin: round; stroke-linecap: butt}</style>
 </defs>
 <g id="figure_1">
  <g id="patch_1">
   <path d="M 0 345.6 
L 460.8 345.6 
L 460.8 0 
L 0 0 
z
" style="fill: #ffffff"/>
  </g>
  <g id="axes_1">
   <g id="patch_2">
    <path d="M 57.6 307.584 
L 414.72 307.584 
L 414.72 41.472 
L 57.6 41.472 
z
" style="fill: #ffffff"/>
   </g>
   <g id="matplotlib.axis_1">
    <g id="xtick_1">
     <g id="line2d_1">
      <defs>
       <path id="m9520852131" d="M 0 0 
L 0 3.5 
" style="stroke: #000000; stroke-width: 0.8"/>
      </defs>
      <g>
       <use xlink:href="#m9520852131" x="398.487273" y="307.584" style="stroke: #000000; stroke-width: 0.8"/>
      </g>
     </g>
     <g id="text_1">
      <!-- 0 -->
      <g transform="translate(395.306023 322.182437) scale(0.1 -0.1)">
       <defs>
        <path id="DejaVuSans-30" d="M 2034 4250 
Q 1547 4250 1301 3770 
Q 1056 3291 1056 2328 
Q 1056 1369 1301 889 
Q 1547 409 2034 409 
Q 2525 409 2770 889 
Q 3016 1369 3016 2328 
Q 3016 3291 2770 3770 
Q 2525 4250 2034 4250 
z
M 2034 4750 
Q 2819 4750 3233 4129 
Q 3647 3509 3647 2328 
Q 3647 1150 3233 529 
Q 2819 -91 2034 -91 
Q 1250 -91 836 529 
Q 422 1150 422 2328 
Q 422 3509 836 4129 
Q 1250 4750 2034 4750 
z
" transform="scale(0.015625)"/>
       </defs>
       <use xlink:href="#DejaVuSans-30"/>
      </g>
     </g>
    </g>
    <g id="xtick_2">
     <g id="line2d_2">
      <g>
       <use xlink:href="#m9520852131" x="328.246134" y="307.584" style="stroke: #000000; stroke-width: 0.8"/>
      </g>
     </g>
     <g id="text_2">
      <!-- 500 -->
      <g transform="translate(318.702384 322.182437) scale(0.1 -0.1)">
       <defs>
        <path id="DejaVuSans-35" d="M 691 4666 
L 3169 4666 
L 3169 4134 
L 1269 4134 
L 1269 2991 
Q 1406 3038 1543 3061 
Q 1681 3084 1819 3084 
Q 2600 3084 3056 2656 
Q 3513 2228 3513 1497 
Q 3513 744 3044 326 
Q 2575 -91 1722 -91 
Q 1428 -91 1123 -41 
Q 819 9 494 109 
L 494 744 
Q 775 591 1075 516 
Q 1375 441 1709 441 
Q 2250 441 2565 725 
Q 2881 1009 2881 1497 
Q 2881 1984 2565 2268 
Q 2250 2553 1709 2553 
Q 1456 2553 1204 2497 
Q 953 2441 691 2322 
L 691 4666 
z
" transform="scale(0.015625)"/>
       </defs>
       <use xlink:href="#DejaVuSans-35"/>
       <use xlink:href="#DejaVuSans-30" x="63.623047"/>
       <use xlink:href="#DejaVuSans-30" x="127.246094"/>
      </g>
     </g>
    </g>
    <g id="xtick_3">
     <g id="line2d_3">
      <g>
       <use xlink:href="#m9520852131" x="258.004994" y="307.584" style="stroke: #000000; stroke-width: 0.8"/>
      </g>
     </g>
     <g id="text_3">
      <!-- 1000 -->
      <g transform="translate(245.279994 322.182437) scale(0.1 -0.1)">
       <defs>
        <path id="DejaVuSans-31" d="M 794 531 
L 1825 531 
L 1825 4091 
L 703 3866 
L 703 4441 
L 1819 4666 
L 2450 4666 
L 2450 531 
L 3481 531 
L 3481 0 
L 794 0 
L 794 531 
z
" transform="scale(0.015625)"/>
       </defs>
       <use xlink:href="#DejaVuSans-31"/>
       <use xlink:href="#DejaVuSans-30" x="63.623047"/>
       <use xlink:href="#DejaVuSans-30" x="127.246094"/>
       <use xlink:href="#DejaVuSans-30" x="190.869141"/>
      </g>
     </g>
    </g>
    <g id="xtick_4">
     <g id="line2d_4">
      <g>
       <use xlink:href="#m9520852131" x="187.763855" y="307.584" style="stroke: #000000; stroke-width: 0.8"/>
      </g>
     </g>
     <g id="text_4">
      <!-- 1500 -->
      <g transform="translate(175.038855 322.182437) scale(0.1 -0.1)">
       <use xlink:href="#DejaVuSans-31"/>
       <use xlink:href="#DejaVuSans-35" x="63.623047"/>
       <use xlink:href="#DejaVuSans-30" x="127.246094"/>
       <use xlink:href="#DejaVuSans-30" x="190.869141"/>
      </g>
     </g>
    </g>
    <g id="xtick_5">
     <g id="line2d_5">
      <g>
       <use xlink:href="#m9520852131" x="117.522716" y="307.584" style="stroke: #000000; stroke-width: 0.8"/>
      </g>
     </g>
     <g id="text_5">
      <!-- 2000 -->
      <g transform="translate(104.797716 322.182437) scale(0.1 -0.1)">
       <defs>
        <path id="DejaVuSans-32" d="M 1228 531 
L 3431 531 
L 3431 0 
L 469 0 
L 469 531 
Q 828 903 1448 1529 
Q 2069 2156 2228 2338 
Q 2531 2678 2651 2914 
Q 2772 3150 2772 3378 
Q 2772 3750 2511 3984 
Q 2250 4219 1831 4219 
Q 1534 4219 1204 4116 
Q 875 4013 500 3803 
L 500 4441 
Q 881 4594 1212 4672 
Q 1544 4750 1819 4750 
Q 2544 4750 2975 4387 
Q 3406 4025 3406 3419 
Q 3406 3131 3298 2873 
Q 3191 2616 2906 2266 
Q 2828 2175 2409 1742 
Q 1991 1309 1228 531 
z
" transform="scale(0.015625)"/>
       </defs>
       <use xlink:href="#DejaVuSans-32"/>
       <use xlink:href="#DejaVuSans-30" x="63.623047"/>
       <use xlink:href="#DejaVuSans-30" x="127.246094"/>
       <use xlink:href="#DejaVuSans-30" x="190.869141"/>
      </g>
     </g>
    </g>
    <g id="text_6">
     <!-- Index -->
     <g transform="translate(222.393594 335.860562) scale(0.1 -0.1)">
      <defs>
       <path id="DejaVuSans-49" d="M 628 4666 
L 1259 4666 
L 1259 0 
L 628 0 
L 628 4666 
z
" transform="scale(0.015625)"/>
       <path id="DejaVuSans-6e" d="M 3513 2113 
L 3513 0 
L 2938 0 
L 2938 2094 
Q 2938 2591 2744 2837 
Q 2550 3084 2163 3084 
Q 1697 3084 1428 2787 
Q 1159 2491 1159 1978 
L 1159 0 
L 581 0 
L 581 3500 
L 1159 3500 
L 1159 2956 
Q 1366 3272 1645 3428 
Q 1925 3584 2291 3584 
Q 2894 3584 3203 3211 
Q 3513 2838 3513 2113 
z
" transform="scale(0.015625)"/>
       <path id="DejaVuSans-64" d="M 2906 2969 
L 2906 4863 
L 3481 4863 
L 3481 0 
L 2906 0 
L 2906 525 
Q 2725 213 2448 61 
Q 2172 -91 1784 -91 
Q 1150 -91 751 415 
Q 353 922 353 1747 
Q 353 2572 751 3078 
Q 1150 3584 1784 3584 
Q 2172 3584 2448 3432 
Q 2725 3281 2906 2969 
z
M 947 1747 
Q 947 1113 1208 752 
Q 1469 391 1925 391 
Q 2381 391 2643 752 
Q 2906 1113 2906 1747 
Q 2906 2381 2643 2742 
Q 2381 3103 1925 3103 
Q 1469 3103 1208 2742 
Q 947 2381 947 1747 
z
" transform="scale(0.015625)"/>
       <path id="DejaVuSans-65" d="M 3597 1894 
L 3597 1613 
L 953 1613 
Q 991 1019 1311 708 
Q 1631 397 2203 397 
Q 2534 397 2845 478 
Q 3156 559 3463 722 
L 3463 178 
Q 3153 47 2828 -22 
Q 2503 -91 2169 -91 
Q 1331 -91 842 396 
Q 353 884 353 1716 
Q 353 2575 817 3079 
Q 1281 3584 2069 3584 
Q 2775 3584 3186 3129 
Q 3597 2675 3597 1894 
z
M 3022 2063 
Q 3016 2534 2758 2815 
Q 2500 3097 2075 3097 
Q 1594 3097 1305 2825 
Q 1016 2553 972 2059 
L 3022 2063 
z
" transform="scale(0.015625)"/>
       <path id="DejaVuSans-78" d="M 3513 3500 
L 2247 1797 
L 3578 0 
L 2900 0 
L 1881 1375 
L 863 0 
L 184 0 
L 1544 1831 
L 300 3500 
L 978 3500 
L 1906 2253 
L 2834 3500 
L 3513 3500 
z
" transform="scale(0.015625)"/>
      </defs>
      <use xlink:href="#DejaVuSans-49"/>
      <use xlink:href="#DejaVuSans-6e" x="29.492188"/>
      <use xlink:href="#DejaVuSans-64" x="92.871094"/>
      <use xlink:href="#DejaVuSans-65" x="156.347656"/>
      <use xlink:href="#DejaVuSans-78" x="216.121094"/>
     </g>
    </g>
   </g>
   <g id="matplotlib.axis_2">
    <g id="ytick_1">
     <g id="line2d_6">
      <defs>
       <path id="me05dc3f0c5" d="M 0 0 
L -3.5 0 
" style="stroke: #000000; stroke-width: 0.8"/>
      </defs>
      <g>
       <use xlink:href="#me05dc3f0c5" x="57.6" y="293.986859" style="stroke: #000000; stroke-width: 0.8"/>
      </g>
     </g>
     <g id="text_7">
      <!-- 0.0 -->
      <g transform="translate(34.696875 297.786078) scale(0.1 -0.1)">
       <defs>
        <path id="DejaVuSans-2e" d="M 684 794 
L 1344 794 
L 1344 0 
L 684 0 
L 684 794 
z
" transform="scale(0.015625)"/>
       </defs>
       <use xlink:href="#DejaVuSans-30"/>
       <use xlink:href="#DejaVuSans-2e" x="63.623047"/>
       <use xlink:href="#DejaVuSans-30" x="95.410156"/>
      </g>
     </g>
    </g>
    <g id="ytick_2">
     <g id="line2d_7">
      <g>
       <use xlink:href="#me05dc3f0c5" x="57.6" y="239.415149" style="stroke: #000000; stroke-width: 0.8"/>
      </g>
     </g>
     <g id="text_8">
      <!-- 0.2 -->
      <g transform="translate(34.696875 243.214368) scale(0.1 -0.1)">
       <use xlink:href="#DejaVuSans-30"/>
       <use xlink:href="#DejaVuSans-2e" x="63.623047"/>
       <use xlink:href="#DejaVuSans-32" x="95.410156"/>
      </g>
     </g>
    </g>
    <g id="ytick_3">
     <g id="line2d_8">
      <g>
       <use xlink:href="#me05dc3f0c5" x="57.6" y="184.843439" style="stroke: #000000; stroke-width: 0.8"/>
      </g>
     </g>
     <g id="text_9">
      <!-- 0.4 -->
      <g transform="translate(34.696875 188.642658) scale(0.1 -0.1)">
       <defs>
        <path id="DejaVuSans-34" d="M 2419 4116 
L 825 1625 
L 2419 1625 
L 2419 4116 
z
M 2253 4666 
L 3047 4666 
L 3047 1625 
L 3713 1625 
L 3713 1100 
L 3047 1100 
L 3047 0 
L 2419 0 
L 2419 1100 
L 313 1100 
L 313 1709 
L 2253 4666 
z
" transform="scale(0.015625)"/>
       </defs>
       <use xlink:href="#DejaVuSans-30"/>
       <use xlink:href="#DejaVuSans-2e" x="63.623047"/>
       <use xlink:href="#DejaVuSans-34" x="95.410156"/>
      </g>
     </g>
    </g>
    <g id="ytick_4">
     <g id="line2d_9">
      <g>
       <use xlink:href="#me05dc3f0c5" x="57.6" y="130.271729" style="stroke: #000000; stroke-width: 0.8"/>
      </g>
     </g>
     <g id="text_10">
      <!-- 0.6 -->
      <g transform="translate(34.696875 134.070948) scale(0.1 -0.1)">
       <defs>
        <path id="DejaVuSans-36" d="M 2113 2584 
Q 1688 2584 1439 2293 
Q 1191 2003 1191 1497 
Q 1191 994 1439 701 
Q 1688 409 2113 409 
Q 2538 409 2786 701 
Q 3034 994 3034 1497 
Q 3034 2003 2786 2293 
Q 2538 2584 2113 2584 
z
M 3366 4563 
L 3366 3988 
Q 3128 4100 2886 4159 
Q 2644 4219 2406 4219 
Q 1781 4219 1451 3797 
Q 1122 3375 1075 2522 
Q 1259 2794 1537 2939 
Q 1816 3084 2150 3084 
Q 2853 3084 3261 2657 
Q 3669 2231 3669 1497 
Q 3669 778 3244 343 
Q 2819 -91 2113 -91 
Q 1303 -91 875 529 
Q 447 1150 447 2328 
Q 447 3434 972 4092 
Q 1497 4750 2381 4750 
Q 2619 4750 2861 4703 
Q 3103 4656 3366 4563 
z
" transform="scale(0.015625)"/>
       </defs>
       <use xlink:href="#DejaVuSans-30"/>
       <use xlink:href="#DejaVuSans-2e" x="63.623047"/>
       <use xlink:href="#DejaVuSans-36" x="95.410156"/>
      </g>
     </g>
    </g>
    <g id="ytick_5">
     <g id="line2d_10">
      <g>
       <use xlink:href="#me05dc3f0c5" x="57.6" y="75.700019" style="stroke: #000000; stroke-width: 0.8"/>
      </g>
     </g>
     <g id="text_11">
      <!-- 0.8 -->
      <g transform="translate(34.696875 79.499238) scale(0.1 -0.1)">
       <defs>
        <path id="DejaVuSans-38" d="M 2034 2216 
Q 1584 2216 1326 1975 
Q 1069 1734 1069 1313 
Q 1069 891 1326 650 
Q 1584 409 2034 409 
Q 2484 409 2743 651 
Q 3003 894 3003 1313 
Q 3003 1734 2745 1975 
Q 2488 2216 2034 2216 
z
M 1403 2484 
Q 997 2584 770 2862 
Q 544 3141 544 3541 
Q 544 4100 942 4425 
Q 1341 4750 2034 4750 
Q 2731 4750 3128 4425 
Q 3525 4100 3525 3541 
Q 3525 3141 3298 2862 
Q 3072 2584 2669 2484 
Q 3125 2378 3379 2068 
Q 3634 1759 3634 1313 
Q 3634 634 3220 271 
Q 2806 -91 2034 -91 
Q 1263 -91 848 271 
Q 434 634 434 1313 
Q 434 1759 690 2068 
Q 947 2378 1403 2484 
z
M 1172 3481 
Q 1172 3119 1398 2916 
Q 1625 2713 2034 2713 
Q 2441 2713 2670 2916 
Q 2900 3119 2900 3481 
Q 2900 3844 2670 4047 
Q 2441 4250 2034 4250 
Q 1625 4250 1398 4047 
Q 1172 3844 1172 3481 
z
" transform="scale(0.015625)"/>
       </defs>
       <use xlink:href="#DejaVuSans-30"/>
       <use xlink:href="#DejaVuSans-2e" x="63.623047"/>
       <use xlink:href="#DejaVuSans-38" x="95.410156"/>
      </g>
     </g>
    </g>
    <g id="text_12">
     <!-- Value -->
     <g transform="translate(28.617188 188.25925) rotate(-90) scale(0.1 -0.1)">
      <defs>
       <path id="DejaVuSans-56" d="M 1831 0 
L 50 4666 
L 709 4666 
L 2188 738 
L 3669 4666 
L 4325 4666 
L 2547 0 
L 1831 0 
z
" transform="scale(0.015625)"/>
       <path id="DejaVuSans-61" d="M 2194 1759 
Q 1497 1759 1228 1600 
Q 959 1441 959 1056 
Q 959 750 1161 570 
Q 1363 391 1709 391 
Q 2188 391 2477 730 
Q 2766 1069 2766 1631 
L 2766 1759 
L 2194 1759 
z
M 3341 1997 
L 3341 0 
L 2766 0 
L 2766 531 
Q 2569 213 2275 61 
Q 1981 -91 1556 -91 
Q 1019 -91 701 211 
Q 384 513 384 1019 
Q 384 1609 779 1909 
Q 1175 2209 1959 2209 
L 2766 2209 
L 2766 2266 
Q 2766 2663 2505 2880 
Q 2244 3097 1772 3097 
Q 1472 3097 1187 3025 
Q 903 2953 641 2809 
L 641 3341 
Q 956 3463 1253 3523 
Q 1550 3584 1831 3584 
Q 2591 3584 2966 3190 
Q 3341 2797 3341 1997 
z
" transform="scale(0.015625)"/>
       <path id="DejaVuSans-6c" d="M 603 4863 
L 1178 4863 
L 1178 0 
L 603 0 
L 603 4863 
z
" transform="scale(0.015625)"/>
       <path id="DejaVuSans-75" d="M 544 1381 
L 544 3500 
L 1119 3500 
L 1119 1403 
Q 1119 906 1312 657 
Q 1506 409 1894 409 
Q 2359 409 2629 706 
Q 2900 1003 2900 1516 
L 2900 3500 
L 3475 3500 
L 3475 0 
L 2900 0 
L 2900 538 
Q 2691 219 2414 64 
Q 2138 -91 1772 -91 
Q 1169 -91 856 284 
Q 544 659 544 1381 
z
M 1991 3584 
L 1991 3584 
z
" transform="scale(0.015625)"/>
      </defs>
      <use xlink:href="#DejaVuSans-56"/>
      <use xlink:href="#DejaVuSans-61" x="60.658203"/>
      <use xlink:href="#DejaVuSans-6c" x="121.9375"/>
      <use xlink:href="#DejaVuSans-75" x="149.720703"/>
      <use xlink:href="#DejaVuSans-65" x="213.099609"/>
     </g>
    </g>
   </g>
   <g id="line2d_11">
    <path d="M 398.487273 116.469635 
L 396.661003 130.607797 
L 395.537145 137.989903 
L 393.99184 135.529779 
L 392.587017 133.270935 
L 390.90123 119.629726 
L 388.793996 103.810878 
L 388.232066 99.371967 
L 386.405797 81.542405 
L 386.124832 78.820618 
L 385.422421 67.481978 
L 382.753258 64.413157 
L 382.612775 64.605414 
L 381.06747 79.081934 
L 378.819754 87.291369 
L 378.257825 89.298266 
L 378.117342 89.327417 
L 375.026732 82.848294 
L 374.88625 82.926723 
L 371.936122 88.271393 
L 371.655158 86.278724 
L 369.547923 68.705967 
L 368.70503 61.691023 
L 368.002618 69.734229 
L 366.035866 91.381858 
L 365.473937 97.293928 
L 363.366703 97.386933 
L 362.383327 97.478897 
L 362.102363 97.553856 
L 361.399951 93.360993 
L 359.714164 83.818948 
L 357.747412 74.218601 
L 357.045001 71.448229 
L 354.235355 69.622831 
L 351.847156 84.382878 
L 351.144745 88.445257 
L 350.020887 89.94375 
L 349.739922 90.368172 
L 347.913652 80.492974 
L 346.789794 74.833892 
L 344.120631 82.431159 
L 340.889539 90.654128 
L 339.484716 93.627862 
L 339.203751 94.144248 
L 338.922787 95.577151 
L 337.939411 101.52566 
L 336.394106 103.829965 
L 334.989283 105.928826 
L 334.848801 106.167585 
L 334.708318 105.607473 
L 332.741566 90.179386 
L 331.196261 79.544184 
L 329.510474 69.753315 
L 327.965169 61.053522 
L 327.122275 53.568 
L 326.841311 56.854411 
L 324.734077 83.928263 
L 323.469736 98.279157 
L 321.783949 110.942772 
L 319.255268 102.967239 
L 318.412374 100.535225 
L 316.024175 99.118632 
L 315.321764 98.894796 
L 315.181282 98.595652 
L 313.495494 90.395935 
L 311.669225 82.464821 
L 311.38826 81.942535 
L 310.12392 80.201119 
L 309.842955 81.562186 
L 307.735721 93.806237 
L 306.752345 98.831288 
L 304.223664 106.88074 
L 303.661735 108.663107 
L 301.835465 73.432916 
L 299.306784 100.138912 
L 298.744855 104.846774 
L 297.340032 103.91603 
L 296.778103 105.722341 
L 294.389904 113.695793 
L 294.10894 113.316138 
L 291.158812 108.754724 
L 289.19206 119.725854 
L 287.36579 134.999164 
L 285.960968 146.07267 
L 285.820485 146.196214 
L 283.291804 131.579145 
L 281.465535 122.105466 
L 281.044088 119.857727 
L 280.622641 115.34108 
L 278.796372 102.847859 
L 276.970102 91.84723 
L 275.705761 85.954594 
L 275.565279 85.871653 
L 272.755634 99.229683 
L 270.788882 108.587106 
L 268.119718 121.891693 
L 264.888626 100.129542 
L 264.748144 100.403352 
L 262.500427 126.107461 
L 261.938498 131.868571 
L 260.112228 140.556219 
L 259.971746 140.641242 
L 258.285959 135.204608 
L 256.319207 125.575458 
L 255.195349 120.348086 
L 253.650044 123.289199 
L 253.088115 124.302538 
L 250.840398 139.346111 
L 249.576058 147.342814 
L 247.468823 138.67703 
L 245.923518 133.029053 
L 243.956766 135.207038 
L 239.742298 141.83018 
L 236.932653 145.906094 
L 235.387347 152.302276 
L 235.246865 152.052064 
L 233.70156 146.916309 
L 232.43722 143.402591 
L 232.015773 142.392375 
L 230.61095 132.441177 
L 230.049021 128.376716 
L 227.941787 151.946219 
L 226.396482 167.010615 
L 225.975035 171.363462 
L 224.289247 220.937258 
L 221.620084 204.404909 
L 220.355744 197.314312 
L 218.529474 173.95407 
L 215.017417 176.073059 
L 214.455488 176.473189 
L 212.629218 160.475619 
L 209.538608 146.791377 
L 209.398126 146.051154 
L 209.257644 146.077528 
L 207.15041 191.607686 
L 205.043175 173.317957 
L 201.390636 142.985803 
L 200.969189 145.108957 
L 196.754721 167.538454 
L 195.349898 174.471845 
L 194.787969 175.24226 
L 193.102182 177.200225 
L 189.449642 181.005799 
L 187.623373 165.269546 
L 186.359032 163.496896 
L 185.375656 162.458571 
L 184.813727 162.10772 
L 184.532763 162.00708 
L 184.39228 161.417469 
L 182.425529 136.732599 
L 180.599259 142.560687 
L 180.177812 143.804109 
L 177.227684 172.212306 
L 176.244308 180.767387 
L 174.418039 155.665035 
L 174.277556 154.80439 
L 173.29418 154.941122 
L 172.732251 154.825907 
L 172.170322 154.485813 
L 171.748875 161.364026 
L 169.922606 191.8166 
L 166.129584 200.738495 
L 165.84862 198.533095 
L 164.443797 186.383437 
L 162.477045 176.781008 
L 160.229329 166.431068 
L 157.700647 185.011959 
L 156.436307 193.348061 
L 154.610037 200.312685 
L 152.362321 199.216405 
L 151.65991 198.625406 
L 151.09798 197.995539 
L 149.974122 214.380399 
L 149.412193 221.640002 
L 147.023994 210.010201 
L 145.478689 209.415385 
L 144.635796 209.226251 
L 144.354831 208.309041 
L 142.247597 199.793175 
L 140.280845 202.480606 
L 137.892646 205.455034 
L 136.206859 201.689715 
L 135.925894 201.054296 
L 133.678178 192.999292 
L 131.570944 190.085248 
L 130.306603 188.710994 
L 129.46371 188.131447 
L 129.182745 188.00825 
L 128.058887 178.434278 
L 126.794546 165.692927 
L 125.108759 166.918304 
L 123.422972 168.362312 
L 123.142007 168.862735 
L 121.45622 172.388947 
L 120.613326 172.648528 
L 119.910915 173.036165 
L 119.068021 165.369492 
L 116.398858 163.104748 
L 116.117893 165.135244 
L 113.729694 187.868395 
L 111.62246 210.819831 
L 110.639084 220.395538 
L 107.829439 291.401109 
L 107.688956 293.986859 
L 104.317382 292.667089 
L 104.036417 292.03514 
L 101.086289 283.760116 
L 98.417126 276.707693 
L 97.43375 276.757319 
L 96.590856 276.99122 
L 96.309892 277.117887 
L 96.16941 276.532788 
L 92.095423 245.405232 
L 89.707225 242.589746 
L 89.566742 242.600851 
L 88.021437 247.324677 
L 86.476132 243.138754 
L 85.492756 240.586319 
L 83.666487 228.410634 
L 83.24504 225.857852 
L 83.104558 225.687459 
L 81.840217 232.37272 
L 81.278288 235.15385 
L 81.137806 187.87256 
L 79.732983 186.682233 
L 78.749607 188.209877 
L 76.501891 193.39734 
L 74.394656 199.925395 
L 73.832727 202.614908 
L 73.832727 202.614908 
" clip-path="url(#p183932dfa1)" style="fill: none; stroke: #1f77b4; stroke-width: 1.5; stroke-linecap: square"/>
   </g>
   <g id="line2d_12">
    <path d="M 398.487273 99.041293 
L 397.784861 106.257606 
L 397.644379 105.919191 
L 397.503897 106.046968 
L 397.363414 108.7966 
L 397.222932 108.375403 
L 397.08245 107.524569 
L 396.941968 107.953335 
L 396.801485 107.711905 
L 396.661003 106.567435 
L 396.520521 106.51783 
L 396.099074 110.467327 
L 395.818109 113.740094 
L 395.537145 115.871457 
L 395.115698 111.397443 
L 394.975216 111.993375 
L 394.834733 110.510848 
L 394.694251 111.275741 
L 394.553769 111.173932 
L 394.413287 110.619792 
L 394.272804 110.573742 
L 394.132322 110.132427 
L 393.99184 110.481134 
L 393.851358 110.161107 
L 393.710875 110.40995 
L 393.570393 111.909326 
L 393.008464 108.09394 
L 392.587017 111.589067 
L 392.16557 110.507818 
L 391.744123 107.31282 
L 391.463159 103.552989 
L 391.322677 102.609159 
L 391.182194 102.767566 
L 391.041712 101.836477 
L 390.90123 101.697515 
L 390.760747 101.216729 
L 390.620265 99.38694 
L 390.479783 100.026147 
L 390.339301 99.567152 
L 390.198818 98.413148 
L 390.058336 98.749216 
L 389.777371 95.68317 
L 389.496407 91.720139 
L 389.215442 88.600229 
L 389.07496 88.338953 
L 388.934478 88.474099 
L 388.793996 88.421653 
L 388.653513 89.38048 
L 388.513031 89.154673 
L 388.372549 90.956105 
L 388.232066 91.065224 
L 387.81062 87.200245 
L 387.670137 86.91441 
L 387.529655 84.985632 
L 387.24869 84.622225 
L 386.686761 78.40678 
L 386.546279 78.25631 
L 386.405797 79.623323 
L 386.265315 79.246574 
L 385.843868 75.584759 
L 385.281939 66.421653 
L 384.860492 69.305924 
L 384.720009 69.519803 
L 384.579527 70.840551 
L 384.017598 65.754672 
L 383.877116 65.458739 
L 383.736633 65.651612 
L 383.455669 68.262186 
L 383.174704 70.214732 
L 382.89374 67.230067 
L 382.753258 67.802685 
L 382.612775 67.569654 
L 382.472293 67.66827 
L 382.331811 69.832667 
L 382.191328 70.062633 
L 382.050846 69.535008 
L 381.769882 71.704029 
L 381.629399 71.524616 
L 381.348435 73.166485 
L 380.786506 79.004914 
L 380.224577 74.287039 
L 379.943612 76.049678 
L 379.662647 77.521557 
L 379.522165 79.709486 
L 379.241201 77.830515 
L 378.960236 76.699959 
L 378.819754 75.399287 
L 378.679271 75.607693 
L 378.257825 87.487232 
L 377.555413 80.158758 
L 377.414931 80.369209 
L 377.274449 79.680248 
L 376.993484 80.451834 
L 376.71252 80.311098 
L 376.572037 78.176195 
L 375.869626 81.989931 
L 375.729144 80.876105 
L 375.307697 72.246007 
L 374.745768 76.157361 
L 374.605285 77.577636 
L 374.464803 77.26325 
L 374.183839 78.964718 
L 373.762392 78.066773 
L 373.481427 79.945259 
L 373.340945 79.352124 
L 373.05998 80.333789 
L 372.919498 79.984638 
L 372.779016 81.894306 
L 372.638533 81.835199 
L 372.357569 79.073041 
L 372.217087 78.714567 
L 372.076604 79.134268 
L 371.79564 80.541818 
L 371.374193 78.265704 
L 371.233711 78.328495 
L 370.812264 74.173649 
L 370.531299 72.541273 
L 370.390817 73.451837 
L 369.828888 67.789362 
L 369.688406 67.823824 
L 369.407441 68.180499 
L 368.985994 65.87223 
L 368.70503 62.863176 
L 368.424065 64.443665 
L 368.283583 64.306047 
L 367.581171 73.656681 
L 367.440689 73.051585 
L 367.300207 73.246455 
L 366.87876 76.800661 
L 366.738278 77.386044 
L 366.597796 79.408343 
L 366.457313 79.385086 
L 366.176349 81.924824 
L 365.895384 82.625704 
L 365.754902 83.032461 
L 365.473937 85.198288 
L 365.333455 84.754151 
L 365.192973 85.224071 
L 365.05249 87.605745 
L 364.912008 86.599852 
L 364.631044 83.75134 
L 364.209597 83.834687 
L 364.069115 85.624061 
L 363.928632 85.840439 
L 363.647668 85.059081 
L 363.507185 85.96327 
L 363.366703 86.135619 
L 363.085739 85.040884 
L 362.945256 86.840662 
L 362.664292 87.322738 
L 362.523809 86.968399 
L 362.383327 87.263592 
L 362.242845 86.665897 
L 361.96188 83.868531 
L 361.821398 82.646043 
L 361.540433 82.759229 
L 360.69754 78.713463 
L 360.416575 76.858375 
L 360.276093 76.767382 
L 360.135611 75.881802 
L 359.714164 69.912546 
L 359.573682 69.592152 
L 359.433199 68.653952 
L 359.152235 73.117781 
L 358.87127 84.895799 
L 358.590306 77.776875 
L 358.449823 77.103889 
L 358.309341 75.836884 
L 358.028377 71.414579 
L 357.747412 69.770336 
L 357.60693 67.878291 
L 357.325965 67.199867 
L 357.045001 69.749839 
L 356.904518 72.369908 
L 356.623554 73.023536 
L 356.483071 72.05956 
L 356.202107 68.067624 
L 355.921142 58.013913 
L 355.640178 63.613305 
L 355.499696 64.54168 
L 355.359213 64.507942 
L 355.078249 66.52139 
L 354.937766 66.388038 
L 354.656802 69.713577 
L 354.51632 69.773237 
L 354.375837 70.726658 
L 354.235355 69.510397 
L 354.094873 69.343012 
L 353.813908 70.949414 
L 353.673426 71.117557 
L 353.532944 71.921164 
L 353.392461 71.779991 
L 353.251979 72.017979 
L 353.111497 71.253307 
L 352.971015 71.834658 
L 352.69005 73.900005 
L 352.549568 73.65615 
L 352.409085 74.457203 
L 352.128121 77.078819 
L 351.987639 78.149039 
L 351.847156 77.315529 
L 351.566192 77.046485 
L 351.425709 76.586088 
L 351.144745 81.086438 
L 350.86378 80.196248 
L 350.723298 80.956432 
L 350.582816 80.893065 
L 350.301851 80.436907 
L 350.161369 80.274344 
L 349.880404 78.570008 
L 349.739922 79.237385 
L 349.458958 81.574061 
L 349.177993 77.868445 
L 349.037511 77.918698 
L 348.756546 76.823911 
L 348.475582 78.211017 
L 348.054135 74.414775 
L 347.913652 74.253802 
L 347.77317 73.03981 
L 347.632688 74.092558 
L 347.492206 74.001515 
L 347.351723 73.556633 
L 347.211241 73.939763 
L 347.070759 73.821162 
L 346.930277 73.320878 
L 346.789794 71.355864 
L 346.649312 71.115228 
L 346.50883 69.58911 
L 345.946901 75.018541 
L 345.806418 75.23308 
L 345.384971 72.175988 
L 345.104007 73.47009 
L 344.963525 76.247578 
L 344.823042 76.136087 
L 344.68256 77.011442 
L 344.542078 75.994601 
L 344.401596 76.792108 
L 344.261113 75.688331 
L 344.120631 75.622495 
L 343.980149 75.202964 
L 343.558702 79.390689 
L 343.41822 79.762149 
L 342.996773 77.486555 
L 342.575326 79.476634 
L 342.434844 79.275032 
L 342.294361 79.471457 
L 342.153879 79.444474 
L 342.013397 76.739372 
L 341.872915 78.296107 
L 341.732432 78.459163 
L 341.59195 81.241152 
L 341.451468 81.025356 
L 341.170503 82.688168 
L 341.030021 82.442956 
L 340.889539 81.688212 
L 340.749056 81.835595 
L 340.608574 81.431207 
L 340.468092 81.482794 
L 340.327609 81.763073 
L 340.046645 83.054951 
L 339.906163 82.245705 
L 339.76568 82.789008 
L 339.344234 85.970107 
L 339.203751 85.458788 
L 338.922787 86.251002 
L 338.782304 86.568425 
L 338.50134 85.789447 
L 338.220375 86.528862 
L 337.939411 89.073467 
L 337.658446 88.588889 
L 337.517964 88.888108 
L 337.377482 88.892978 
L 337.236999 90.001099 
L 337.096517 89.705739 
L 336.956035 90.376337 
L 336.67507 89.640739 
L 336.394106 88.876689 
L 336.253623 89.045225 
L 335.551212 91.784444 
L 335.270247 93.127602 
L 335.129765 93.173355 
L 334.848801 92.787075 
L 334.708318 92.662048 
L 334.567836 91.976745 
L 334.427354 92.163383 
L 334.146389 87.977842 
L 334.005907 87.447214 
L 333.865425 87.645749 
L 333.724942 87.083904 
L 333.58446 87.446877 
L 333.303496 86.214706 
L 333.163013 86.25222 
L 332.741566 81.212337 
L 332.601084 82.230466 
L 332.460602 81.861697 
L 332.32012 80.649847 
L 332.179637 80.804251 
L 332.039155 79.380809 
L 331.898673 79.376322 
L 331.477226 76.646883 
L 331.336744 76.606924 
L 331.055779 75.155282 
L 330.915297 74.418487 
L 330.774815 75.192746 
L 330.634332 74.81071 
L 330.49385 75.241389 
L 329.791439 71.795176 
L 329.510474 69.180755 
L 329.369992 68.637299 
L 329.229509 67.399459 
L 329.089027 67.47346 
L 328.948545 67.302792 
L 328.66758 68.499958 
L 328.527098 67.076434 
L 328.246134 68.213361 
L 328.105651 68.083255 
L 327.824687 65.36309 
L 327.122275 58.617369 
L 326.981793 58.98913 
L 326.841311 61.468724 
L 326.700828 61.128521 
L 325.998417 76.001345 
L 325.717452 71.929733 
L 325.015041 77.62355 
L 324.874559 77.780733 
L 323.891183 86.242712 
L 323.610218 89.925172 
L 323.469736 89.842066 
L 323.329254 89.304864 
L 323.188771 89.263645 
L 323.048289 85.496568 
L 322.48636 94.144274 
L 322.345878 93.895248 
L 321.924431 96.078009 
L 321.783949 96.146667 
L 321.643466 93.983462 
L 321.502984 95.204025 
L 321.362502 94.106493 
L 321.22202 94.258585 
L 320.941055 96.517269 
L 320.800573 97.963217 
L 320.66009 96.759248 
L 320.519608 96.564421 
L 320.238644 91.952216 
L 319.676715 94.257287 
L 319.536232 92.945566 
L 319.39575 93.301493 
L 319.255268 92.18144 
L 319.114785 92.267729 
L 318.974303 91.859562 
L 318.833821 92.073539 
L 318.693339 93.297397 
L 318.552856 92.732093 
L 318.412374 93.030278 
L 318.271892 92.226232 
L 317.990927 89.261334 
L 317.850445 87.886976 
L 317.56948 88.342651 
L 317.148034 93.985448 
L 316.586104 86.594035 
L 316.445622 84.434233 
L 316.164658 88.262178 
L 315.883693 99.586471 
L 315.462246 91.864099 
L 315.321764 90.856344 
L 315.181282 90.723371 
L 315.040799 89.90681 
L 314.900317 88.045687 
L 314.759835 87.831459 
L 314.619353 88.294401 
L 314.47887 87.62223 
L 314.057423 84.049299 
L 313.916941 83.79683 
L 313.635977 88.980603 
L 313.355012 93.677746 
L 313.074047 83.068543 
L 312.933565 76.097769 
L 312.793083 77.325784 
L 312.512118 80.747133 
L 312.231154 82.941795 
L 311.809707 81.311363 
L 311.38826 77.562788 
L 311.107296 83.100053 
L 310.826331 90.813974 
L 310.404884 77.253067 
L 310.264402 77.5895 
L 310.12392 77.540835 
L 309.702473 83.167371 
L 309.56199 83.287474 
L 309.421508 82.903148 
L 309.281026 83.268087 
L 309.140544 84.022324 
L 309.000061 87.060061 
L 308.859579 86.976199 
L 308.719097 87.964491 
L 308.438132 92.378372 
L 308.29765 91.595401 
L 307.876203 80.898858 
L 307.595239 85.140863 
L 307.314274 91.442962 
L 307.173792 93.515141 
L 307.033309 93.616794 
L 306.892827 96.314468 
L 306.611863 95.59758 
L 306.47138 96.540935 
L 306.190416 96.786679 
L 306.049934 95.121058 
L 305.909451 96.261086 
L 305.628487 94.886021 
L 305.066558 98.864844 
L 304.926075 98.199149 
L 304.785593 98.962943 
L 304.645111 98.682307 
L 304.364146 96.867989 
L 304.223664 96.497047 
L 303.942699 100.475341 
L 303.802217 100.142782 
L 303.661735 100.382298 
L 303.38077 98.544406 
L 302.959323 92.052371 
L 302.397394 85.121401 
L 302.256912 84.181058 
L 302.11643 84.324002 
L 301.835465 80.950735 
L 301.273536 88.450666 
L 300.992571 83.434777 
L 300.571125 86.502068 
L 300.430642 86.723116 
L 300.29016 88.410993 
L 300.009196 94.183924 
L 299.728231 97.470795 
L 299.587749 97.72047 
L 299.306784 98.673329 
L 299.166302 96.349279 
L 298.744855 101.098246 
L 298.604373 100.889173 
L 298.323408 98.471157 
L 298.182926 98.627421 
L 297.761479 101.824646 
L 297.340032 103.069345 
L 297.19955 99.751228 
L 296.918585 98.977306 
L 296.778103 99.698668 
L 296.637621 101.579531 
L 296.356656 102.191266 
L 296.216174 104.730452 
L 296.075692 104.90055 
L 295.935209 104.636008 
L 295.794727 102.937962 
L 295.654245 103.489766 
L 295.232798 106.724443 
L 295.092316 106.988699 
L 294.951834 106.814308 
L 294.670869 104.278821 
L 294.530387 103.635247 
L 294.389904 103.698154 
L 294.10894 108.682355 
L 293.968458 109.221958 
L 293.547011 105.214351 
L 293.406528 105.578814 
L 293.266046 105.329038 
L 292.985082 108.265176 
L 292.844599 108.693848 
L 292.704117 108.051039 
L 292.563635 108.192983 
L 292.423153 108.051874 
L 292.142188 103.850973 
L 292.001706 103.653823 
L 291.580259 107.097537 
L 291.439777 106.413429 
L 291.158812 103.330134 
L 290.737365 105.100516 
L 290.456401 105.171549 
L 290.175436 108.47559 
L 290.034954 110.602428 
L 289.473025 107.7606 
L 289.19206 111.770236 
L 288.489649 117.111276 
L 288.349166 117.043001 
L 288.208684 117.103631 
L 288.068202 117.984969 
L 287.646755 122.593253 
L 287.506273 122.737004 
L 287.36579 122.146999 
L 287.084826 119.310089 
L 286.803861 123.934699 
L 286.663379 123.409136 
L 286.382415 124.748063 
L 286.10145 126.584863 
L 285.680003 131.981416 
L 285.399039 129.785894 
L 285.258556 128.92019 
L 284.977592 125.720123 
L 284.696627 124.051993 
L 284.556145 124.044068 
L 284.134698 119.792482 
L 283.853734 120.351406 
L 283.572769 128.602751 
L 283.432287 127.850012 
L 282.870358 118.516488 
L 282.729875 114.889371 
L 282.448911 116.299718 
L 282.308428 115.795987 
L 282.167946 117.543668 
L 282.027464 117.696412 
L 281.886982 116.95316 
L 281.606017 117.908062 
L 281.465535 120.625739 
L 281.325053 121.048962 
L 281.18457 120.214172 
L 280.903606 115.116197 
L 280.622641 107.708216 
L 280.201194 111.475014 
L 280.060712 111.910887 
L 279.779747 110.048125 
L 279.639265 110.983209 
L 279.498783 110.621415 
L 279.358301 110.66657 
L 279.217818 110.361672 
L 279.077336 108.729763 
L 278.936854 108.506322 
L 278.796372 106.75322 
L 278.655889 106.417625 
L 278.515407 104.629339 
L 278.374925 104.945417 
L 278.234442 104.708323 
L 277.953478 107.277785 
L 277.812996 107.191142 
L 277.251066 100.540927 
L 277.110584 100.923578 
L 276.970102 99.938352 
L 276.82962 100.591814 
L 276.689137 99.431055 
L 276.408173 100.455833 
L 276.127208 97.921958 
L 275.986726 98.386034 
L 275.846244 98.458156 
L 275.424797 91.676954 
L 275.284315 92.6503 
L 275.143832 94.717822 
L 274.862868 102.000346 
L 274.722385 105.922716 
L 274.300939 101.438614 
L 274.160456 100.566966 
L 273.879492 101.705929 
L 273.598527 106.991319 
L 273.458045 104.592396 
L 273.317563 104.887143 
L 273.17708 106.011168 
L 273.036598 105.63079 
L 272.896116 105.641103 
L 272.474669 112.668864 
L 272.334187 113.683157 
L 272.193704 112.275562 
L 271.91274 104.53868 
L 271.772258 101.609537 
L 271.069846 114.013522 
L 270.929364 113.942818 
L 270.648399 110.088685 
L 270.367435 114.290291 
L 270.226953 114.785348 
L 269.945988 116.015667 
L 269.805506 115.211714 
L 269.665023 116.567194 
L 269.524541 115.631387 
L 269.384059 116.440494 
L 269.243577 116.463257 
L 269.103094 116.190516 
L 268.962612 118.111274 
L 268.82213 118.382287 
L 268.681647 118.030671 
L 268.400683 118.98644 
L 268.260201 120.660458 
L 267.979236 127.955766 
L 267.838754 125.885865 
L 267.557789 120.206639 
L 267.417307 119.832721 
L 267.136342 117.725438 
L 266.855378 118.58663 
L 266.714896 117.982909 
L 266.574413 118.343273 
L 266.293449 117.100754 
L 266.152966 118.162711 
L 265.872002 115.209263 
L 265.591037 115.931912 
L 265.450555 115.402661 
L 265.310073 112.711207 
L 265.029108 104.099726 
L 264.186215 117.795852 
L 264.045732 117.103483 
L 263.90525 118.569126 
L 263.764768 118.582704 
L 263.343321 123.653935 
L 263.202839 123.719967 
L 262.781392 128.690133 
L 262.640909 127.854994 
L 262.500427 128.364774 
L 262.219463 132.770516 
L 262.07898 132.60242 
L 261.798016 133.380276 
L 261.657534 132.980379 
L 261.517051 133.160614 
L 261.376569 131.878921 
L 261.095604 135.54827 
L 260.955122 134.488404 
L 260.81464 134.849297 
L 260.533675 136.8499 
L 260.393193 135.564497 
L 260.112228 136.883275 
L 259.831264 135.920327 
L 259.690782 137.723153 
L 259.550299 137.804685 
L 259.409817 136.131532 
L 259.128853 135.772689 
L 258.98837 135.006142 
L 258.847888 135.422625 
L 258.707406 135.491145 
L 258.426441 138.138679 
L 258.145477 133.91903 
L 258.004994 133.276825 
L 257.864512 134.299016 
L 257.72403 133.016753 
L 257.443065 132.901043 
L 257.302583 133.676698 
L 257.162101 131.349928 
L 257.021618 131.252538 
L 256.459689 128.346645 
L 256.319207 128.409448 
L 256.178725 128.242712 
L 256.038242 127.148821 
L 255.757278 121.454863 
L 255.335831 109.299071 
L 255.195349 110.85664 
L 254.914384 132.196112 
L 254.773902 150.401821 
L 254.07149 113.806267 
L 253.931008 111.788006 
L 253.790526 112.464462 
L 253.650044 118.060292 
L 253.369079 147.528605 
L 252.947632 134.40815 
L 252.666668 135.605624 
L 252.385703 143.183991 
L 252.245221 143.352963 
L 252.104739 137.919519 
L 251.823774 105.659222 
L 250.98088 153.009222 
L 250.840398 151.586952 
L 250.699916 146.878875 
L 250.418951 118.542234 
L 249.997504 137.671065 
L 249.71654 146.675039 
L 249.576058 146.388751 
L 249.435575 145.911233 
L 249.154611 143.779534 
L 249.014128 144.720173 
L 248.873646 144.564375 
L 248.733164 145.286355 
L 248.452199 142.473853 
L 248.311717 142.355832 
L 248.030753 140.41854 
L 247.89027 141.148763 
L 247.609306 139.243238 
L 247.328341 143.304734 
L 247.187859 143.929868 
L 247.047377 145.383294 
L 246.766412 140.189912 
L 246.62593 139.570966 
L 246.485447 139.72597 
L 246.344965 141.336566 
L 246.204483 141.194082 
L 246.064001 141.384726 
L 245.923518 141.894427 
L 245.783036 140.852015 
L 245.642554 141.715536 
L 245.502072 139.88943 
L 245.221107 139.340654 
L 244.940142 141.45268 
L 244.659178 142.393273 
L 244.097249 137.782315 
L 243.956766 138.218728 
L 243.53532 142.389104 
L 243.394837 142.011347 
L 243.113873 143.38263 
L 242.973391 141.336988 
L 242.692426 142.525083 
L 242.411461 143.441926 
L 242.270979 144.933176 
L 242.130497 145.149203 
L 241.990015 145.841211 
L 241.568568 144.630532 
L 241.287603 145.066365 
L 241.147121 143.474304 
L 241.006639 145.561495 
L 240.866156 144.676563 
L 240.585192 145.884423 
L 240.444709 147.830417 
L 240.163745 146.293736 
L 240.023263 147.24247 
L 239.88278 146.338942 
L 239.742298 146.164777 
L 239.461334 149.735637 
L 239.039887 146.000713 
L 238.196993 150.78037 
L 238.056511 151.019329 
L 237.916028 150.243613 
L 237.494582 145.125615 
L 237.213617 146.187953 
L 236.932653 147.960096 
L 236.79217 145.939409 
L 236.230241 126.06411 
L 236.089759 125.76742 
L 235.949277 131.034345 
L 235.668312 165.600085 
L 235.52783 192.630615 
L 235.106383 158.26827 
L 234.825418 148.285314 
L 234.684936 146.400496 
L 234.544454 147.971891 
L 234.403972 147.951149 
L 234.263489 149.403232 
L 233.982525 147.753951 
L 233.842042 149.328953 
L 233.561078 157.364887 
L 233.280113 169.171674 
L 233.139631 170.35403 
L 232.999149 164.757287 
L 232.718184 129.95661 
L 232.577702 102.83376 
L 232.156255 136.741573 
L 231.875291 146.990458 
L 231.453844 151.578928 
L 231.313361 148.546489 
L 231.172879 148.584783 
L 230.61095 144.375419 
L 230.329985 144.025555 
L 230.189503 143.046095 
L 230.049021 143.051441 
L 229.908539 143.564781 
L 229.768056 144.870977 
L 229.487092 149.458727 
L 229.346609 149.660282 
L 228.925163 152.393335 
L 228.78468 154.14574 
L 228.503716 150.325456 
L 228.082269 155.972266 
L 227.801304 159.307901 
L 227.660822 161.528092 
L 227.52034 161.47666 
L 227.239375 163.484166 
L 226.958411 167.091566 
L 226.817928 165.85378 
L 226.677446 165.96208 
L 226.536964 165.523153 
L 225.834553 170.677941 
L 224.710694 194.375253 
L 224.289247 199.202627 
L 224.008283 197.876615 
L 223.867801 199.174318 
L 223.727318 197.078775 
L 223.586836 197.405112 
L 223.305872 196.075053 
L 223.024907 196.662477 
L 222.884425 196.809443 
L 222.60346 194.415621 
L 222.322496 191.920668 
L 222.182013 192.021676 
L 221.620084 186.171433 
L 221.479602 185.662811 
L 221.198637 187.442788 
L 220.917673 196.007616 
L 220.074779 183.8296 
L 219.793815 182.080803 
L 219.653332 182.385269 
L 219.51285 181.87996 
L 219.372368 180.841358 
L 219.091403 177.716024 
L 218.950921 178.653901 
L 218.810439 178.576938 
L 218.669956 178.812597 
L 218.24851 174.414042 
L 217.967545 165.28179 
L 217.546098 173.895776 
L 217.405616 173.828867 
L 217.265134 174.593431 
L 217.124651 174.652677 
L 216.984169 175.177296 
L 216.843687 174.576003 
L 216.703204 175.417515 
L 216.562722 174.536267 
L 216.42224 174.905256 
L 216.281758 176.813059 
L 216.141275 177.040873 
L 215.860311 174.243929 
L 215.579346 176.664325 
L 215.438864 178.132212 
L 215.157899 177.011327 
L 215.017417 176.636169 
L 214.876935 176.592577 
L 214.736453 177.065183 
L 214.59597 176.29052 
L 214.455488 177.696315 
L 214.315006 176.675567 
L 214.174523 176.916621 
L 214.034041 175.768451 
L 213.893559 175.558437 
L 213.612594 172.213358 
L 213.33163 168.399624 
L 213.191147 168.848528 
L 213.050665 171.025131 
L 212.910183 170.936257 
L 212.629218 168.175765 
L 212.207772 166.947755 
L 212.067289 167.118413 
L 211.926807 166.624907 
L 211.786325 165.035014 
L 211.645842 165.556135 
L 210.943431 162.588066 
L 210.802949 162.75035 
L 210.662466 163.676344 
L 210.381502 166.075972 
L 210.100537 161.970546 
L 209.960055 161.818284 
L 209.538608 159.17638 
L 209.257644 159.849729 
L 209.117161 161.086887 
L 208.836197 167.298383 
L 208.695715 167.915817 
L 208.555232 169.167738 
L 208.274268 174.598912 
L 207.993303 178.150498 
L 207.852821 181.176354 
L 207.571856 181.981289 
L 207.15041 188.032508 
L 207.009927 186.451678 
L 206.869445 186.772538 
L 206.728963 186.754119 
L 206.58848 185.713547 
L 206.447998 185.705488 
L 206.307516 185.273077 
L 206.167034 183.854235 
L 206.026551 180.860817 
L 205.886069 180.748897 
L 205.745587 181.297121 
L 205.464622 179.984577 
L 205.32414 180.030536 
L 204.481246 174.746063 
L 204.200282 172.563895 
L 203.919317 170.969995 
L 203.638353 170.982267 
L 203.49787 170.246833 
L 203.357388 170.325341 
L 203.076423 173.671999 
L 202.374012 163.537645 
L 202.23353 163.983244 
L 202.093047 163.757809 
L 201.812083 161.604872 
L 201.671601 162.408362 
L 201.531118 161.47452 
L 201.250154 163.522492 
L 201.109672 163.633897 
L 200.969189 163.542923 
L 200.828707 164.205928 
L 200.688225 163.573034 
L 200.547742 162.026322 
L 200.40726 161.882868 
L 200.266778 161.54524 
L 200.126296 160.133452 
L 199.423884 166.166474 
L 199.14292 166.729316 
L 198.861955 168.69012 
L 198.721473 169.338349 
L 198.580991 170.723222 
L 198.300026 169.167791 
L 198.159544 170.948559 
L 197.878579 170.788247 
L 197.597615 174.666924 
L 197.457132 175.414271 
L 197.31665 175.424933 
L 197.176168 175.975624 
L 197.035685 175.752149 
L 196.614239 177.805038 
L 196.333274 175.538741 
L 196.05231 178.002762 
L 195.771345 178.863326 
L 195.630863 178.291708 
L 194.928451 181.778816 
L 194.787969 180.127407 
L 194.647487 182.011081 
L 194.507004 181.991745 
L 194.366522 182.467782 
L 194.22604 180.881465 
L 194.085558 181.498477 
L 193.804593 180.596344 
L 193.383146 183.578078 
L 193.242664 183.318708 
L 193.102182 182.187874 
L 192.821217 183.581552 
L 192.540253 181.416307 
L 192.39977 181.503561 
L 192.259288 182.671097 
L 192.118806 182.41217 
L 191.978323 182.450566 
L 191.837841 184.253308 
L 191.556877 181.320687 
L 191.416394 179.924385 
L 190.854465 185.9177 
L 190.573501 185.9988 
L 190.433018 186.798189 
L 190.152054 184.336213 
L 190.011572 184.097635 
L 189.871089 182.682306 
L 189.449642 185.769374 
L 189.168678 183.739816 
L 188.606749 181.921059 
L 188.466266 181.00487 
L 188.325784 181.883805 
L 187.763855 173.381119 
L 187.623373 173.606502 
L 187.482891 174.58778 
L 187.201926 177.999717 
L 187.061444 177.361427 
L 186.780479 175.13895 
L 186.639997 175.243366 
L 186.499515 173.677867 
L 186.359032 173.385609 
L 186.21855 175.207762 
L 186.078068 175.349281 
L 185.797103 174.453911 
L 185.516139 176.764913 
L 185.375656 175.569534 
L 185.235174 175.485967 
L 185.094692 174.502356 
L 184.813727 176.768211 
L 184.251798 172.617269 
L 184.111316 172.767132 
L 183.549387 170.680165 
L 182.706493 160.311855 
L 182.566011 160.214482 
L 182.425529 159.756516 
L 182.285046 160.149326 
L 182.144564 160.902682 
L 182.004082 162.401662 
L 181.723117 162.781998 
L 181.582635 162.582244 
L 181.442153 163.713167 
L 181.161188 160.961746 
L 181.020706 161.498769 
L 180.880223 163.345951 
L 180.739741 162.913077 
L 180.318294 167.062023 
L 180.177812 167.073013 
L 180.03733 168.067214 
L 179.896847 168.166069 
L 179.615883 167.487981 
L 179.475401 168.22161 
L 179.194436 170.399248 
L 179.053954 170.357172 
L 178.913472 171.032019 
L 178.070578 179.305475 
L 177.508649 176.299913 
L 177.227684 180.985488 
L 176.94672 188.317426 
L 176.806237 188.34088 
L 176.665755 188.796539 
L 176.525273 187.079193 
L 176.244308 187.545929 
L 175.822861 184.307555 
L 175.682379 181.826456 
L 175.541897 181.477762 
L 175.12045 178.15352 
L 174.839485 179.073568 
L 174.699003 178.69187 
L 174.558521 177.40464 
L 174.277556 171.695767 
L 173.996592 168.272243 
L 173.434663 172.064791 
L 173.29418 172.008931 
L 173.153698 172.220327 
L 172.872734 173.080937 
L 172.732251 175.232402 
L 172.591769 173.845126 
L 172.451287 174.072891 
L 172.170322 172.068525 
L 171.748875 176.025228 
L 171.327429 182.901018 
L 171.046464 184.13822 
L 170.344053 192.830755 
L 170.20357 193.611159 
L 170.063088 195.474962 
L 169.922606 195.827824 
L 169.782123 194.084592 
L 169.501159 194.238784 
L 169.220194 197.52416 
L 169.079712 196.474695 
L 168.93923 196.97604 
L 168.798747 198.151598 
L 168.517783 197.044456 
L 168.236818 196.364448 
L 167.955854 198.959183 
L 167.815372 199.03866 
L 167.674889 197.686741 
L 167.534407 198.139556 
L 167.253442 201.209539 
L 167.11296 200.159924 
L 166.691513 202.675969 
L 166.551031 202.383832 
L 166.410549 201.549739 
L 166.129584 202.630278 
L 165.989102 200.69381 
L 165.84862 200.867229 
L 165.567655 198.594742 
L 165.286691 200.534455 
L 164.865244 195.791734 
L 164.724761 195.840547 
L 164.303315 193.587423 
L 164.162832 193.84709 
L 163.881868 191.294618 
L 163.741385 191.936643 
L 163.600903 192.00652 
L 163.460421 190.751571 
L 163.319939 190.983852 
L 163.179456 190.363219 
L 163.038974 190.333083 
L 162.898492 188.909402 
L 162.75801 189.581753 
L 162.617527 189.274064 
L 162.336563 186.64129 
L 162.19608 187.870814 
L 162.055598 186.354837 
L 161.774634 186.993976 
L 161.634151 186.271181 
L 161.493669 186.790979 
L 161.353187 186.684428 
L 160.93174 183.291249 
L 160.791258 183.103296 
L 160.650775 183.510987 
L 160.510293 183.203301 
L 160.229329 181.803306 
L 159.948364 185.494569 
L 159.807882 184.773205 
L 159.10547 189.920501 
L 158.964988 189.650453 
L 158.824506 190.750242 
L 158.684023 190.835237 
L 158.543541 189.744651 
L 158.403059 189.8522 
L 157.981612 194.925942 
L 157.84113 194.825553 
L 157.700647 195.087749 
L 157.560165 196.10125 
L 157.419683 195.884087 
L 157.279201 197.696549 
L 157.138718 198.039141 
L 156.857754 199.453947 
L 156.717272 199.264751 
L 156.436307 200.184536 
L 156.295825 200.150726 
L 156.155342 200.806095 
L 156.01486 202.871013 
L 155.874378 201.085198 
L 155.593413 201.395281 
L 155.452931 200.871629 
L 155.312449 200.917237 
L 155.171966 201.914243 
L 154.891002 206.407604 
L 154.75052 206.456119 
L 154.610037 206.935099 
L 154.469555 205.934767 
L 154.188591 202.424999 
L 154.048108 201.852307 
L 153.767144 206.152405 
L 153.626661 205.454085 
L 153.345697 205.952465 
L 153.205215 204.431597 
L 153.064732 204.128662 
L 152.783768 205.77043 
L 152.643285 205.268459 
L 152.502803 206.378444 
L 152.362321 206.348044 
L 152.081356 207.307703 
L 151.800392 204.225823 
L 151.65991 203.920152 
L 151.378945 206.861189 
L 151.238463 206.768554 
L 151.09798 207.173205 
L 150.957498 206.721257 
L 150.817016 206.836892 
L 150.536051 209.898917 
L 149.974122 215.305821 
L 149.83364 214.981887 
L 149.693158 217.978878 
L 149.552675 218.028911 
L 148.990746 213.031105 
L 148.709782 218.991842 
L 148.569299 218.427845 
L 148.428817 217.05253 
L 148.147853 220.635147 
L 147.585923 214.241528 
L 147.445441 214.170504 
L 147.304959 214.844545 
L 147.023994 212.993751 
L 146.883512 214.753955 
L 146.74303 213.908848 
L 146.602548 213.940036 
L 146.462065 215.78253 
L 146.321583 215.518964 
L 146.040618 215.640571 
L 145.759654 211.294376 
L 145.619172 211.73594 
L 145.478689 214.468773 
L 145.197725 209.169593 
L 144.91676 211.799871 
L 144.776278 212.193086 
L 144.635796 215.016074 
L 144.354831 212.246429 
L 144.214349 212.50406 
L 144.073866 213.979098 
L 143.933384 213.156681 
L 143.792902 213.602661 
L 143.65242 214.818688 
L 143.230973 211.955603 
L 143.090491 212.318332 
L 142.809526 212.112012 
L 142.669044 211.8174 
L 142.528561 209.397322 
L 142.247597 211.121858 
L 142.107115 211.728553 
L 141.966632 211.669677 
L 141.82615 211.441082 
L 141.685668 210.09379 
L 141.123739 212.907743 
L 140.983256 212.84852 
L 140.842774 213.268602 
L 140.702292 212.625655 
L 140.56181 212.896891 
L 140.140363 214.462348 
L 139.99988 213.744873 
L 139.718916 213.619149 
L 139.578434 214.17391 
L 139.297469 213.660322 
L 139.156987 213.940668 
L 139.016504 215.206892 
L 138.876022 215.236939 
L 138.454575 217.506492 
L 138.314093 216.962508 
L 138.173611 215.915789 
L 138.033129 217.136067 
L 137.752164 214.568541 
L 137.471199 217.164137 
L 137.190235 215.950515 
L 137.049753 216.086597 
L 136.90927 214.899807 
L 136.768788 214.735014 
L 136.628306 214.153604 
L 136.487823 214.715265 
L 136.206859 214.339512 
L 136.066377 214.63979 
L 135.785412 217.565142 
L 135.363965 212.823609 
L 135.223483 213.858452 
L 135.083001 213.574263 
L 134.802036 215.384006 
L 134.380589 210.739725 
L 134.099625 210.961516 
L 133.678178 213.808486 
L 133.537696 213.382945 
L 133.397213 213.816441 
L 133.116249 211.555461 
L 132.975766 209.949627 
L 132.835284 206.279565 
L 132.55432 209.473692 
L 132.273355 210.986997 
L 132.132873 211.163472 
L 131.851908 210.740747 
L 131.570944 212.255563 
L 131.430461 213.227088 
L 131.289979 212.392915 
L 131.149497 213.345654 
L 131.009015 213.102949 
L 130.72805 210.634255 
L 130.447085 208.892422 
L 130.166121 210.561709 
L 130.025639 210.710389 
L 129.885156 213.143881 
L 129.744674 212.377533 
L 129.46371 213.40201 
L 128.620816 207.361273 
L 128.480334 207.44272 
L 128.339851 207.633276 
L 128.199369 208.027264 
L 127.777922 205.804341 
L 127.63744 205.332093 
L 127.215993 200.185943 
L 127.075511 199.803559 
L 126.935029 198.639111 
L 126.513582 202.339408 
L 126.373099 201.845379 
L 126.092135 199.741311 
L 125.951653 200.492114 
L 125.81117 200.071214 
L 125.670688 201.668633 
L 125.530206 201.205657 
L 125.389723 201.593298 
L 125.249241 200.436891 
L 124.968277 200.807982 
L 124.827794 200.348579 
L 124.265865 205.272384 
L 124.125383 205.149643 
L 123.984901 206.179788 
L 123.563454 201.209941 
L 122.861042 207.584013 
L 122.299113 204.556561 
L 122.158631 204.616822 
L 122.018149 205.377963 
L 121.877666 204.961621 
L 121.596702 201.469456 
L 121.034773 186.425715 
L 120.894291 190.307255 
L 120.472844 236.721672 
L 119.770432 203.088789 
L 119.62995 202.849009 
L 119.489468 202.868741 
L 119.348985 203.300809 
L 119.068021 202.053733 
L 118.927539 203.263761 
L 118.506092 210.783237 
L 118.225127 219.551245 
L 118.084645 220.383446 
L 117.944163 216.316085 
L 117.522716 168.716011 
L 117.101269 193.103316 
L 116.820304 213.436926 
L 116.679822 213.396024 
L 116.258375 207.605119 
L 116.117893 207.594096 
L 115.555964 212.420389 
L 115.415482 212.138921 
L 115.274999 212.774623 
L 114.994035 215.841929 
L 114.291623 223.290066 
L 114.151141 221.849118 
L 113.870177 214.114004 
L 113.44873 222.280888 
L 113.167765 227.232441 
L 113.027283 227.719549 
L 112.886801 227.680526 
L 112.605836 229.204024 
L 112.324872 233.203317 
L 112.184389 233.367304 
L 111.62246 240.856072 
L 111.481978 240.043843 
L 110.920049 244.492838 
L 110.779567 245.202381 
L 110.639084 244.832655 
L 109.234261 269.05615 
L 108.953297 271.8769 
L 108.812815 273.278757 
L 108.250885 282.741723 
L 108.110403 283.080544 
L 107.829439 288.33989 
L 107.688956 289.863447 
L 107.548474 289.882803 
L 107.407992 291.594354 
L 107.26751 291.678513 
L 107.127027 290.758671 
L 106.846063 291.544509 
L 106.70558 289.782203 
L 106.565098 290.325881 
L 106.284134 293.005177 
L 106.143651 291.913367 
L 106.003169 291.768901 
L 105.722204 290.261393 
L 105.581722 288.772728 
L 105.44124 290.16408 
L 105.300758 292.890675 
L 105.160275 293.343233 
L 105.019793 292.246424 
L 104.738829 293.60382 
L 104.598346 293.488992 
L 104.457864 292.453748 
L 104.176899 295.488 
L 103.895935 291.890346 
L 103.755453 291.658638 
L 103.61497 290.659151 
L 103.474488 290.524674 
L 103.193523 290.014005 
L 103.053041 291.233654 
L 102.912559 290.248472 
L 102.631594 291.197714 
L 102.491112 290.525487 
L 102.35063 286.460677 
L 102.069665 289.662576 
L 101.788701 288.630846 
L 101.507736 290.382532 
L 101.226772 287.285971 
L 100.945807 289.244058 
L 100.805325 290.284464 
L 100.664842 289.112084 
L 100.383878 285.078609 
L 100.243396 286.770181 
L 100.102913 286.921899 
L 99.821949 289.778137 
L 99.540984 288.830561 
L 99.400502 290.522003 
L 99.119537 286.151858 
L 98.979055 285.997404 
L 98.698091 284.633545 
L 98.417126 281.974154 
L 98.136161 283.912909 
L 97.855197 282.810132 
L 97.293268 287.664733 
L 97.012303 285.213294 
L 96.871821 283.756369 
L 96.731339 283.827661 
L 96.590856 283.524457 
L 96.450374 284.037752 
L 96.16941 285.448025 
L 95.888445 284.285991 
L 95.747963 282.781147 
L 95.60748 283.024052 
L 95.466998 283.686317 
L 95.326516 281.946442 
L 95.186034 281.698339 
L 95.045551 282.79813 
L 94.905069 282.431749 
L 94.202658 273.713968 
L 94.062175 272.695722 
L 93.781211 274.769415 
L 93.640729 274.458057 
L 93.500246 272.476262 
L 93.359764 272.14186 
L 93.219282 271.42394 
L 92.938317 271.242627 
L 92.797835 271.73885 
L 92.657353 270.422292 
L 92.376388 266.954325 
L 92.095423 265.220715 
L 91.954941 265.42774 
L 91.533494 267.387227 
L 91.112048 268.600347 
L 90.690601 264.91575 
L 90.409636 264.027986 
L 90.269154 265.556515 
L 90.128672 264.900935 
L 89.847707 264.899608 
L 89.707225 264.78928 
L 89.566742 264.249497 
L 89.285778 265.63135 
L 89.145296 264.110749 
L 89.004813 264.259201 
L 88.723849 266.641172 
L 88.583367 266.585406 
L 88.442884 267.29757 
L 88.021437 264.451567 
L 87.880955 264.497439 
L 87.599991 267.351737 
L 87.459508 267.266945 
L 87.178544 265.948705 
L 86.897579 263.474594 
L 86.757097 263.134969 
L 86.616615 264.98755 
L 86.33565 263.287176 
L 86.195168 263.713009 
L 85.633239 260.332792 
L 85.492756 258.326929 
L 85.352274 258.155818 
L 85.07131 260.365251 
L 84.930827 259.23591 
L 84.087934 242.13933 
L 83.947451 242.078279 
L 83.666487 253.425443 
L 83.526004 264.423843 
L 82.823593 246.908443 
L 82.683111 247.959014 
L 82.542629 250.635649 
L 82.261664 251.460962 
L 82.121182 251.393474 
L 81.840217 250.34599 
L 81.699735 251.370619 
L 81.278288 258.961274 
L 81.137806 232.763999 
L 80.997323 231.64171 
L 80.716359 217.115372 
L 80.575877 208.13653 
L 79.873465 222.555634 
L 79.732983 221.391434 
L 79.452018 218.020436 
L 79.171054 217.345134 
L 78.890089 221.280127 
L 78.749607 221.134311 
L 78.609125 219.326523 
L 78.468642 219.543263 
L 78.32816 219.255223 
L 78.187678 218.379279 
L 78.047196 218.5285 
L 77.766231 220.040931 
L 77.485267 217.699456 
L 77.344784 218.087927 
L 77.204302 217.404941 
L 77.06382 218.046285 
L 76.923337 216.545701 
L 76.782855 216.749814 
L 76.642373 215.994174 
L 76.501891 217.181709 
L 76.361408 217.007059 
L 76.220926 216.443108 
L 75.939961 213.211802 
L 75.799479 212.957814 
L 75.518515 217.502197 
L 75.23755 222.404505 
L 74.675621 214.846985 
L 74.535139 215.178714 
L 74.113692 215.370097 
L 73.832727 215.4578 
L 73.832727 215.4578 
" clip-path="url(#p183932dfa1)" style="fill: none; stroke: #ff7f0e; stroke-width: 1.5; stroke-linecap: square"/>
   </g>
   <g id="patch_3">
    <path d="M 57.6 307.584 
L 57.6 41.472 
" style="fill: none; stroke: #000000; stroke-width: 0.8; stroke-linejoin: miter; stroke-linecap: square"/>
   </g>
   <g id="patch_4">
    <path d="M 414.72 307.584 
L 414.72 41.472 
" style="fill: none; stroke: #000000; stroke-width: 0.8; stroke-linejoin: miter; stroke-linecap: square"/>
   </g>
   <g id="patch_5">
    <path d="M 57.6 307.584 
L 414.72 307.584 
" style="fill: none; stroke: #000000; stroke-width: 0.8; stroke-linejoin: miter; stroke-linecap: square"/>
   </g>
   <g id="patch_6">
    <path d="M 57.6 41.472 
L 414.72 41.472 
" style="fill: none; stroke: #000000; stroke-width: 0.8; stroke-linejoin: miter; stroke-linecap: square"/>
   </g>
   <g id="text_13">
    <!-- Actual vs. Predicted Values -->
    <g transform="translate(155.29125 35.472) scale(0.12 -0.12)">
     <defs>
      <path id="DejaVuSans-41" d="M 2188 4044 
L 1331 1722 
L 3047 1722 
L 2188 4044 
z
M 1831 4666 
L 2547 4666 
L 4325 0 
L 3669 0 
L 3244 1197 
L 1141 1197 
L 716 0 
L 50 0 
L 1831 4666 
z
" transform="scale(0.015625)"/>
      <path id="DejaVuSans-63" d="M 3122 3366 
L 3122 2828 
Q 2878 2963 2633 3030 
Q 2388 3097 2138 3097 
Q 1578 3097 1268 2742 
Q 959 2388 959 1747 
Q 959 1106 1268 751 
Q 1578 397 2138 397 
Q 2388 397 2633 464 
Q 2878 531 3122 666 
L 3122 134 
Q 2881 22 2623 -34 
Q 2366 -91 2075 -91 
Q 1284 -91 818 406 
Q 353 903 353 1747 
Q 353 2603 823 3093 
Q 1294 3584 2113 3584 
Q 2378 3584 2631 3529 
Q 2884 3475 3122 3366 
z
" transform="scale(0.015625)"/>
      <path id="DejaVuSans-74" d="M 1172 4494 
L 1172 3500 
L 2356 3500 
L 2356 3053 
L 1172 3053 
L 1172 1153 
Q 1172 725 1289 603 
Q 1406 481 1766 481 
L 2356 481 
L 2356 0 
L 1766 0 
Q 1100 0 847 248 
Q 594 497 594 1153 
L 594 3053 
L 172 3053 
L 172 3500 
L 594 3500 
L 594 4494 
L 1172 4494 
z
" transform="scale(0.015625)"/>
      <path id="DejaVuSans-20" transform="scale(0.015625)"/>
      <path id="DejaVuSans-76" d="M 191 3500 
L 800 3500 
L 1894 563 
L 2988 3500 
L 3597 3500 
L 2284 0 
L 1503 0 
L 191 3500 
z
" transform="scale(0.015625)"/>
      <path id="DejaVuSans-73" d="M 2834 3397 
L 2834 2853 
Q 2591 2978 2328 3040 
Q 2066 3103 1784 3103 
Q 1356 3103 1142 2972 
Q 928 2841 928 2578 
Q 928 2378 1081 2264 
Q 1234 2150 1697 2047 
L 1894 2003 
Q 2506 1872 2764 1633 
Q 3022 1394 3022 966 
Q 3022 478 2636 193 
Q 2250 -91 1575 -91 
Q 1294 -91 989 -36 
Q 684 19 347 128 
L 347 722 
Q 666 556 975 473 
Q 1284 391 1588 391 
Q 1994 391 2212 530 
Q 2431 669 2431 922 
Q 2431 1156 2273 1281 
Q 2116 1406 1581 1522 
L 1381 1569 
Q 847 1681 609 1914 
Q 372 2147 372 2553 
Q 372 3047 722 3315 
Q 1072 3584 1716 3584 
Q 2034 3584 2315 3537 
Q 2597 3491 2834 3397 
z
" transform="scale(0.015625)"/>
      <path id="DejaVuSans-50" d="M 1259 4147 
L 1259 2394 
L 2053 2394 
Q 2494 2394 2734 2622 
Q 2975 2850 2975 3272 
Q 2975 3691 2734 3919 
Q 2494 4147 2053 4147 
L 1259 4147 
z
M 628 4666 
L 2053 4666 
Q 2838 4666 3239 4311 
Q 3641 3956 3641 3272 
Q 3641 2581 3239 2228 
Q 2838 1875 2053 1875 
L 1259 1875 
L 1259 0 
L 628 0 
L 628 4666 
z
" transform="scale(0.015625)"/>
      <path id="DejaVuSans-72" d="M 2631 2963 
Q 2534 3019 2420 3045 
Q 2306 3072 2169 3072 
Q 1681 3072 1420 2755 
Q 1159 2438 1159 1844 
L 1159 0 
L 581 0 
L 581 3500 
L 1159 3500 
L 1159 2956 
Q 1341 3275 1631 3429 
Q 1922 3584 2338 3584 
Q 2397 3584 2469 3576 
Q 2541 3569 2628 3553 
L 2631 2963 
z
" transform="scale(0.015625)"/>
      <path id="DejaVuSans-69" d="M 603 3500 
L 1178 3500 
L 1178 0 
L 603 0 
L 603 3500 
z
M 603 4863 
L 1178 4863 
L 1178 4134 
L 603 4134 
L 603 4863 
z
" transform="scale(0.015625)"/>
     </defs>
     <use xlink:href="#DejaVuSans-41"/>
     <use xlink:href="#DejaVuSans-63" x="66.658203"/>
     <use xlink:href="#DejaVuSans-74" x="121.638672"/>
     <use xlink:href="#DejaVuSans-75" x="160.847656"/>
     <use xlink:href="#DejaVuSans-61" x="224.226562"/>
     <use xlink:href="#DejaVuSans-6c" x="285.505859"/>
     <use xlink:href="#DejaVuSans-20" x="313.289062"/>
     <use xlink:href="#DejaVuSans-76" x="345.076172"/>
     <use xlink:href="#DejaVuSans-73" x="404.255859"/>
     <use xlink:href="#DejaVuSans-2e" x="456.355469"/>
     <use xlink:href="#DejaVuSans-20" x="488.142578"/>
     <use xlink:href="#DejaVuSans-50" x="519.929688"/>
     <use xlink:href="#DejaVuSans-72" x="578.482422"/>
     <use xlink:href="#DejaVuSans-65" x="617.345703"/>
     <use xlink:href="#DejaVuSans-64" x="678.869141"/>
     <use xlink:href="#DejaVuSans-69" x="742.345703"/>
     <use xlink:href="#DejaVuSans-63" x="770.128906"/>
     <use xlink:href="#DejaVuSans-74" x="825.109375"/>
     <use xlink:href="#DejaVuSans-65" x="864.318359"/>
     <use xlink:href="#DejaVuSans-64" x="925.841797"/>
     <use xlink:href="#DejaVuSans-20" x="989.318359"/>
     <use xlink:href="#DejaVuSans-56" x="1021.105469"/>
     <use xlink:href="#DejaVuSans-61" x="1081.763672"/>
     <use xlink:href="#DejaVuSans-6c" x="1143.042969"/>
     <use xlink:href="#DejaVuSans-75" x="1170.826172"/>
     <use xlink:href="#DejaVuSans-65" x="1234.205078"/>
     <use xlink:href="#DejaVuSans-73" x="1295.728516"/>
    </g>
   </g>
   <g id="legend_1">
    <g id="patch_7">
     <path d="M 64.6 78.82825 
L 144.034375 78.82825 
Q 146.034375 78.82825 146.034375 76.82825 
L 146.034375 48.472 
Q 146.034375 46.472 144.034375 46.472 
L 64.6 46.472 
Q 62.6 46.472 62.6 48.472 
L 62.6 76.82825 
Q 62.6 78.82825 64.6 78.82825 
z
" style="fill: #ffffff; opacity: 0.8; stroke: #cccccc; stroke-linejoin: miter"/>
    </g>
    <g id="line2d_13">
     <path d="M 66.6 54.570437 
L 76.6 54.570437 
L 86.6 54.570437 
" style="fill: none; stroke: #1f77b4; stroke-width: 1.5; stroke-linecap: square"/>
    </g>
    <g id="text_14">
     <!-- actual -->
     <g transform="translate(94.6 58.070437) scale(0.1 -0.1)">
      <use xlink:href="#DejaVuSans-61"/>
      <use xlink:href="#DejaVuSans-63" x="61.279297"/>
      <use xlink:href="#DejaVuSans-74" x="116.259766"/>
      <use xlink:href="#DejaVuSans-75" x="155.46875"/>
      <use xlink:href="#DejaVuSans-61" x="218.847656"/>
      <use xlink:href="#DejaVuSans-6c" x="280.126953"/>
     </g>
    </g>
    <g id="line2d_14">
     <path d="M 66.6 69.248562 
L 76.6 69.248562 
L 86.6 69.248562 
" style="fill: none; stroke: #ff7f0e; stroke-width: 1.5; stroke-linecap: square"/>
    </g>
    <g id="text_15">
     <!-- predicted -->
     <g transform="translate(94.6 72.748562) scale(0.1 -0.1)">
      <defs>
       <path id="DejaVuSans-70" d="M 1159 525 
L 1159 -1331 
L 581 -1331 
L 581 3500 
L 1159 3500 
L 1159 2969 
Q 1341 3281 1617 3432 
Q 1894 3584 2278 3584 
Q 2916 3584 3314 3078 
Q 3713 2572 3713 1747 
Q 3713 922 3314 415 
Q 2916 -91 2278 -91 
Q 1894 -91 1617 61 
Q 1341 213 1159 525 
z
M 3116 1747 
Q 3116 2381 2855 2742 
Q 2594 3103 2138 3103 
Q 1681 3103 1420 2742 
Q 1159 2381 1159 1747 
Q 1159 1113 1420 752 
Q 1681 391 2138 391 
Q 2594 391 2855 752 
Q 3116 1113 3116 1747 
z
" transform="scale(0.015625)"/>
      </defs>
      <use xlink:href="#DejaVuSans-70"/>
      <use xlink:href="#DejaVuSans-72" x="63.476562"/>
      <use xlink:href="#DejaVuSans-65" x="102.339844"/>
      <use xlink:href="#DejaVuSans-64" x="163.863281"/>
      <use xlink:href="#DejaVuSans-69" x="227.339844"/>
      <use xlink:href="#DejaVuSans-63" x="255.123047"/>
      <use xlink:href="#DejaVuSans-74" x="310.103516"/>
      <use xlink:href="#DejaVuSans-65" x="349.3125"/>
      <use xlink:href="#DejaVuSans-64" x="410.835938"/>
     </g>
    </g>
   </g>
  </g>
 </g>
 <defs>
  <clipPath id="p183932dfa1">
   <rect x="57.6" y="41.472" width="357.12" height="266.112"/>
  </clipPath>
 </defs>
</svg>
