<?xml version="1.0" encoding="utf-8" standalone="no"?>
<!DOCTYPE svg PUBLIC "-//W3C//DTD SVG 1.1//EN"
  "http://www.w3.org/Graphics/SVG/1.1/DTD/svg11.dtd">
<svg xmlns:xlink="http://www.w3.org/1999/xlink" width="1296pt" height="576pt" viewBox="0 0 1296 576" xmlns="http://www.w3.org/2000/svg" version="1.1">
 <metadata>
  <rdf:RDF xmlns:dc="http://purl.org/dc/elements/1.1/" xmlns:cc="http://creativecommons.org/ns#" xmlns:rdf="http://www.w3.org/1999/02/22-rdf-syntax-ns#">
   <cc:Work>
    <dc:type rdf:resource="http://purl.org/dc/dcmitype/StillImage"/>
    <dc:date>2023-06-01T08:46:01.449192</dc:date>
    <dc:format>image/svg+xml</dc:format>
    <dc:creator>
     <cc:Agent>
      <dc:title>Matplotlib v3.7.1, https://matplotlib.org/</dc:title>
     </cc:Agent>
    </dc:creator>
   </cc:Work>
  </rdf:RDF>
 </metadata>
 <defs>
  <style type="text/css">*{stroke-linejoin: round; stroke-linecap: butt}</style>
 </defs>
 <g id="figure_1">
  <g id="patch_1">
   <path d="M 0 576 
L 1296 576 
L 1296 0 
L 0 0 
z
" style="fill: #ffffff"/>
  </g>
  <g id="axes_1">
   <g id="patch_2">
    <path d="M 162 512.64 
L 1166.4 512.64 
L 1166.4 69.12 
L 162 69.12 
z
" style="fill: #ffffff"/>
   </g>
   <g id="matplotlib.axis_1">
    <g id="xtick_1">
     <g id="line2d_1">
      <defs>
       <path id="m2493c1cfe4" d="M 0 0 
L 0 3.5 
" style="stroke: #000000; stroke-width: 0.8"/>
      </defs>
      <g>
       <use xlink:href="#m2493c1cfe4" x="1120.745455" y="512.64" style="stroke: #000000; stroke-width: 0.8"/>
      </g>
     </g>
     <g id="text_1">
      <!-- 0 -->
      <g transform="translate(1117.564205 527.238438) scale(0.1 -0.1)">
       <defs>
        <path id="DejaVuSans-30" d="M 2034 4250 
Q 1547 4250 1301 3770 
Q 1056 3291 1056 2328 
Q 1056 1369 1301 889 
Q 1547 409 2034 409 
Q 2525 409 2770 889 
Q 3016 1369 3016 2328 
Q 3016 3291 2770 3770 
Q 2525 4250 2034 4250 
z
M 2034 4750 
Q 2819 4750 3233 4129 
Q 3647 3509 3647 2328 
Q 3647 1150 3233 529 
Q 2819 -91 2034 -91 
Q 1250 -91 836 529 
Q 422 1150 422 2328 
Q 422 3509 836 4129 
Q 1250 4750 2034 4750 
z
" transform="scale(0.015625)"/>
       </defs>
       <use xlink:href="#DejaVuSans-30"/>
      </g>
     </g>
    </g>
    <g id="xtick_2">
     <g id="line2d_2">
      <g>
       <use xlink:href="#m2493c1cfe4" x="957.678947" y="512.64" style="stroke: #000000; stroke-width: 0.8"/>
      </g>
     </g>
     <g id="text_2">
      <!-- 2000 -->
      <g transform="translate(944.953947 527.238438) scale(0.1 -0.1)">
       <defs>
        <path id="DejaVuSans-32" d="M 1228 531 
L 3431 531 
L 3431 0 
L 469 0 
L 469 531 
Q 828 903 1448 1529 
Q 2069 2156 2228 2338 
Q 2531 2678 2651 2914 
Q 2772 3150 2772 3378 
Q 2772 3750 2511 3984 
Q 2250 4219 1831 4219 
Q 1534 4219 1204 4116 
Q 875 4013 500 3803 
L 500 4441 
Q 881 4594 1212 4672 
Q 1544 4750 1819 4750 
Q 2544 4750 2975 4387 
Q 3406 4025 3406 3419 
Q 3406 3131 3298 2873 
Q 3191 2616 2906 2266 
Q 2828 2175 2409 1742 
Q 1991 1309 1228 531 
z
" transform="scale(0.015625)"/>
       </defs>
       <use xlink:href="#DejaVuSans-32"/>
       <use xlink:href="#DejaVuSans-30" x="63.623047"/>
       <use xlink:href="#DejaVuSans-30" x="127.246094"/>
       <use xlink:href="#DejaVuSans-30" x="190.869141"/>
      </g>
     </g>
    </g>
    <g id="xtick_3">
     <g id="line2d_3">
      <g>
       <use xlink:href="#m2493c1cfe4" x="794.612439" y="512.64" style="stroke: #000000; stroke-width: 0.8"/>
      </g>
     </g>
     <g id="text_3">
      <!-- 4000 -->
      <g transform="translate(781.887439 527.238438) scale(0.1 -0.1)">
       <defs>
        <path id="DejaVuSans-34" d="M 2419 4116 
L 825 1625 
L 2419 1625 
L 2419 4116 
z
M 2253 4666 
L 3047 4666 
L 3047 1625 
L 3713 1625 
L 3713 1100 
L 3047 1100 
L 3047 0 
L 2419 0 
L 2419 1100 
L 313 1100 
L 313 1709 
L 2253 4666 
z
" transform="scale(0.015625)"/>
       </defs>
       <use xlink:href="#DejaVuSans-34"/>
       <use xlink:href="#DejaVuSans-30" x="63.623047"/>
       <use xlink:href="#DejaVuSans-30" x="127.246094"/>
       <use xlink:href="#DejaVuSans-30" x="190.869141"/>
      </g>
     </g>
    </g>
    <g id="xtick_4">
     <g id="line2d_4">
      <g>
       <use xlink:href="#m2493c1cfe4" x="631.545932" y="512.64" style="stroke: #000000; stroke-width: 0.8"/>
      </g>
     </g>
     <g id="text_4">
      <!-- 6000 -->
      <g transform="translate(618.820932 527.238438) scale(0.1 -0.1)">
       <defs>
        <path id="DejaVuSans-36" d="M 2113 2584 
Q 1688 2584 1439 2293 
Q 1191 2003 1191 1497 
Q 1191 994 1439 701 
Q 1688 409 2113 409 
Q 2538 409 2786 701 
Q 3034 994 3034 1497 
Q 3034 2003 2786 2293 
Q 2538 2584 2113 2584 
z
M 3366 4563 
L 3366 3988 
Q 3128 4100 2886 4159 
Q 2644 4219 2406 4219 
Q 1781 4219 1451 3797 
Q 1122 3375 1075 2522 
Q 1259 2794 1537 2939 
Q 1816 3084 2150 3084 
Q 2853 3084 3261 2657 
Q 3669 2231 3669 1497 
Q 3669 778 3244 343 
Q 2819 -91 2113 -91 
Q 1303 -91 875 529 
Q 447 1150 447 2328 
Q 447 3434 972 4092 
Q 1497 4750 2381 4750 
Q 2619 4750 2861 4703 
Q 3103 4656 3366 4563 
z
" transform="scale(0.015625)"/>
       </defs>
       <use xlink:href="#DejaVuSans-36"/>
       <use xlink:href="#DejaVuSans-30" x="63.623047"/>
       <use xlink:href="#DejaVuSans-30" x="127.246094"/>
       <use xlink:href="#DejaVuSans-30" x="190.869141"/>
      </g>
     </g>
    </g>
    <g id="xtick_5">
     <g id="line2d_5">
      <g>
       <use xlink:href="#m2493c1cfe4" x="468.479424" y="512.64" style="stroke: #000000; stroke-width: 0.8"/>
      </g>
     </g>
     <g id="text_5">
      <!-- 8000 -->
      <g transform="translate(455.754424 527.238438) scale(0.1 -0.1)">
       <defs>
        <path id="DejaVuSans-38" d="M 2034 2216 
Q 1584 2216 1326 1975 
Q 1069 1734 1069 1313 
Q 1069 891 1326 650 
Q 1584 409 2034 409 
Q 2484 409 2743 651 
Q 3003 894 3003 1313 
Q 3003 1734 2745 1975 
Q 2488 2216 2034 2216 
z
M 1403 2484 
Q 997 2584 770 2862 
Q 544 3141 544 3541 
Q 544 4100 942 4425 
Q 1341 4750 2034 4750 
Q 2731 4750 3128 4425 
Q 3525 4100 3525 3541 
Q 3525 3141 3298 2862 
Q 3072 2584 2669 2484 
Q 3125 2378 3379 2068 
Q 3634 1759 3634 1313 
Q 3634 634 3220 271 
Q 2806 -91 2034 -91 
Q 1263 -91 848 271 
Q 434 634 434 1313 
Q 434 1759 690 2068 
Q 947 2378 1403 2484 
z
M 1172 3481 
Q 1172 3119 1398 2916 
Q 1625 2713 2034 2713 
Q 2441 2713 2670 2916 
Q 2900 3119 2900 3481 
Q 2900 3844 2670 4047 
Q 2441 4250 2034 4250 
Q 1625 4250 1398 4047 
Q 1172 3844 1172 3481 
z
" transform="scale(0.015625)"/>
       </defs>
       <use xlink:href="#DejaVuSans-38"/>
       <use xlink:href="#DejaVuSans-30" x="63.623047"/>
       <use xlink:href="#DejaVuSans-30" x="127.246094"/>
       <use xlink:href="#DejaVuSans-30" x="190.869141"/>
      </g>
     </g>
    </g>
    <g id="xtick_6">
     <g id="line2d_6">
      <g>
       <use xlink:href="#m2493c1cfe4" x="305.412917" y="512.64" style="stroke: #000000; stroke-width: 0.8"/>
      </g>
     </g>
     <g id="text_6">
      <!-- 10000 -->
      <g transform="translate(289.506667 527.238438) scale(0.1 -0.1)">
       <defs>
        <path id="DejaVuSans-31" d="M 794 531 
L 1825 531 
L 1825 4091 
L 703 3866 
L 703 4441 
L 1819 4666 
L 2450 4666 
L 2450 531 
L 3481 531 
L 3481 0 
L 794 0 
L 794 531 
z
" transform="scale(0.015625)"/>
       </defs>
       <use xlink:href="#DejaVuSans-31"/>
       <use xlink:href="#DejaVuSans-30" x="63.623047"/>
       <use xlink:href="#DejaVuSans-30" x="127.246094"/>
       <use xlink:href="#DejaVuSans-30" x="190.869141"/>
       <use xlink:href="#DejaVuSans-30" x="254.492188"/>
      </g>
     </g>
    </g>
    <g id="text_7">
     <!-- Index -->
     <g transform="translate(650.433594 540.916563) scale(0.1 -0.1)">
      <defs>
       <path id="DejaVuSans-49" d="M 628 4666 
L 1259 4666 
L 1259 0 
L 628 0 
L 628 4666 
z
" transform="scale(0.015625)"/>
       <path id="DejaVuSans-6e" d="M 3513 2113 
L 3513 0 
L 2938 0 
L 2938 2094 
Q 2938 2591 2744 2837 
Q 2550 3084 2163 3084 
Q 1697 3084 1428 2787 
Q 1159 2491 1159 1978 
L 1159 0 
L 581 0 
L 581 3500 
L 1159 3500 
L 1159 2956 
Q 1366 3272 1645 3428 
Q 1925 3584 2291 3584 
Q 2894 3584 3203 3211 
Q 3513 2838 3513 2113 
z
" transform="scale(0.015625)"/>
       <path id="DejaVuSans-64" d="M 2906 2969 
L 2906 4863 
L 3481 4863 
L 3481 0 
L 2906 0 
L 2906 525 
Q 2725 213 2448 61 
Q 2172 -91 1784 -91 
Q 1150 -91 751 415 
Q 353 922 353 1747 
Q 353 2572 751 3078 
Q 1150 3584 1784 3584 
Q 2172 3584 2448 3432 
Q 2725 3281 2906 2969 
z
M 947 1747 
Q 947 1113 1208 752 
Q 1469 391 1925 391 
Q 2381 391 2643 752 
Q 2906 1113 2906 1747 
Q 2906 2381 2643 2742 
Q 2381 3103 1925 3103 
Q 1469 3103 1208 2742 
Q 947 2381 947 1747 
z
" transform="scale(0.015625)"/>
       <path id="DejaVuSans-65" d="M 3597 1894 
L 3597 1613 
L 953 1613 
Q 991 1019 1311 708 
Q 1631 397 2203 397 
Q 2534 397 2845 478 
Q 3156 559 3463 722 
L 3463 178 
Q 3153 47 2828 -22 
Q 2503 -91 2169 -91 
Q 1331 -91 842 396 
Q 353 884 353 1716 
Q 353 2575 817 3079 
Q 1281 3584 2069 3584 
Q 2775 3584 3186 3129 
Q 3597 2675 3597 1894 
z
M 3022 2063 
Q 3016 2534 2758 2815 
Q 2500 3097 2075 3097 
Q 1594 3097 1305 2825 
Q 1016 2553 972 2059 
L 3022 2063 
z
" transform="scale(0.015625)"/>
       <path id="DejaVuSans-78" d="M 3513 3500 
L 2247 1797 
L 3578 0 
L 2900 0 
L 1881 1375 
L 863 0 
L 184 0 
L 1544 1831 
L 300 3500 
L 978 3500 
L 1906 2253 
L 2834 3500 
L 3513 3500 
z
" transform="scale(0.015625)"/>
      </defs>
      <use xlink:href="#DejaVuSans-49"/>
      <use xlink:href="#DejaVuSans-6e" x="29.492188"/>
      <use xlink:href="#DejaVuSans-64" x="92.871094"/>
      <use xlink:href="#DejaVuSans-65" x="156.347656"/>
      <use xlink:href="#DejaVuSans-78" x="216.121094"/>
     </g>
    </g>
   </g>
   <g id="matplotlib.axis_2">
    <g id="ytick_1">
     <g id="line2d_7">
      <defs>
       <path id="mf094f076c8" d="M 0 0 
L -3.5 0 
" style="stroke: #000000; stroke-width: 0.8"/>
      </defs>
      <g>
       <use xlink:href="#mf094f076c8" x="162" y="493.382013" style="stroke: #000000; stroke-width: 0.8"/>
      </g>
     </g>
     <g id="text_8">
      <!-- −36 -->
      <g transform="translate(133.895312 497.181232) scale(0.1 -0.1)">
       <defs>
        <path id="DejaVuSans-2212" d="M 678 2272 
L 4684 2272 
L 4684 1741 
L 678 1741 
L 678 2272 
z
" transform="scale(0.015625)"/>
        <path id="DejaVuSans-33" d="M 2597 2516 
Q 3050 2419 3304 2112 
Q 3559 1806 3559 1356 
Q 3559 666 3084 287 
Q 2609 -91 1734 -91 
Q 1441 -91 1130 -33 
Q 819 25 488 141 
L 488 750 
Q 750 597 1062 519 
Q 1375 441 1716 441 
Q 2309 441 2620 675 
Q 2931 909 2931 1356 
Q 2931 1769 2642 2001 
Q 2353 2234 1838 2234 
L 1294 2234 
L 1294 2753 
L 1863 2753 
Q 2328 2753 2575 2939 
Q 2822 3125 2822 3475 
Q 2822 3834 2567 4026 
Q 2313 4219 1838 4219 
Q 1578 4219 1281 4162 
Q 984 4106 628 3988 
L 628 4550 
Q 988 4650 1302 4700 
Q 1616 4750 1894 4750 
Q 2613 4750 3031 4423 
Q 3450 4097 3450 3541 
Q 3450 3153 3228 2886 
Q 3006 2619 2597 2516 
z
" transform="scale(0.015625)"/>
       </defs>
       <use xlink:href="#DejaVuSans-2212"/>
       <use xlink:href="#DejaVuSans-33" x="83.789062"/>
       <use xlink:href="#DejaVuSans-36" x="147.412109"/>
      </g>
     </g>
    </g>
    <g id="ytick_2">
     <g id="line2d_8">
      <g>
       <use xlink:href="#mf094f076c8" x="162" y="403.180671" style="stroke: #000000; stroke-width: 0.8"/>
      </g>
     </g>
     <g id="text_9">
      <!-- −34 -->
      <g transform="translate(133.895312 406.97989) scale(0.1 -0.1)">
       <use xlink:href="#DejaVuSans-2212"/>
       <use xlink:href="#DejaVuSans-33" x="83.789062"/>
       <use xlink:href="#DejaVuSans-34" x="147.412109"/>
      </g>
     </g>
    </g>
    <g id="ytick_3">
     <g id="line2d_9">
      <g>
       <use xlink:href="#mf094f076c8" x="162" y="312.979329" style="stroke: #000000; stroke-width: 0.8"/>
      </g>
     </g>
     <g id="text_10">
      <!-- −32 -->
      <g transform="translate(133.895312 316.778548) scale(0.1 -0.1)">
       <use xlink:href="#DejaVuSans-2212"/>
       <use xlink:href="#DejaVuSans-33" x="83.789062"/>
       <use xlink:href="#DejaVuSans-32" x="147.412109"/>
      </g>
     </g>
    </g>
    <g id="ytick_4">
     <g id="line2d_10">
      <g>
       <use xlink:href="#mf094f076c8" x="162" y="222.777987" style="stroke: #000000; stroke-width: 0.8"/>
      </g>
     </g>
     <g id="text_11">
      <!-- −30 -->
      <g transform="translate(133.895312 226.577205) scale(0.1 -0.1)">
       <use xlink:href="#DejaVuSans-2212"/>
       <use xlink:href="#DejaVuSans-33" x="83.789062"/>
       <use xlink:href="#DejaVuSans-30" x="147.412109"/>
      </g>
     </g>
    </g>
    <g id="ytick_5">
     <g id="line2d_11">
      <g>
       <use xlink:href="#mf094f076c8" x="162" y="132.576644" style="stroke: #000000; stroke-width: 0.8"/>
      </g>
     </g>
     <g id="text_12">
      <!-- −28 -->
      <g transform="translate(133.895312 136.375863) scale(0.1 -0.1)">
       <use xlink:href="#DejaVuSans-2212"/>
       <use xlink:href="#DejaVuSans-32" x="83.789062"/>
       <use xlink:href="#DejaVuSans-38" x="147.412109"/>
      </g>
     </g>
    </g>
    <g id="text_13">
     <!-- Values -->
     <g transform="translate(127.815625 307.215937) rotate(-90) scale(0.1 -0.1)">
      <defs>
       <path id="DejaVuSans-56" d="M 1831 0 
L 50 4666 
L 709 4666 
L 2188 738 
L 3669 4666 
L 4325 4666 
L 2547 0 
L 1831 0 
z
" transform="scale(0.015625)"/>
       <path id="DejaVuSans-61" d="M 2194 1759 
Q 1497 1759 1228 1600 
Q 959 1441 959 1056 
Q 959 750 1161 570 
Q 1363 391 1709 391 
Q 2188 391 2477 730 
Q 2766 1069 2766 1631 
L 2766 1759 
L 2194 1759 
z
M 3341 1997 
L 3341 0 
L 2766 0 
L 2766 531 
Q 2569 213 2275 61 
Q 1981 -91 1556 -91 
Q 1019 -91 701 211 
Q 384 513 384 1019 
Q 384 1609 779 1909 
Q 1175 2209 1959 2209 
L 2766 2209 
L 2766 2266 
Q 2766 2663 2505 2880 
Q 2244 3097 1772 3097 
Q 1472 3097 1187 3025 
Q 903 2953 641 2809 
L 641 3341 
Q 956 3463 1253 3523 
Q 1550 3584 1831 3584 
Q 2591 3584 2966 3190 
Q 3341 2797 3341 1997 
z
" transform="scale(0.015625)"/>
       <path id="DejaVuSans-6c" d="M 603 4863 
L 1178 4863 
L 1178 0 
L 603 0 
L 603 4863 
z
" transform="scale(0.015625)"/>
       <path id="DejaVuSans-75" d="M 544 1381 
L 544 3500 
L 1119 3500 
L 1119 1403 
Q 1119 906 1312 657 
Q 1506 409 1894 409 
Q 2359 409 2629 706 
Q 2900 1003 2900 1516 
L 2900 3500 
L 3475 3500 
L 3475 0 
L 2900 0 
L 2900 538 
Q 2691 219 2414 64 
Q 2138 -91 1772 -91 
Q 1169 -91 856 284 
Q 544 659 544 1381 
z
M 1991 3584 
L 1991 3584 
z
" transform="scale(0.015625)"/>
       <path id="DejaVuSans-73" d="M 2834 3397 
L 2834 2853 
Q 2591 2978 2328 3040 
Q 2066 3103 1784 3103 
Q 1356 3103 1142 2972 
Q 928 2841 928 2578 
Q 928 2378 1081 2264 
Q 1234 2150 1697 2047 
L 1894 2003 
Q 2506 1872 2764 1633 
Q 3022 1394 3022 966 
Q 3022 478 2636 193 
Q 2250 -91 1575 -91 
Q 1294 -91 989 -36 
Q 684 19 347 128 
L 347 722 
Q 666 556 975 473 
Q 1284 391 1588 391 
Q 1994 391 2212 530 
Q 2431 669 2431 922 
Q 2431 1156 2273 1281 
Q 2116 1406 1581 1522 
L 1381 1569 
Q 847 1681 609 1914 
Q 372 2147 372 2553 
Q 372 3047 722 3315 
Q 1072 3584 1716 3584 
Q 2034 3584 2315 3537 
Q 2597 3491 2834 3397 
z
" transform="scale(0.015625)"/>
      </defs>
      <use xlink:href="#DejaVuSans-56"/>
      <use xlink:href="#DejaVuSans-61" x="60.658203"/>
      <use xlink:href="#DejaVuSans-6c" x="121.9375"/>
      <use xlink:href="#DejaVuSans-75" x="149.720703"/>
      <use xlink:href="#DejaVuSans-65" x="213.099609"/>
      <use xlink:href="#DejaVuSans-73" x="274.623047"/>
     </g>
    </g>
   </g>
   <g id="line2d_12">
    <path d="M 1120.745455 247.132349 
L 1120.582388 255.25047 
L 1119.848589 303.057181 
L 1119.603989 306.665235 
L 1119.196323 299.449128 
L 1118.544057 276.898792 
L 1118.38099 272.388725 
L 1117.565658 251.191409 
L 1117.484124 252.54443 
L 1117.402591 250.740403 
L 1117.321058 251.191409 
L 1117.239525 250.289396 
L 1117.157991 247.132349 
L 1116.994925 248.936376 
L 1116.831858 245.328322 
L 1116.750325 246.681342 
L 1116.668792 246.230336 
L 1116.505725 248.034362 
L 1116.424192 212.404832 
L 1116.342659 214.659866 
L 1115.201193 256.152483 
L 1114.141261 304.410201 
L 1114.059728 304.410201 
L 1113.652061 298.998121 
L 1113.081329 291.331007 
L 1112.592129 286.369933 
L 1112.429063 286.369933 
L 1112.347529 285.918926 
L 1111.776797 289.52698 
L 1111.206064 296.743087 
L 1110.309198 313.430336 
L 1109.738465 324.705503 
L 1109.412332 324.705503 
L 1109.249266 325.15651 
L 1108.597 325.15651 
L 1108.433933 325.607517 
L 1108.1078 325.607517 
L 1107.944734 326.058523 
L 1107.8632 326.058523 
L 1107.700134 326.50953 
L 1107.618601 326.50953 
L 1107.374001 327.411544 
L 1107.292468 327.411544 
L 1107.210934 327.86255 
L 1106.803268 319.293423 
L 1106.477135 313.430336 
L 1105.661803 317.489396 
L 1105.33567 316.136376 
L 1105.254136 316.136376 
L 1104.84647 314.332349 
L 1104.764937 314.332349 
L 1104.683404 313.881342 
L 1103.786538 323.352483 
L 1103.541938 323.352483 
L 1103.052738 326.50953 
L 1102.726605 330.568591 
L 1101.82974 354.02094 
L 1101.014407 339.588725 
L 1100.199075 315.685369 
L 1099.465275 304.410201 
L 1097.83461 333.274631 
L 1097.508477 342.294765 
L 1096.367012 335.529664 
L 1096.040879 324.254497 
L 1095.714746 313.430336 
L 1095.551679 312.077315 
L 1095.06248 307.567248 
L 1094.899413 306.214228 
L 1094.084081 294.488054 
L 1093.921014 294.037047 
L 1093.839481 294.037047 
L 1093.594881 293.135034 
L 1093.513348 293.135034 
L 1093.187215 297.645101 
L 1092.534949 309.822282 
L 1091.719616 333.274631 
L 1090.985817 337.784698 
L 1090.578151 320.646443 
L 1090.007418 298.547114 
L 1089.599752 294.93906 
L 1089.355152 293.135034 
L 1088.865952 288.624966 
L 1088.621353 286.82094 
L 1088.539819 287.271946 
L 1088.132153 289.977987 
L 1086.909154 303.508188 
L 1086.012288 273.741745 
L 1085.930755 274.192752 
L 1085.849222 274.192752 
L 1085.441556 275.996779 
L 1085.360022 275.996779 
L 1085.033889 277.349799 
L 1084.137024 295.390067 
L 1083.647824 299.900134 
L 1083.484758 301.253154 
L 1083.240158 303.959195 
L 1083.158625 303.057181 
L 1082.180226 264.270604 
L 1081.527959 247.583356 
L 1080.875693 259.760537 
L 1080.631094 261.564564 
L 1080.223427 265.172617 
L 1080.060361 266.525638 
L 1079.734228 269.231678 
L 1079.652695 269.231678 
L 1078.674296 254.348456 
L 1078.511229 259.30953 
L 1077.614363 294.488054 
L 1077.28823 299.449128 
L 1076.799031 305.763221 
L 1076.717498 307.116242 
L 1076.309831 293.135034 
L 1074.842233 244.426309 
L 1074.760699 244.877315 
L 1073.863834 249.387383 
L 1073.700767 249.387383 
L 1073.456167 250.289396 
L 1073.374634 250.289396 
L 1073.048501 248.936376 
L 1072.966968 248.936376 
L 1072.640835 246.681342 
L 1072.396235 243.073289 
L 1071.907036 236.308188 
L 1071.499369 239.916242 
L 1071.091703 242.622282 
L 1070.928636 246.681342 
L 1070.113304 266.525638 
L 1069.705638 270.133691 
L 1069.379505 271.486711 
L 1068.564172 271.486711 
L 1068.074973 269.231678 
L 1067.993439 269.231678 
L 1067.667306 267.878658 
L 1067.585773 267.878658 
L 1066.851974 278.702819 
L 1066.770441 279.153826 
L 1065.955108 271.035705 
L 1065.547442 268.329664 
L 1065.302842 266.074631 
L 1065.139775 270.133691 
L 1064.487509 288.624966 
L 1064.079843 297.645101 
L 1063.835243 291.782013 
L 1063.264511 278.251812 
L 1063.019911 280.055839 
L 1062.775311 281.859866 
L 1061.633846 263.819597 
L 1061.389246 265.623624 
L 1060.49238 271.035705 
L 1060.24778 272.839732 
L 1059.840114 274.643758 
L 1059.350914 283.212886 
L 1059.024781 287.722953 
L 1058.290982 287.722953 
L 1057.638716 275.094765 
L 1056.74185 252.995436 
L 1056.415717 249.838389 
L 1056.334184 249.838389 
L 1056.089584 251.642416 
L 1055.518852 258.858523 
L 1054.540452 274.643758 
L 1054.295853 272.839732 
L 1053.806653 265.623624 
L 1052.420588 281.859866 
L 1052.257521 283.663893 
L 1052.012922 281.859866 
L 1051.686789 279.604832 
L 1051.605255 278.702819 
L 1050.871456 252.093423 
L 1050.300723 248.936376 
L 1050.137657 243.975302 
L 1049.403857 217.365906 
L 1049.322324 217.365906 
L 1048.996191 216.012886 
L 1048.914658 216.012886 
L 1048.670058 215.110872 
L 1048.588525 215.561879 
L 1047.936259 227.73906 
L 1047.120926 256.152483 
L 1046.305594 271.937718 
L 1045.897928 273.741745 
L 1045.816394 273.741745 
L 1045.327195 276.447785 
L 1044.022663 229.994094 
L 1043.288863 237.210201 
L 1043.20733 237.661208 
L 1043.125797 239.014228 
L 1042.065865 282.761879 
L 1041.332065 286.82094 
L 1040.516733 254.799463 
L 1039.456801 294.037047 
L 1038.967601 291.782013 
L 1038.886068 291.782013 
L 1038.559935 290.428993 
L 1038.478401 290.428993 
L 1038.315335 289.977987 
L 1038.152268 283.663893 
L 1037.500002 253.89745 
L 1036.603137 244.877315 
L 1036.277004 243.073289 
L 1036.032404 244.877315 
L 1035.624738 249.838389 
L 1034.727872 267.878658 
L 1034.564805 262.466577 
L 1034.075606 243.524295 
L 1032.93414 231.798121 
L 1032.608007 234.053154 
L 1032.200341 237.661208 
L 1031.874208 239.916242 
L 1031.548075 242.622282 
L 1031.303475 244.426309 
L 1030.977342 247.132349 
L 1030.895809 247.132349 
L 1030.488143 248.936376 
L 1030.406609 248.936376 
L 1029.998943 250.740403 
L 1029.91741 250.740403 
L 1029.509744 252.54443 
L 1029.42821 252.54443 
L 1028.939011 254.799463 
L 1028.857478 254.799463 
L 1028.612878 256.152483 
L 1028.286745 253.446443 
L 1028.123678 252.093423 
L 1027.716012 248.485369 
L 1026.574546 288.624966 
L 1025.92228 309.371275 
L 1025.840747 308.469262 
L 1025.677681 307.116242 
L 1024.699282 297.194094 
L 1024.536215 295.841074 
L 1023.720883 287.722953 
L 1023.557816 286.369933 
L 1022.824017 279.153826 
L 1022.66095 277.800805 
L 1021.927151 270.584698 
L 1021.764084 269.231678 
L 1021.111818 262.917584 
L 1020.948752 261.564564 
L 1020.214953 254.348456 
L 1020.051886 252.995436 
L 1019.39962 246.681342 
L 1019.236554 245.328322 
L 1018.502754 238.112215 
L 1018.339688 236.759195 
L 1017.850488 232.249128 
L 1017.605889 230.445101 
L 1017.198222 219.169933 
L 1015.89369 185.795436 
L 1015.64909 179.030336 
L 1014.181492 126.26255 
L 1014.099959 124.007517 
L 1013.040026 156.028993 
L 1012.306227 178.579329 
L 1011.327828 164.147114 
L 1010.920162 158.735034 
L 1010.757095 156.48 
L 1009.207963 193.011544 
L 1008.066498 251.642416 
L 1006.925032 280.506846 
L 1005.6205 308.920268 
L 1004.315968 282.310872 
L 1003.826769 272.388725 
L 1003.745235 272.839732 
L 1003.419102 277.349799 
L 1002.766836 286.369933 
L 1002.35917 291.782013 
L 1002.277637 293.135034 
L 1001.543838 279.153826 
L 1000.810038 265.172617 
L 1000.239305 254.799463 
L 1000.157772 255.25047 
L 999.505506 258.407517 
L 998.200974 285.016913 
L 997.874841 291.331007 
L 997.793308 290.88 
L 996.651842 267.878658 
L 996.244176 259.760537 
L 995.59191 244.426309 
L 994.776577 228.641074 
L 994.531978 226.837047 
L 993.879712 222.777987 
L 993.635112 220.97396 
L 993.390512 220.071946 
L 992.738246 220.071946 
L 992.57518 220.522953 
L 992.33058 220.522953 
L 992.004447 219.169933 
L 991.922914 219.169933 
L 991.596781 217.816913 
L 991.515247 217.816913 
L 991.189114 216.463893 
L 991.107581 216.463893 
L 990.862981 215.561879 
L 990.781448 215.561879 
L 990.455315 214.208859 
L 990.373782 214.208859 
L 990.129182 216.012886 
L 989.232316 225.484027 
L 988.82465 220.071946 
L 988.253917 212.404832 
L 987.438585 202.482685 
L 987.275518 200.227651 
L 986.052519 218.718926 
L 985.644853 224.131007 
L 985.31872 231.347114 
L 984.421854 253.446443 
L 984.014188 261.113557 
L 983.280389 264.721611 
L 983.198855 264.721611 
L 982.546589 268.329664 
L 982.465056 267.878658 
L 980.997458 245.328322 
L 979.611392 237.210201 
L 979.285259 241.720268 
L 977.817661 267.427651 
L 976.431595 303.057181 
L 975.371663 324.705503 
L 974.719397 331.019597 
L 974.474797 332.823624 
L 974.067131 336.431678 
L 973.822531 338.235705 
L 973.496398 341.392752 
L 973.414865 340.039732 
L 971.865733 275.545772 
L 971.702667 273.741745 
L 971.050401 270.584698 
L 970.968867 270.584698 
L 970.072002 265.172617 
L 969.827402 263.368591 
L 969.419736 260.66255 
L 969.175136 258.858523 
L 969.012069 258.407517 
L 967.055271 258.407517 
L 966.892205 257.95651 
L 966.647605 257.95651 
L 966.484538 257.505503 
L 966.158405 257.505503 
L 965.995339 257.054497 
L 965.832272 257.054497 
L 965.750739 256.60349 
L 964.201607 232.700134 
L 964.120074 232.700134 
L 963.304741 240.818255 
L 963.141675 242.171275 
L 962.489409 248.485369 
L 962.326342 249.838389 
L 962.244809 249.387383 
L 961.26641 239.465235 
L 961.02181 237.661208 
L 960.614144 233.151141 
L 959.472679 204.286711 
L 958.983479 192.10953 
L 958.820413 198.423624 
L 957.271281 271.035705 
L 957.189747 271.035705 
L 956.292882 260.211544 
L 955.885215 255.25047 
L 955.314483 248.034362 
L 955.232949 246.681342 
L 954.98835 252.093423 
L 954.336084 267.427651 
L 953.276151 291.782013 
L 952.705419 265.623624 
L 951.319353 206.992752 
L 950.259421 191.207517 
L 950.014821 187.599463 
L 948.628756 237.210201 
L 948.058023 252.54443 
L 947.568824 257.054497 
L 947.324224 258.858523 
L 946.998091 261.564564 
L 946.753491 263.368591 
L 945.448959 290.428993 
L 945.367426 291.331007 
L 944.389027 271.035705 
L 944.307493 270.584698 
L 942.921428 291.782013 
L 942.595295 296.292081 
L 942.269162 301.253154 
L 942.187629 300.802148 
L 941.20923 271.937718 
L 940.067764 252.093423 
L 939.986231 252.995436 
L 939.415498 258.407517 
L 939.252432 259.760537 
L 938.844765 263.819597 
L 938.763232 263.368591 
L 938.029433 252.995436 
L 937.4587 245.779329 
L 935.991101 220.522953 
L 935.909568 220.97396 
L 934.931169 232.700134 
L 934.360436 240.367248 
L 933.871237 230.445101 
L 933.137438 216.463893 
L 932.729771 208.796779 
L 932.648238 209.247785 
L 932.240572 212.855839 
L 931.914439 215.110872 
L 931.588306 217.816913 
L 931.017573 221.424966 
L 928.734642 293.58604 
L 928.000843 312.528322 
L 927.593176 312.528322 
L 927.43011 312.077315 
L 926.370178 312.077315 
L 924.984112 279.153826 
L 924.821046 275.094765 
L 924.576446 276.898792 
L 923.108847 285.016913 
L 922.293515 296.743087 
L 921.804315 303.057181 
L 921.315116 309.371275 
L 919.521384 328.313557 
L 919.439851 328.313557 
L 919.195251 329.21557 
L 919.113718 329.21557 
L 918.869118 330.117584 
L 918.787585 330.117584 
L 918.624518 330.568591 
L 918.542985 330.568591 
L 918.298385 331.470604 
L 918.053786 331.470604 
L 917.890719 331.921611 
L 917.564586 331.921611 
L 916.341587 325.15651 
L 916.178521 319.74443 
L 914.466322 257.054497 
L 913.324857 251.191409 
L 911.857258 210.600805 
L 911.775725 211.051812 
L 911.368059 211.051812 
L 911.204992 211.502819 
L 911.041926 211.502819 
L 910.878859 211.051812 
L 910.797326 211.051812 
L 910.715793 211.502819 
L 909.655861 253.89745 
L 909.085128 275.094765 
L 907.780596 255.25047 
L 907.291396 248.936376 
L 906.802197 242.622282 
L 905.579198 229.543087 
L 904.682332 234.955168 
L 904.437732 236.759195 
L 903.6224 241.720268 
L 903.3778 247.583356 
L 902.399401 271.486711 
L 901.828668 289.075973 
L 900.687203 335.078658 
L 899.953403 363.041074 
L 899.708804 355.824966 
L 898.159672 300.802148 
L 896.85514 221.424966 
L 896.36594 237.661208 
L 895.469074 264.270604 
L 894.164542 279.604832 
L 893.919943 282.310872 
L 893.756876 280.957852 
L 893.186143 275.545772 
L 893.023077 274.192752 
L 892.533877 269.682685 
L 892.452344 269.231678 
L 891.963144 272.388725 
L 891.718545 274.192752 
L 890.414013 281.859866 
L 890.006346 285.467919 
L 889.680213 287.722953 
L 889.35408 290.428993 
L 889.027947 292.684027 
L 888.864881 294.037047 
L 888.701814 294.037047 
L 888.538748 294.488054 
L 888.457215 294.488054 
L 888.294148 294.93906 
L 888.131082 294.93906 
L 887.968015 295.390067 
L 887.804948 295.390067 
L 886.663483 301.253154 
L 886.58195 301.253154 
L 886.09275 303.508188 
L 886.011217 303.508188 
L 885.685084 304.861208 
L 885.603551 304.861208 
L 885.358951 305.763221 
L 885.277418 305.763221 
L 884.951285 307.116242 
L 884.869751 307.116242 
L 884.706685 308.018255 
L 884.543618 303.959195 
L 882.58682 252.54443 
L 882.423754 251.191409 
L 881.853021 245.779329 
L 881.689954 244.426309 
L 881.200755 239.916242 
L 880.874622 238.563221 
L 880.548489 239.916242 
L 880.466956 239.916242 
L 880.222356 240.818255 
L 880.140823 240.818255 
L 879.977756 241.269262 
L 879.896223 241.269262 
L 879.651623 242.622282 
L 878.836291 257.95651 
L 878.754757 259.760537 
L 878.347091 234.053154 
L 876.961026 147.910872 
L 876.797959 154.224966 
L 875.004228 238.112215 
L 873.862762 278.251812 
L 873.455096 289.52698 
L 873.292029 289.075973 
L 873.128963 289.075973 
L 872.884363 288.17396 
L 872.721297 288.17396 
L 872.55823 287.722953 
L 872.476697 287.722953 
L 872.31363 287.271946 
L 872.232097 287.271946 
L 871.987497 285.467919 
L 870.927565 266.525638 
L 869.5415 215.561879 
L 868.481567 196.168591 
L 868.236968 191.658523 
L 867.013969 220.97396 
L 866.524769 231.798121 
L 865.464837 255.25047 
L 865.138704 245.779329 
L 863.834172 208.796779 
L 863.752639 210.149799 
L 861.958907 241.269262 
L 861.306641 256.60349 
L 860.572842 271.035705 
L 860.328242 272.839732 
L 859.839042 275.996779 
L 859.594443 277.800805 
L 859.186776 280.055839 
L 858.77911 276.447785 
L 858.697577 275.996779 
L 856.985379 249.387383 
L 856.659246 244.877315 
L 855.843913 233.151141 
L 855.76238 232.700134 
L 855.436247 234.053154 
L 855.354713 234.053154 
L 854.947047 235.857181 
L 854.865514 235.857181 
L 854.457848 237.661208 
L 854.376314 237.661208 
L 854.050181 239.465235 
L 853.887115 235.857181 
L 852.990249 209.698792 
L 852.827183 206.541745 
L 852.664116 206.541745 
L 852.50105 206.992752 
L 851.848784 206.992752 
L 851.685717 207.443758 
L 851.441117 207.443758 
L 851.278051 207.894765 
L 851.196518 207.894765 
L 850.707318 201.580671 
L 850.136585 193.913557 
L 849.484319 187.599463 
L 848.587453 183.089396 
L 848.50592 183.089396 
L 847.853654 179.932349 
L 847.772121 179.932349 
L 847.364455 183.540403 
L 847.119855 185.34443 
L 846.712189 188.952483 
L 846.141456 192.560537 
L 845.978389 196.619597 
L 844.103124 257.054497 
L 844.021591 255.701477 
L 842.553993 181.285369 
L 842.472459 182.187383 
L 841.167927 208.796779 
L 841.004861 213.306846 
L 839.618796 263.819597 
L 837.661997 233.151141 
L 836.602065 226.837047 
L 836.357465 225.03302 
L 835.705199 221.424966 
L 834.563734 257.505503 
L 833.177668 265.623624 
L 832.851535 270.133691 
L 832.117736 280.506846 
L 831.71007 285.918926 
L 831.383937 289.52698 
L 829.916338 266.976644 
L 829.671739 264.721611 
L 828.856406 274.643758 
L 828.367206 280.957852 
L 828.122607 283.212886 
L 827.551874 272.839732 
L 825.595076 242.171275 
L 825.18741 237.210201 
L 824.69821 241.720268 
L 824.45361 243.524295 
L 824.127477 246.230336 
L 823.882878 248.034362 
L 823.556745 250.740403 
L 823.475211 251.191409 
L 822.986012 261.113557 
L 821.763013 285.918926 
L 820.703081 296.743087 
L 820.621547 297.194094 
L 820.295414 303.057181 
L 820.050815 303.057181 
L 819.887748 303.508188 
L 819.806215 303.508188 
L 819.643148 303.959195 
L 819.480082 303.959195 
L 819.317015 304.410201 
L 819.153949 304.410201 
L 818.990882 304.861208 
L 818.746283 304.861208 
L 818.583216 305.312215 
L 818.257083 305.312215 
L 818.094017 305.763221 
L 817.604817 305.763221 
L 817.44175 306.214228 
L 816.789484 306.214228 
L 816.544885 305.312215 
L 816.463351 305.312215 
L 816.218752 304.410201 
L 816.137218 304.410201 
L 815.892619 303.508188 
L 815.729552 303.508188 
L 815.240353 300.351141 
L 814.995753 298.547114 
L 814.66962 296.292081 
L 814.42502 294.488054 
L 813.365088 289.075973 
L 813.283555 289.075973 
L 812.957422 287.722953 
L 812.875888 287.722953 
L 812.468222 285.918926 
L 812.386689 285.918926 
L 812.142089 285.016913 
L 812.060556 285.016913 
L 811.734423 282.761879 
L 811.40829 280.055839 
L 811.16369 278.251812 
L 810.837557 275.545772 
L 810.511424 273.290738 
L 810.103758 269.682685 
L 809.777625 267.878658 
L 809.369958 269.682685 
L 809.288425 269.682685 
L 808.962292 271.035705 
L 808.880759 271.035705 
L 808.554626 272.388725 
L 808.473093 272.388725 
L 808.228493 273.290738 
L 808.14696 273.290738 
L 807.90236 274.192752 
L 807.820827 274.192752 
L 807.576227 275.094765 
L 807.41316 275.094765 
L 806.597828 270.584698 
L 805.048696 287.271946 
L 804.39643 278.251812 
L 803.499564 267.427651 
L 803.254964 261.564564 
L 801.868899 224.131007 
L 801.298166 231.347114 
L 800.808967 237.661208 
L 799.585968 252.093423 
L 799.015235 265.172617 
L 798.281436 280.055839 
L 797.547637 266.074631 
L 796.976904 255.701477 
L 795.835438 238.563221 
L 795.183172 230.445101 
L 795.101639 230.896107 
L 794.204773 248.485369 
L 792.574108 273.741745 
L 792.003375 279.153826 
L 790.37271 287.722953 
L 790.291177 287.722953 
L 789.557378 291.331007 
L 788.742045 263.819597 
L 787.682113 231.347114 
L 787.11138 220.071946 
L 786.296048 204.286711 
L 786.214514 203.384698 
L 784.909982 210.149799 
L 784.828449 210.149799 
L 784.420783 211.953826 
L 784.339249 211.953826 
L 784.013116 213.306846 
L 783.931583 213.306846 
L 783.686983 214.208859 
L 783.60545 214.208859 
L 783.36085 215.110872 
L 783.034717 215.110872 
L 781.159453 277.349799 
L 780.751786 272.388725 
L 779.85492 262.466577 
L 778.631922 212.855839 
L 777.898122 186.69745 
L 777.490456 186.69745 
L 777.32739 186.246443 
L 777.164323 186.246443 
L 777.001257 185.795436 
L 776.919723 185.795436 
L 776.83819 185.34443 
L 776.675124 189.854497 
L 774.718325 251.642416 
L 774.392192 256.152483 
L 773.739926 265.172617 
L 773.250727 271.486711 
L 773.169194 271.035705 
L 772.761527 265.623624 
L 772.109261 256.60349 
L 771.212396 245.779329 
L 770.641663 227.288054 
L 769.500197 192.560537 
L 769.337131 191.207517 
L 769.255597 191.207517 
L 769.010998 190.305503 
L 768.847931 190.305503 
L 768.684865 189.854497 
L 768.603331 189.854497 
L 768.440265 189.40349 
L 768.358732 189.40349 
L 768.195665 188.952483 
L 768.032599 188.952483 
L 767.869532 188.501477 
L 767.787999 188.501477 
L 767.624932 188.05047 
L 767.543399 188.05047 
L 767.380333 187.599463 
L 767.298799 187.599463 
L 766.972666 194.81557 
L 766.157334 214.659866 
L 765.668134 220.97396 
L 764.608202 233.602148 
L 762.896004 269.231678 
L 762.325271 269.231678 
L 762.162204 269.682685 
L 761.673005 269.682685 
L 761.102272 266.074631 
L 760.857672 264.270604 
L 760.368473 261.113557 
L 760.123873 259.30953 
L 760.04234 259.30953 
L 759.79774 258.407517 
L 759.634674 258.407517 
L 759.390074 257.505503 
L 759.308541 257.505503 
L 759.063941 256.60349 
L 758.982408 256.60349 
L 758.737808 255.701477 
L 758.656275 255.701477 
L 758.330141 254.348456 
L 758.248608 254.348456 
L 757.759409 252.093423 
L 757.677875 252.093423 
L 757.107143 249.387383 
L 757.025609 249.387383 
L 756.04721 243.524295 
L 755.639544 239.916242 
L 755.394944 238.112215 
L 754.987278 234.504161 
L 754.742678 232.700134 
L 754.335012 229.092081 
L 754.008879 226.837047 
L 753.601213 221.875973 
L 751.807481 184.442416 
L 751.318282 177.677315 
L 751.155215 177.677315 
L 750.992149 178.128322 
L 750.829082 178.128322 
L 750.666016 178.579329 
L 750.421416 178.579329 
L 750.258349 179.030336 
L 749.27995 179.030336 
L 749.116884 178.579329 
L 748.546151 178.579329 
L 748.056952 176.324295 
L 747.975418 176.324295 
L 747.486219 174.069262 
L 747.404685 174.069262 
L 746.997019 172.265235 
L 746.833953 173.618255 
L 746.26322 181.285369 
L 744.306422 203.384698 
L 744.224889 202.933691 
L 743.735689 199.776644 
L 743.491089 197.972617 
L 743.328023 197.521611 
L 743.00189 199.776644 
L 742.675757 202.482685 
L 742.26809 205.188725 
L 742.023491 206.992752 
L 741.697358 208.345772 
L 741.615824 208.345772 
L 741.452758 207.894765 
L 741.371225 207.894765 
L 741.208158 207.443758 
L 741.126625 207.443758 
L 740.963558 206.992752 
L 740.800492 206.992752 
L 740.637425 206.541745 
L 740.555892 206.541745 
L 740.392826 206.090738 
L 740.311292 206.090738 
L 740.148226 205.639732 
L 739.903626 205.639732 
L 739.74056 205.188725 
L 739.414427 205.188725 
L 739.332893 204.737718 
L 738.354494 180.383356 
L 738.191428 177.226309 
L 737.131496 193.011544 
L 736.642296 199.325638 
L 735.99003 208.345772 
L 735.908497 208.796779 
L 735.582364 204.286711 
L 734.848564 193.913557 
L 733.299433 177.677315 
L 732.810233 174.520268 
L 732.4841 171.814228 
L 732.2395 170.010201 
L 732.076434 169.108188 
L 730.853435 219.169933 
L 729.548903 197.972617 
L 728.407437 218.718926 
L 727.918238 227.73906 
L 727.836705 228.641074 
L 726.695239 211.502819 
L 726.124506 204.286711 
L 725.635307 197.972617 
L 724.249241 183.089396 
L 724.004642 186.69745 
L 722.781643 205.188725 
L 722.373977 210.600805 
L 721.640177 220.97396 
L 721.232511 225.484027 
L 720.661778 221.875973 
L 720.417178 220.071946 
L 719.927979 217.365906 
L 719.520313 219.169933 
L 719.438779 219.169933 
L 719.112646 220.522953 
L 719.031113 220.522953 
L 718.70498 221.875973 
L 718.541914 221.875973 
L 718.46038 222.32698 
L 718.052714 230.896107 
L 716.829715 255.701477 
L 715.93285 264.721611 
L 715.769783 266.074631 
L 715.525183 268.329664 
L 715.362117 268.329664 
L 715.19905 267.878658 
L 715.117517 267.878658 
L 714.95445 267.427651 
L 714.872917 267.427651 
L 714.709851 266.976644 
L 714.628317 266.976644 
L 714.465251 266.525638 
L 714.220651 266.525638 
L 712.263853 225.484027 
L 712.100787 225.484027 
L 711.93772 225.03302 
L 711.448521 225.03302 
L 711.285454 224.582013 
L 711.040854 224.582013 
L 710.877788 224.131007 
L 709.328656 248.485369 
L 708.92099 250.289396 
L 708.839456 250.289396 
L 708.43179 252.093423 
L 708.350257 252.093423 
L 708.024124 253.446443 
L 707.942591 253.446443 
L 707.534924 255.25047 
L 707.371858 255.25047 
L 707.127258 253.446443 
L 706.719592 249.838389 
L 706.474992 248.034362 
L 705.985793 241.720268 
L 704.681261 228.190067 
L 704.192061 225.03302 
L 703.947461 223.228993 
L 703.376728 219.62094 
L 703.050595 216.914899 
L 702.724462 214.659866 
L 702.642929 213.757852 
L 702.479863 218.267919 
L 701.338397 261.113557 
L 701.256864 261.113557 
L 700.115398 240.818255 
L 698.6478 200.227651 
L 698.484733 202.933691 
L 697.914 216.012886 
L 695.223403 273.741745 
L 694.245004 234.955168 
L 693.429671 206.541745 
L 692.451272 245.779329 
L 692.043606 247.583356 
L 691.962073 247.583356 
L 691.554407 249.387383 
L 691.472873 249.387383 
L 691.14674 250.740403 
L 691.065207 250.740403 
L 690.494474 253.446443 
L 689.923742 245.779329 
L 689.026876 236.759195 
L 688.863809 236.759195 
L 688.700743 236.308188 
L 688.048477 236.308188 
L 687.88541 235.857181 
L 687.477744 235.857181 
L 687.396211 235.406174 
L 686.907011 241.720268 
L 685.765546 254.799463 
L 685.684012 254.348456 
L 685.276346 250.740403 
L 685.031746 248.936376 
L 684.705613 246.230336 
L 684.37948 243.975302 
L 684.053347 241.269262 
L 683.971814 240.818255 
L 682.911882 256.60349 
L 682.585749 261.113557 
L 682.341149 264.270604 
L 681.933483 261.564564 
L 681.688883 259.760537 
L 680.955084 255.25047 
L 680.628951 252.54443 
L 680.139751 249.387383 
L 679.895151 247.583356 
L 679.487485 244.877315 
L 679.161352 242.171275 
L 678.998286 245.779329 
L 678.182953 269.231678 
L 676.878421 302.606174 
L 676.307688 316.136376 
L 676.226155 315.234362 
L 674.35089 282.761879 
L 673.127891 239.465235 
L 671.986426 203.384698 
L 670.192694 244.877315 
L 668.806629 287.271946 
L 668.154363 305.312215 
L 666.768297 280.506846 
L 666.034498 262.917584 
L 664.974566 239.465235 
L 664.0777 280.506846 
L 662.283969 308.469262 
L 662.120902 309.822282 
L 660.897903 278.702819 
L 660.245637 266.074631 
L 659.104172 259.30953 
L 658.941105 257.95651 
L 658.859572 257.95651 
L 658.044239 273.741745 
L 656.902774 294.037047 
L 656.821241 292.23302 
L 654.782909 249.387383 
L 654.701376 249.387383 
L 654.456776 250.289396 
L 654.375243 250.289396 
L 654.130643 251.191409 
L 654.04911 251.191409 
L 653.80451 252.093423 
L 653.722977 252.093423 
L 653.478377 252.995436 
L 653.315311 252.995436 
L 652.989178 254.348456 
L 652.907644 254.348456 
L 652.663045 255.25047 
L 652.581511 255.25047 
L 652.336912 256.152483 
L 652.255378 256.152483 
L 651.929245 257.505503 
L 651.766179 257.505503 
L 651.603112 257.054497 
L 650.624713 257.054497 
L 650.461647 256.60349 
L 650.29858 256.60349 
L 650.135514 256.152483 
L 650.05398 256.60349 
L 648.994048 293.58604 
L 648.504849 306.665235 
L 647.771049 315.685369 
L 647.363383 320.646443 
L 646.466517 330.568591 
L 645.732718 302.606174 
L 644.754319 268.780671 
L 643.938986 245.328322 
L 643.205187 227.288054 
L 641.982188 256.152483 
L 640.433057 313.881342 
L 639.373124 303.057181 
L 639.210058 301.704161 
L 638.720858 296.743087 
L 638.231659 301.253154 
L 637.987059 303.057181 
L 637.660926 305.763221 
L 637.334793 308.018255 
L 637.00866 310.724295 
L 636.76406 312.528322 
L 635.867194 290.428993 
L 634.236529 256.60349 
L 633.095064 239.014228 
L 632.850464 237.210201 
L 632.524331 234.504161 
L 632.198198 232.249128 
L 631.872065 229.543087 
L 631.464399 226.837047 
L 631.138266 229.543087 
L 630.567533 232.700134 
L 630.486 234.955168 
L 629.426067 298.547114 
L 629.099934 310.724295 
L 629.018401 310.724295 
L 628.855334 311.175302 
L 627.387736 311.175302 
L 627.306203 310.273289 
L 625.920137 246.230336 
L 625.594004 230.445101 
L 624.126406 138.439732 
L 622.169608 159.18604 
L 621.435808 162.794094 
L 621.354275 162.794094 
L 620.946609 164.598121 
L 620.865076 164.598121 
L 620.702009 165.500134 
L 619.071344 258.407517 
L 618.826744 268.329664 
L 617.929878 285.918926 
L 616.951479 303.057181 
L 616.869946 302.155168 
L 616.625346 300.351141 
L 616.46228 298.998121 
L 616.380747 298.998121 
L 615.320814 293.58604 
L 615.239281 293.58604 
L 614.260882 288.624966 
L 614.179349 288.624966 
L 613.690149 286.369933 
L 612.793283 264.270604 
L 610.184219 208.345772 
L 610.102686 207.443758 
L 608.635088 276.898792 
L 607.249022 347.706846 
L 606.841356 366.198121 
L 605.292224 309.371275 
L 605.129158 309.371275 
L 604.966091 309.822282 
L 604.150759 309.822282 
L 603.906159 310.724295 
L 603.824626 310.724295 
L 603.743092 311.175302 
L 603.661559 310.724295 
L 601.867827 197.972617 
L 601.704761 199.325638 
L 600.563295 211.051812 
L 600.400229 212.404832 
L 600.074096 216.012886 
L 599.258763 207.894765 
L 599.014164 206.090738 
L 598.688031 203.384698 
L 598.280364 200.678658 
L 596.731232 183.991409 
L 595.6713 226.38604 
L 594.529835 274.643758 
L 593.551436 347.255839 
L 592.40997 392.35651 
L 590.697772 339.137718 
L 589.311706 303.057181 
L 588.65944 290.428993 
L 587.599508 258.407517 
L 586.865709 237.661208 
L 585.64271 205.188725 
L 584.990444 205.188725 
L 584.827377 205.639732 
L 584.338178 205.639732 
L 584.175111 206.090738 
L 583.767445 206.090738 
L 583.441312 207.443758 
L 583.359779 207.443758 
L 583.196712 207.894765 
L 583.115179 207.894765 
L 582.952113 208.345772 
L 582.544446 208.345772 
L 582.462913 210.149799 
L 581.566047 258.858523 
L 581.076848 282.310872 
L 578.87545 212.404832 
L 578.467784 210.600805 
L 578.38625 210.600805 
L 577.244785 203.835705 
L 577.163252 205.188725 
L 575.695653 312.979329 
L 573.983455 224.131007 
L 572.597389 165.049128 
L 571.374391 189.854497 
L 570.395992 207.894765 
L 569.906792 217.816913 
L 569.580659 203.384698 
L 568.683793 168.206174 
L 567.460794 154.675973 
L 566.971595 177.677315 
L 565.34093 246.681342 
L 564.85173 249.838389 
L 564.607131 251.642416 
L 564.362531 253.446443 
L 564.199464 254.799463 
L 564.117931 254.799463 
L 562.650332 220.071946 
L 562.324199 213.757852 
L 560.938134 284.565906 
L 559.959735 323.352483 
L 559.389002 338.686711 
L 558.166003 368.002148 
L 557.921404 337.784698 
L 556.616872 165.500134 
L 556.535338 165.500134 
L 554.904673 190.75651 
L 553.681675 203.384698 
L 553.437075 205.188725 
L 553.110942 207.894765 
L 552.621742 211.051812 
L 552.458676 215.110872 
L 551.56181 242.171275 
L 551.07261 237.661208 
L 550.828011 235.857181 
L 550.338811 231.347114 
L 550.175745 230.445101 
L 548.218946 189.40349 
L 547.485147 175.422282 
L 546.914414 165.049128 
L 546.506748 168.657181 
L 546.343682 170.010201 
L 545.936015 173.618255 
L 545.202216 178.128322 
L 545.03915 179.030336 
L 543.653084 187.148456 
L 543.163885 191.658523 
L 542.756218 166.402148 
L 542.348552 140.243758 
L 542.267019 142.949799 
L 541.53322 165.951141 
L 540.554821 195.266577 
L 539.576422 209.698792 
L 539.168755 214.659866 
L 537.619624 247.132349 
L 537.048891 249.838389 
L 536.967357 249.838389 
L 536.396625 252.54443 
L 536.315091 252.54443 
L 535.907425 254.348456 
L 535.662825 253.446443 
L 535.581292 253.446443 
L 535.336692 252.54443 
L 535.255159 252.54443 
L 535.010559 251.642416 
L 534.929026 251.642416 
L 534.602893 250.289396 
L 534.52136 250.289396 
L 534.195227 248.936376 
L 534.113694 248.936376 
L 533.787561 247.583356 
L 533.624494 248.034362 
L 533.542961 248.034362 
L 533.298361 248.936376 
L 533.135295 248.936376 
L 532.890695 249.838389 
L 532.809162 249.838389 
L 532.483029 251.191409 
L 532.401495 251.191409 
L 532.075362 253.446443 
L 531.912296 244.426309 
L 530.933897 177.677315 
L 530.852363 178.128322 
L 529.629365 215.110872 
L 527.346434 275.545772 
L 527.020301 284.114899 
L 526.938767 282.761879 
L 525.960368 216.914899 
L 524.900436 126.713557 
L 524.737369 136.635705 
L 523.188238 248.034362 
L 522.862105 269.682685 
L 522.780571 269.231678 
L 521.965239 261.113557 
L 521.802172 259.760537 
L 520.660707 246.230336 
L 520.089974 238.563221 
L 519.111575 226.837047 
L 518.785442 217.365906 
L 518.214709 202.933691 
L 518.051643 202.933691 
L 517.888576 203.384698 
L 517.72551 203.384698 
L 517.562443 203.835705 
L 517.399377 203.835705 
L 517.23631 204.286711 
L 516.910177 204.286711 
L 516.747111 204.737718 
L 516.502511 204.737718 
L 516.176378 206.090738 
L 516.094845 206.090738 
L 515.768711 207.443758 
L 515.687178 207.443758 
L 515.442578 208.345772 
L 515.361045 208.345772 
L 515.116445 209.247785 
L 515.034912 209.247785 
L 514.790312 210.149799 
L 514.708779 210.149799 
L 514.464179 211.051812 
L 514.382646 211.051812 
L 514.21958 208.345772 
L 512.996581 183.540403 
L 512.833514 180.834362 
L 512.344315 155.12698 
L 511.447449 107.771275 
L 509.97985 147.008859 
L 509.735251 146.106846 
L 509.572184 146.106846 
L 509.409118 145.655839 
L 509.327584 145.655839 
L 509.164518 145.204832 
L 508.838385 145.204832 
L 508.675318 144.753826 
L 507.941519 144.753826 
L 507.778453 144.302819 
L 507.696919 144.302819 
L 507.289253 142.047785 
L 507.126187 155.577987 
L 505.903188 273.741745 
L 505.250922 321.999463 
L 505.087855 334.176644 
L 503.049524 184.893423 
L 502.397258 147.910872 
L 501.744992 118.595436 
L 500.358927 151.067919 
L 499.462061 189.854497 
L 498.565195 225.03302 
L 497.749862 253.89745 
L 497.505263 252.093423 
L 497.342196 249.838389 
L 496.852997 237.210201 
L 495.629998 186.69745 
L 493.754733 166.853154 
L 493.6732 166.853154 
L 493.4286 167.755168 
L 493.265533 167.755168 
L 493.102467 168.206174 
L 493.020934 168.206174 
L 492.450201 178.579329 
L 490.738003 205.188725 
L 490.16727 210.600805 
L 489.759604 210.600805 
L 489.596537 211.051812 
L 489.515004 211.051812 
L 489.433471 210.149799 
L 488.618138 186.246443 
L 488.047405 160.53906 
L 487.476672 154.675973 
L 486.824406 162.794094 
L 486.742873 162.343087 
L 486.41674 158.735034 
L 485.438341 133.929664 
L 484.949142 127.61557 
L 484.867608 128.066577 
L 484.296876 141.145772 
L 482.91081 116.340403 
L 482.177011 94.241074 
L 482.013944 94.241074 
L 481.769345 93.33906 
L 481.687811 93.33906 
L 481.606278 92.888054 
L 481.524745 93.33906 
L 480.872479 113.183356 
L 479.40488 220.522953 
L 479.078747 225.03302 
L 478.997214 226.38604 
L 478.752614 217.365906 
L 477.529615 172.716242 
L 476.225083 152.871946 
L 476.14355 152.871946 
L 475.735884 151.067919 
L 475.654351 151.067919 
L 475.572817 150.616913 
L 474.839018 136.635705 
L 474.268285 121.301477 
L 474.023686 119.49745 
L 473.779086 117.242416 
L 473.534486 123.105503 
L 472.963753 137.988725 
L 472.39302 154.675973 
L 471.577688 164.598121 
L 470.843889 150.616913 
L 470.680822 144.753826 
L 469.702423 104.614228 
L 469.213224 96.045101 
L 468.805557 90.63302 
L 468.724024 90.63302 
L 468.479424 89.731007 
L 468.397891 89.731007 
L 468.234825 89.28 
L 468.153291 89.731007 
L 467.501025 101.908188 
L 466.11496 174.069262 
L 464.810428 202.482685 
L 464.076629 180.383356 
L 463.342829 146.557852 
L 463.261296 146.557852 
L 463.016696 147.459866 
L 462.935163 147.459866 
L 462.690563 148.361879 
L 462.60903 148.361879 
L 462.527497 149.714899 
L 460.652232 237.210201 
L 459.673833 290.428993 
L 458.695434 320.195436 
L 457.717035 363.492081 
L 456.820169 395.513557 
L 456.004836 383.787383 
L 455.271037 376.571275 
L 455.026437 374.767248 
L 454.618771 371.159195 
L 454.211105 368.453154 
L 453.966505 365.296107 
L 453.151173 340.941745 
L 453.069639 341.392752 
L 451.765107 361.237047 
L 451.275908 365.747114 
L 451.031308 367.551141 
L 450.705175 370.257181 
L 450.460575 371.610201 
L 449.645243 349.059866 
L 448.422244 267.878658 
L 448.177644 258.407517 
L 447.362312 240.818255 
L 447.117712 242.622282 
L 446.791579 245.328322 
L 446.628512 246.681342 
L 446.05778 254.348456 
L 445.894713 256.152483 
L 445.160914 248.936376 
L 444.997847 247.583356 
L 444.427114 242.171275 
L 444.182515 240.367248 
L 443.774848 236.759195 
L 442.959516 232.700134 
L 442.796449 234.053154 
L 441.899584 244.877315 
L 441.165784 255.25047 
L 440.513518 263.368591 
L 440.268918 266.074631 
L 439.861252 268.780671 
L 439.616652 270.584698 
L 439.453586 271.937718 
L 438.964386 278.251812 
L 438.719787 281.859866 
L 437.985987 292.23302 
L 437.252188 296.292081 
L 437.170655 295.390067 
L 436.273789 273.290738 
L 434.072391 248.485369 
L 433.664725 259.760537 
L 433.093992 275.094765 
L 432.360193 283.212886 
L 431.463327 239.014228 
L 430.729528 207.894765 
L 429.995729 221.875973 
L 429.098863 244.426309 
L 428.201997 257.95651 
L 427.957397 256.152483 
L 427.386664 250.740403 
L 427.305131 250.289396 
L 427.060531 252.093423 
L 426.652865 255.701477 
L 426.408265 257.505503 
L 426.000599 262.917584 
L 425.5114 269.682685 
L 424.614534 251.642416 
L 423.880734 251.642416 
L 423.799201 252.54443 
L 422.657736 299.900134 
L 421.76087 349.059866 
L 421.027071 379.277315 
L 420.537871 374.767248 
L 420.293271 372.963221 
L 420.211738 372.061208 
L 419.151806 345.000805 
L 418.988739 345.000805 
L 418.825673 344.549799 
L 418.581073 344.549799 
L 418.49954 343.647785 
L 416.461208 262.466577 
L 416.379675 263.368591 
L 416.216609 264.721611 
L 415.890476 271.937718 
L 415.156676 289.52698 
L 414.74901 297.645101 
L 414.259811 291.331007 
L 413.362945 282.310872 
L 411.976879 275.094765 
L 411.895346 275.094765 
L 411.161547 271.486711 
L 411.080014 271.486711 
L 410.753881 270.133691 
L 410.672347 270.133691 
L 410.346214 268.780671 
L 410.183148 268.780671 
L 409.938548 267.427651 
L 408.878616 243.524295 
L 407.98175 269.682685 
L 407.166417 289.977987 
L 406.595685 295.390067 
L 406.351085 297.194094 
L 405.861885 317.038389 
L 404.638887 361.688054 
L 402.682088 350.863893 
L 400.806824 281.859866 
L 399.176159 243.975302 
L 397.627027 170.912215 
L 397.300894 178.128322 
L 395.914828 208.345772 
L 394.284163 311.175302 
L 394.20263 312.979329 
L 392.490432 249.838389 
L 392.245832 249.838389 
L 392.082766 250.289396 
L 391.348966 250.289396 
L 391.1859 250.740403 
L 391.104366 250.740403 
L 390.859767 251.642416 
L 389.392168 176.324295 
L 388.739902 149.263893 
L 387.353837 110.928322 
L 387.272304 113.634362 
L 385.397039 260.211544 
L 383.847907 326.960537 
L 382.054175 194.81557 
L 381.972642 191.207517 
L 381.891109 192.10953 
L 380.505043 206.541745 
L 380.341977 207.894765 
L 379.608178 215.110872 
L 379.445111 216.463893 
L 378.711312 225.03302 
L 378.140579 198.874631 
L 377.080647 151.518926 
L 376.999114 148.361879 
L 376.91758 149.263893 
L 376.102248 165.049128 
L 375.123849 182.187383 
L 373.493184 276.447785 
L 373.330117 279.604832 
L 373.248584 279.604832 
L 372.922451 280.957852 
L 372.840918 280.957852 
L 372.596318 281.859866 
L 372.514785 281.859866 
L 372.107118 283.663893 
L 372.025585 283.663893 
L 371.454852 286.369933 
L 370.965653 266.525638 
L 369.824187 220.97396 
L 368.845788 250.289396 
L 366.970523 283.212886 
L 365.421392 323.80349 
L 365.339858 324.254497 
L 363.62766 314.783356 
L 360.447863 224.131007 
L 359.795597 200.678658 
L 359.387931 182.187383 
L 359.061798 180.834362 
L 358.980264 180.834362 
L 358.572598 179.030336 
L 358.491065 179.030336 
L 357.920332 176.324295 
L 357.838799 176.775302 
L 356.8604 206.992752 
L 356.208134 215.110872 
L 355.718934 221.424966 
L 355.229735 226.38604 
L 354.903602 224.131007 
L 354.577469 221.424966 
L 354.088269 218.267919 
L 353.843669 216.463893 
L 353.517536 214.208859 
L 353.436003 213.306846 
L 351.886871 222.32698 
L 351.642272 224.131007 
L 351.479205 220.522953 
L 350.500806 191.658523 
L 349.767007 170.912215 
L 349.196274 193.46255 
L 347.891742 242.622282 
L 346.179544 242.622282 
L 346.016477 243.073289 
L 345.934944 243.073289 
L 345.527278 234.504161 
L 344.630412 216.914899 
L 342.918213 190.305503 
L 342.83668 190.305503 
L 342.59208 189.40349 
L 342.429014 189.40349 
L 342.265947 188.952483 
L 342.184414 188.952483 
L 342.021348 188.501477 
L 341.939814 188.501477 
L 341.695215 187.599463 
L 341.613681 187.599463 
L 341.369082 186.69745 
L 339.57535 224.582013 
L 338.760018 228.641074 
L 338.026218 214.659866 
L 337.047819 197.070604 
L 336.966286 197.972617 
L 335.82482 209.698792 
L 335.661754 211.051812 
L 335.091021 216.463893 
L 334.927955 217.816913 
L 334.438755 222.32698 
L 334.275689 223.68 
L 333.868022 227.288054 
L 333.541889 229.543087 
L 333.215756 232.249128 
L 332.726557 235.406174 
L 332.481957 239.014228 
L 331.829691 251.642416 
L 330.851292 256.60349 
L 330.769759 256.60349 
L 330.117493 260.211544 
L 330.035959 259.30953 
L 328.160695 210.149799 
L 327.019229 187.148456 
L 326.203896 171.814228 
L 325.633164 154.675973 
L 325.307031 168.657181 
L 324.328632 211.953826 
L 323.513299 244.426309 
L 322.5349 270.133691 
L 322.127234 265.172617 
L 320.578102 248.936376 
L 320.496569 248.936376 
L 320.333502 248.485369 
L 320.251969 248.485369 
L 320.007369 247.583356 
L 319.844303 247.583356 
L 319.599703 246.681342 
L 319.436636 246.681342 
L 319.27357 246.230336 
L 319.110503 246.230336 
L 318.947437 245.779329 
L 318.78437 245.779329 
L 318.539771 242.171275 
L 316.664506 212.855839 
L 316.419906 211.051812 
L 316.338373 211.051812 
L 315.76764 207.894765 
L 315.196907 219.169933 
L 314.218508 238.563221 
L 313.484709 248.936376 
L 312.01711 265.172617 
L 310.957178 194.364564 
L 309.24498 257.054497 
L 309.081913 257.505503 
L 309.00038 257.505503 
L 308.75578 256.60349 
L 308.592714 256.60349 
L 308.348114 255.701477 
L 306.635916 275.545772 
L 306.554382 275.094765 
L 304.760651 265.623624 
L 303.700718 285.016913 
L 302.722319 313.881342 
L 301.662387 340.941745 
L 300.439388 316.136376 
L 299.379456 296.743087 
L 298.401057 272.839732 
L 297.667258 255.25047 
L 296.444259 229.994094 
L 296.199659 226.38604 
L 295.71046 219.62094 
L 291.389197 291.782013 
L 289.513932 248.034362 
L 289.432399 248.936376 
L 287.638667 314.783356 
L 286.660268 329.666577 
L 285.600336 317.489396 
L 285.111137 308.920268 
L 283.888138 289.075973 
L 283.154338 293.58604 
L 282.909739 295.390067 
L 282.665139 296.743087 
L 281.93134 314.332349 
L 280.626808 343.196779 
L 279.729942 330.117584 
L 279.322276 324.705503 
L 278.751543 317.038389 
L 278.506943 314.332349 
L 278.18081 315.685369 
L 278.099277 315.685369 
L 277.69161 317.489396 
L 277.610077 317.489396 
L 274.348747 335.078658 
L 274.267214 335.078658 
L 273.451881 339.137718 
L 273.370348 339.137718 
L 272.555015 350.863893 
L 272.391949 353.118926 
L 272.310416 352.667919 
L 270.516684 333.725638 
L 270.435151 333.274631 
L 269.538285 311.175302 
L 269.293685 304.861208 
L 268.39682 340.490738 
L 266.929221 391.454497 
L 265.950822 491.12698 
L 263.912491 448.281342 
L 263.667891 443.771275 
L 262.526425 396.866577 
L 262.444892 396.866577 
L 262.281825 397.317584 
L 262.200292 397.317584 
L 262.037226 397.768591 
L 261.955692 397.768591 
L 261.792626 398.219597 
L 261.711093 398.219597 
L 261.548026 398.670604 
L 261.466493 398.670604 
L 261.221893 399.572617 
L 261.058827 399.572617 
L 260.814227 400.474631 
L 260.732694 400.474631 
L 260.488094 401.376644 
L 260.406561 401.376644 
L 260.243494 401.827651 
L 259.183562 369.806174 
L 258.042096 352.667919 
L 257.797497 349.059866 
L 257.226764 340.490738 
L 256.003765 432.045101 
L 253.802367 368.453154 
L 252.660902 334.176644 
L 251.519436 354.922953 
L 250.704103 370.708188 
L 248.910372 399.121611 
L 248.828839 399.121611 
L 248.258106 401.827651 
L 248.176573 401.827651 
L 247.768906 403.631678 
L 247.687373 403.631678 
L 247.279707 405.435705 
L 247.198174 405.435705 
L 246.872041 406.788725 
L 246.790507 406.788725 
L 246.464374 408.141745 
L 246.382841 408.141745 
L 245.812108 410.847785 
L 245.730575 410.847785 
L 244.507576 378.375302 
L 243.773777 374.767248 
L 243.692244 374.767248 
L 243.366111 373.414228 
L 243.284577 373.414228 
L 243.121511 372.963221 
L 242.958444 372.963221 
L 242.795378 371.610201 
L 241.735446 323.80349 
L 241.653912 321.999463 
L 240.34938 335.980671 
L 238.066449 410.396779 
L 236.924984 358.08 
L 236.761917 358.08 
L 236.598851 358.531007 
L 236.191184 358.531007 
L 236.028118 358.08 
L 235.865051 358.08 
L 235.701985 357.628993 
L 235.375852 376.571275 
L 234.397453 432.496107 
L 233.989786 436.104161 
L 233.663653 438.359195 
L 233.33752 441.065235 
L 233.011387 443.320268 
L 232.603721 446.928322 
L 232.440655 448.281342 
L 232.196055 450.536376 
L 231.869922 441.065235 
L 231.136123 420.318926 
L 228.771658 381.532349 
L 227.385593 417.161879 
L 226.244127 440.163221 
L 225.836461 445.575302 
L 225.510328 449.634362 
L 225.347262 449.634362 
L 225.184195 449.183356 
L 225.021129 449.183356 
L 224.858062 448.732349 
L 224.776529 448.732349 
L 224.613462 448.281342 
L 224.450396 448.281342 
L 224.205796 447.379329 
L 224.124263 447.379329 
L 223.879663 446.477315 
L 223.79813 446.477315 
L 223.471997 445.124295 
L 222.738197 482.106846 
L 222.493598 492.48 
L 221.025999 469.027651 
L 220.862933 469.027651 
L 220.699866 468.576644 
L 220.5368 468.576644 
L 220.373733 468.125638 
L 220.129133 468.125638 
L 219.966067 467.674631 
L 219.721467 467.674631 
L 219.639934 467.223624 
L 218.661535 452.791409 
L 218.335402 448.732349 
L 218.253868 449.183356 
L 217.520069 452.791409 
L 217.438536 452.791409 
L 216.704737 456.399463 
L 216.623203 456.399463 
L 215.889404 460.007517 
L 215.807871 460.007517 
L 215.563271 458.20349 
L 215.237138 455.49745 
L 214.911005 453.242416 
L 213.52494 437.006174 
L 213.28034 434.751141 
L 212.220408 429.33906 
L 212.138874 429.33906 
L 211.649675 427.084027 
L 211.568142 427.084027 
L 211.242009 425.731007 
L 211.078942 425.731007 
L 210.915876 425.28 
L 210.834342 425.28 
L 210.752809 424.828993 
L 209.937477 399.572617 
L 209.285211 380.179329 
L 209.040611 381.081342 
L 208.877544 381.081342 
L 208.632944 381.983356 
L 208.551411 381.983356 
L 208.306811 382.885369 
L 208.225278 382.885369 
L 207.980678 383.787383 
L 207.899145 383.787383 
L 207.654545 384.689396 
L 207.654545 384.689396 
" clip-path="url(#p390f90267b)" style="fill: none; stroke: #1f77b4; stroke-width: 1.5; stroke-linecap: square"/>
   </g>
   <g id="line2d_13">
    <path d="M 354.332869 512.64 
L 354.332869 69.12 
" clip-path="url(#p390f90267b)" style="fill: none; stroke: #ff0000; stroke-width: 1.5; stroke-linecap: square"/>
   </g>
   <g id="patch_3">
    <path d="M 162 512.64 
L 162 69.12 
" style="fill: none; stroke: #000000; stroke-width: 0.8; stroke-linejoin: miter; stroke-linecap: square"/>
   </g>
   <g id="patch_4">
    <path d="M 1166.4 512.64 
L 1166.4 69.12 
" style="fill: none; stroke: #000000; stroke-width: 0.8; stroke-linejoin: miter; stroke-linecap: square"/>
   </g>
   <g id="patch_5">
    <path d="M 162 512.64 
L 1166.4 512.64 
" style="fill: none; stroke: #000000; stroke-width: 0.8; stroke-linejoin: miter; stroke-linecap: square"/>
   </g>
   <g id="patch_6">
    <path d="M 162 69.12 
L 1166.4 69.12 
" style="fill: none; stroke: #000000; stroke-width: 0.8; stroke-linejoin: miter; stroke-linecap: square"/>
   </g>
   <g id="text_14">
    <!-- Greenland Temperature (°C) -->
    <g transform="translate(579.389063 63.12) scale(0.12 -0.12)">
     <defs>
      <path id="DejaVuSans-47" d="M 3809 666 
L 3809 1919 
L 2778 1919 
L 2778 2438 
L 4434 2438 
L 4434 434 
Q 4069 175 3628 42 
Q 3188 -91 2688 -91 
Q 1594 -91 976 548 
Q 359 1188 359 2328 
Q 359 3472 976 4111 
Q 1594 4750 2688 4750 
Q 3144 4750 3555 4637 
Q 3966 4525 4313 4306 
L 4313 3634 
Q 3963 3931 3569 4081 
Q 3175 4231 2741 4231 
Q 1884 4231 1454 3753 
Q 1025 3275 1025 2328 
Q 1025 1384 1454 906 
Q 1884 428 2741 428 
Q 3075 428 3337 486 
Q 3600 544 3809 666 
z
" transform="scale(0.015625)"/>
      <path id="DejaVuSans-72" d="M 2631 2963 
Q 2534 3019 2420 3045 
Q 2306 3072 2169 3072 
Q 1681 3072 1420 2755 
Q 1159 2438 1159 1844 
L 1159 0 
L 581 0 
L 581 3500 
L 1159 3500 
L 1159 2956 
Q 1341 3275 1631 3429 
Q 1922 3584 2338 3584 
Q 2397 3584 2469 3576 
Q 2541 3569 2628 3553 
L 2631 2963 
z
" transform="scale(0.015625)"/>
      <path id="DejaVuSans-20" transform="scale(0.015625)"/>
      <path id="DejaVuSans-54" d="M -19 4666 
L 3928 4666 
L 3928 4134 
L 2272 4134 
L 2272 0 
L 1638 0 
L 1638 4134 
L -19 4134 
L -19 4666 
z
" transform="scale(0.015625)"/>
      <path id="DejaVuSans-6d" d="M 3328 2828 
Q 3544 3216 3844 3400 
Q 4144 3584 4550 3584 
Q 5097 3584 5394 3201 
Q 5691 2819 5691 2113 
L 5691 0 
L 5113 0 
L 5113 2094 
Q 5113 2597 4934 2840 
Q 4756 3084 4391 3084 
Q 3944 3084 3684 2787 
Q 3425 2491 3425 1978 
L 3425 0 
L 2847 0 
L 2847 2094 
Q 2847 2600 2669 2842 
Q 2491 3084 2119 3084 
Q 1678 3084 1418 2786 
Q 1159 2488 1159 1978 
L 1159 0 
L 581 0 
L 581 3500 
L 1159 3500 
L 1159 2956 
Q 1356 3278 1631 3431 
Q 1906 3584 2284 3584 
Q 2666 3584 2933 3390 
Q 3200 3197 3328 2828 
z
" transform="scale(0.015625)"/>
      <path id="DejaVuSans-70" d="M 1159 525 
L 1159 -1331 
L 581 -1331 
L 581 3500 
L 1159 3500 
L 1159 2969 
Q 1341 3281 1617 3432 
Q 1894 3584 2278 3584 
Q 2916 3584 3314 3078 
Q 3713 2572 3713 1747 
Q 3713 922 3314 415 
Q 2916 -91 2278 -91 
Q 1894 -91 1617 61 
Q 1341 213 1159 525 
z
M 3116 1747 
Q 3116 2381 2855 2742 
Q 2594 3103 2138 3103 
Q 1681 3103 1420 2742 
Q 1159 2381 1159 1747 
Q 1159 1113 1420 752 
Q 1681 391 2138 391 
Q 2594 391 2855 752 
Q 3116 1113 3116 1747 
z
" transform="scale(0.015625)"/>
      <path id="DejaVuSans-74" d="M 1172 4494 
L 1172 3500 
L 2356 3500 
L 2356 3053 
L 1172 3053 
L 1172 1153 
Q 1172 725 1289 603 
Q 1406 481 1766 481 
L 2356 481 
L 2356 0 
L 1766 0 
Q 1100 0 847 248 
Q 594 497 594 1153 
L 594 3053 
L 172 3053 
L 172 3500 
L 594 3500 
L 594 4494 
L 1172 4494 
z
" transform="scale(0.015625)"/>
      <path id="DejaVuSans-28" d="M 1984 4856 
Q 1566 4138 1362 3434 
Q 1159 2731 1159 2009 
Q 1159 1288 1364 580 
Q 1569 -128 1984 -844 
L 1484 -844 
Q 1016 -109 783 600 
Q 550 1309 550 2009 
Q 550 2706 781 3412 
Q 1013 4119 1484 4856 
L 1984 4856 
z
" transform="scale(0.015625)"/>
      <path id="DejaVuSans-b0" d="M 1600 4347 
Q 1350 4347 1178 4173 
Q 1006 4000 1006 3750 
Q 1006 3503 1178 3333 
Q 1350 3163 1600 3163 
Q 1850 3163 2022 3333 
Q 2194 3503 2194 3750 
Q 2194 3997 2020 4172 
Q 1847 4347 1600 4347 
z
M 1600 4750 
Q 1800 4750 1984 4673 
Q 2169 4597 2303 4453 
Q 2447 4313 2519 4134 
Q 2591 3956 2591 3750 
Q 2591 3338 2302 3052 
Q 2013 2766 1594 2766 
Q 1172 2766 890 3047 
Q 609 3328 609 3750 
Q 609 4169 896 4459 
Q 1184 4750 1600 4750 
z
" transform="scale(0.015625)"/>
      <path id="DejaVuSans-43" d="M 4122 4306 
L 4122 3641 
Q 3803 3938 3442 4084 
Q 3081 4231 2675 4231 
Q 1875 4231 1450 3742 
Q 1025 3253 1025 2328 
Q 1025 1406 1450 917 
Q 1875 428 2675 428 
Q 3081 428 3442 575 
Q 3803 722 4122 1019 
L 4122 359 
Q 3791 134 3420 21 
Q 3050 -91 2638 -91 
Q 1578 -91 968 557 
Q 359 1206 359 2328 
Q 359 3453 968 4101 
Q 1578 4750 2638 4750 
Q 3056 4750 3426 4639 
Q 3797 4528 4122 4306 
z
" transform="scale(0.015625)"/>
      <path id="DejaVuSans-29" d="M 513 4856 
L 1013 4856 
Q 1481 4119 1714 3412 
Q 1947 2706 1947 2009 
Q 1947 1309 1714 600 
Q 1481 -109 1013 -844 
L 513 -844 
Q 928 -128 1133 580 
Q 1338 1288 1338 2009 
Q 1338 2731 1133 3434 
Q 928 4138 513 4856 
z
" transform="scale(0.015625)"/>
     </defs>
     <use xlink:href="#DejaVuSans-47"/>
     <use xlink:href="#DejaVuSans-72" x="77.490234"/>
     <use xlink:href="#DejaVuSans-65" x="116.353516"/>
     <use xlink:href="#DejaVuSans-65" x="177.876953"/>
     <use xlink:href="#DejaVuSans-6e" x="239.400391"/>
     <use xlink:href="#DejaVuSans-6c" x="302.779297"/>
     <use xlink:href="#DejaVuSans-61" x="330.5625"/>
     <use xlink:href="#DejaVuSans-6e" x="391.841797"/>
     <use xlink:href="#DejaVuSans-64" x="455.220703"/>
     <use xlink:href="#DejaVuSans-20" x="518.697266"/>
     <use xlink:href="#DejaVuSans-54" x="550.484375"/>
     <use xlink:href="#DejaVuSans-65" x="594.568359"/>
     <use xlink:href="#DejaVuSans-6d" x="656.091797"/>
     <use xlink:href="#DejaVuSans-70" x="753.503906"/>
     <use xlink:href="#DejaVuSans-65" x="816.980469"/>
     <use xlink:href="#DejaVuSans-72" x="878.503906"/>
     <use xlink:href="#DejaVuSans-61" x="919.617188"/>
     <use xlink:href="#DejaVuSans-74" x="980.896484"/>
     <use xlink:href="#DejaVuSans-75" x="1020.105469"/>
     <use xlink:href="#DejaVuSans-72" x="1083.484375"/>
     <use xlink:href="#DejaVuSans-65" x="1122.347656"/>
     <use xlink:href="#DejaVuSans-20" x="1183.871094"/>
     <use xlink:href="#DejaVuSans-28" x="1215.658203"/>
     <use xlink:href="#DejaVuSans-b0" x="1254.671875"/>
     <use xlink:href="#DejaVuSans-43" x="1304.671875"/>
     <use xlink:href="#DejaVuSans-29" x="1374.496094"/>
    </g>
   </g>
  </g>
 </g>
 <defs>
  <clipPath id="p390f90267b">
   <rect x="162" y="69.12" width="1004.4" height="443.52"/>
  </clipPath>
 </defs>
</svg>
